STARTFONT 2.3
FONT -FontForge-Open Sans-Bold-R-Normal-Sans--8-80-72-72-P-49-ISO10646-1
SIZE 8 72 72  4
FONTBOUNDINGBOX 16 12 -5 -3
COMMENT "Generated by fontforge, http://fontforge.sourceforge.net"
COMMENT "Digitized data copyright (c) 2010-2011, Google Corporation."
STARTPROPERTIES 41
FOUNDRY "FontForge"
FAMILY_NAME "Open Sans"
WEIGHT_NAME "Bold"
SLANT "R"
SETWIDTH_NAME "Normal"
ADD_STYLE_NAME "Sans"
PIXEL_SIZE 8
POINT_SIZE 80
RESOLUTION_X 72
RESOLUTION_Y 72
SPACING "P"
AVERAGE_WIDTH 49
CHARSET_REGISTRY "ISO10646"
CHARSET_ENCODING "1"
FONTNAME_REGISTRY ""
CHARSET_COLLECTIONS "ISO8859-2 ISO8859-5 ISO8859-7 ISO8859-9 ISO8859-4 ISO10646-1"
BITS_PER_PIXEL 4
FONT_NAME "OpenSans-Bold"
FACE_NAME "Open Sans Bold"
COPYRIGHT "Digitized data copyright (c) 2010-2011, Google Corporation."
FONT_VERSION "1.10"
FONT_ASCENT 6
FONT_DESCENT 2
UNDERLINE_POSITION -1
UNDERLINE_THICKNESS 1
X_HEIGHT 4
CAP_HEIGHT 5
RAW_ASCENT 799
RAW_DESCENT 200
NORM_SPACE 2
RELATIVE_WEIGHT 70
RELATIVE_SETWIDTH 50
SUPERSCRIPT_X 0
SUPERSCRIPT_Y 3
SUPERSCRIPT_SIZE 5
SUBSCRIPT_X 0
SUBSCRIPT_Y 1
SUBSCRIPT_SIZE 5
FIGURE_WIDTH 5
AVG_LOWERCASE_WIDTH 49
AVG_UPPERCASE_WIDTH 57
ENDPROPERTIES
CHARS 938
STARTCHAR space
ENCODING 32
SWIDTH 259 0
DWIDTH 2 0
BBX 1 1 0 0
BITMAP
00
ENDCHAR
STARTCHAR exclam
ENCODING 33
SWIDTH 286 0
DWIDTH 2 0
BBX 2 6 0 0
BITMAP
69
7B
6B
5A
12
7B
ENDCHAR
STARTCHAR quotedbl
ENCODING 34
SWIDTH 472 0
DWIDTH 4 0
BBX 4 3 0 3
BITMAP
5693
68B2
2241
ENDCHAR
STARTCHAR numbersign
ENCODING 35
SWIDTH 645 0
DWIDTH 5 0
BBX 5 6 0 0
BITMAP
027630
169B40
6DCEB0
5C8D40
5E9B40
1B7500
ENDCHAR
STARTCHAR dollar
ENCODING 36
SWIDTH 570 0
DWIDTH 5 0
BBX 5 8 0 -1
BITMAP
001000
05B500
8CCA00
7DA100
05ED10
55AF30
49C500
004000
ENDCHAR
STARTCHAR percent
ENCODING 37
SWIDTH 900 0
DWIDTH 7 0
BBX 7 6 0 0
BITMAP
4B505500
A6E1C100
A7E88730
3B7CAAC0
0095B5E0
03B06E90
ENDCHAR
STARTCHAR ampersand
ENCODING 38
SWIDTH 750 0
DWIDTH 6 0
BBX 6 7 0 -1
BITMAP
08B700
2F4F00
0DD901
5ED6A8
9B2EE2
4EFCD7
001000
ENDCHAR
STARTCHAR quotesingle
ENCODING 39
SWIDTH 266 0
DWIDTH 2 0
BBX 2 3 0 3
BITMAP
56
68
22
ENDCHAR
STARTCHAR parenleft
ENCODING 40
SWIDTH 338 0
DWIDTH 3 0
BBX 3 8 0 -2
BITMAP
0830
3C00
8800
A600
9600
6900
1E20
0220
ENDCHAR
STARTCHAR parenright
ENCODING 41
SWIDTH 338 0
DWIDTH 3 0
BBX 3 8 0 -2
BITMAP
6500
2D00
0C40
0A50
0B50
0E20
5B00
3100
ENDCHAR
STARTCHAR asterisk
ENCODING 42
SWIDTH 544 0
DWIDTH 4 0
BBX 5 5 0 2
BITMAP
001000
049000
9CDD10
0CC300
164300
ENDCHAR
STARTCHAR plus
ENCODING 43
SWIDTH 570 0
DWIDTH 5 0
BBX 5 5 0 0
BITMAP
028000
25C410
6AD920
02B000
001000
ENDCHAR
STARTCHAR comma
ENCODING 44
SWIDTH 290 0
DWIDTH 2 0
BBX 2 2 0 -1
BITMAP
69
A5
ENDCHAR
STARTCHAR hyphen
ENCODING 45
SWIDTH 321 0
DWIDTH 3 0
BBX 3 2 0 1
BITMAP
7A30
4520
ENDCHAR
STARTCHAR period
ENCODING 46
SWIDTH 285 0
DWIDTH 2 0
BBX 2 2 0 0
BITMAP
11
7B
ENDCHAR
STARTCHAR slash
ENCODING 47
SWIDTH 413 0
DWIDTH 3 0
BBX 4 6 0 0
BITMAP
00A1
04C0
0A70
1E10
6A00
B500
ENDCHAR
STARTCHAR zero
ENCODING 48
SWIDTH 570 0
DWIDTH 5 0
BBX 5 6 0 0
BITMAP
19B400
7C5E10
A80E30
A80E40
8A2F20
2DE800
ENDCHAR
STARTCHAR one
ENCODING 49
SWIDTH 570 0
DWIDTH 5 0
BBX 4 6 0 0
BITMAP
02A3
3DE5
13E5
00E5
00E5
00E5
ENDCHAR
STARTCHAR two
ENCODING 50
SWIDTH 570 0
DWIDTH 5 0
BBX 5 6 0 0
BITMAP
2AB600
476F10
004E00
02D500
2D5000
AFFF50
ENDCHAR
STARTCHAR three
ENCODING 51
SWIDTH 570 0
DWIDTH 5 0
BBX 5 7 0 -1
BITMAP
4AB600
356F10
059900
07AC10
102F30
9EEA00
010000
ENDCHAR
STARTCHAR four
ENCODING 52
SWIDTH 570 0
DWIDTH 5 0
BBX 5 6 0 0
BITMAP
007800
03EB00
0C8B00
887C10
ACDE50
006B00
ENDCHAR
STARTCHAR five
ENCODING 53
SWIDTH 570 0
DWIDTH 5 0
BBX 5 7 0 -1
BITMAP
3BB900
6C5400
7D9400
268F10
102F20
8EE800
010000
ENDCHAR
STARTCHAR six
ENCODING 54
SWIDTH 570 0
DWIDTH 5 0
BBX 5 7 0 -1
BITMAP
04AA00
4D5300
9AA700
AC5F30
8A1E40
2DEB00
001000
ENDCHAR
STARTCHAR seven
ENCODING 55
SWIDTH 570 0
DWIDTH 5 0
BBX 5 6 0 0
BITMAP
8BBB30
456F20
008A00
01E400
06C000
0D6000
ENDCHAR
STARTCHAR eight
ENCODING 56
SWIDTH 570 0
DWIDTH 5 0
BBX 5 7 0 -1
BITMAP
19B600
7B4F10
3EBA00
4DBB00
A80E40
5EDB10
001000
ENDCHAR
STARTCHAR nine
ENCODING 57
SWIDTH 570 0
DWIDTH 5 0
BBX 5 7 0 -1
BITMAP
19B400
9B5F10
A81F40
4ECE30
003E10
5ED400
010000
ENDCHAR
STARTCHAR colon
ENCODING 58
SWIDTH 285 0
DWIDTH 2 0
BBX 2 5 0 0
BITMAP
24
59
00
11
7B
ENDCHAR
STARTCHAR semicolon
ENCODING 59
SWIDTH 290 0
DWIDTH 2 0
BBX 2 6 0 -1
BITMAP
24
59
00
00
69
A5
ENDCHAR
STARTCHAR less
ENCODING 60
SWIDTH 570 0
DWIDTH 5 0
BBX 5 4 0 1
BITMAP
002A30
2AB400
6D7100
017D30
ENDCHAR
STARTCHAR equal
ENCODING 61
SWIDTH 570 0
DWIDTH 5 0
BBX 5 3 0 1
BITMAP
8DDD30
577720
455510
ENDCHAR
STARTCHAR greater
ENCODING 62
SWIDTH 570 0
DWIDTH 5 0
BBX 5 5 0 0
BITMAP
860000
17C600
03AC20
8A4000
100000
ENDCHAR
STARTCHAR question
ENCODING 63
SWIDTH 477 0
DWIDTH 4 0
BBX 4 7 0 -1
BITMAP
7BA2
53A8
03D4
0C50
0300
0E30
0100
ENDCHAR
STARTCHAR at
ENCODING 64
SWIDTH 896 0
DWIDTH 7 0
BBX 7 7 0 -1
BITMAP
018BA500
1C545B50
67B8D5B0
86C0D4B0
77BBCC50
1C534300
01797200
ENDCHAR
STARTCHAR A
ENCODING 65
SWIDTH 689 0
DWIDTH 6 0
BBX 6 6 0 0
BITMAP
01B700
06CE00
0C6D40
2F7BA0
7DAAE1
C700E5
ENDCHAR
STARTCHAR B
ENCODING 66
SWIDTH 671 0
DWIDTH 5 0
BBX 5 6 0 0
BITMAP
3BB920
4E4BB0
4F7C80
4F8C90
4E07D0
4FFE60
ENDCHAR
STARTCHAR C
ENCODING 67
SWIDTH 637 0
DWIDTH 5 0
BBX 5 7 0 -1
BITMAP
04BB60
2F7440
7C0000
7B0000
4E2010
09FF80
000100
ENDCHAR
STARTCHAR D
ENCODING 68
SWIDTH 740 0
DWIDTH 6 0
BBX 6 6 0 0
BITMAP
3BB820
4E49E1
4E00D5
4E00D6
4E05F2
4FFC50
ENDCHAR
STARTCHAR E
ENCODING 69
SWIDTH 560 0
DWIDTH 4 0
BBX 4 6 0 0
BITMAP
3BBB
4E44
4F76
4F87
4E00
4FFF
ENDCHAR
STARTCHAR F
ENCODING 70
SWIDTH 548 0
DWIDTH 4 0
BBX 4 6 0 0
BITMAP
3BBB
4E44
4E43
4FB9
4E00
4E00
ENDCHAR
STARTCHAR G
ENCODING 71
SWIDTH 724 0
DWIDTH 6 0
BBX 6 7 0 -1
BITMAP
03AB90
2E8450
6D0330
7B1CF2
4F30F2
08EFE2
000100
ENDCHAR
STARTCHAR H
ENCODING 72
SWIDTH 765 0
DWIDTH 6 0
BBX 6 6 0 0
BITMAP
3A0094
4E00C6
4F77E6
4F88E6
4E00C6
4E00C6
ENDCHAR
STARTCHAR I
ENCODING 73
SWIDTH 331 0
DWIDTH 3 0
BBX 2 6 0 0
BITMAP
3A
4E
4E
4E
4E
4E
ENDCHAR
STARTCHAR J
ENCODING 74
SWIDTH 331 0
DWIDTH 3 0
BBX 3 8 -1 -2
BITMAP
03A0
04E0
04E0
04E0
04E0
04E0
3AC0
6920
ENDCHAR
STARTCHAR K
ENCODING 75
SWIDTH 664 0
DWIDTH 5 0
BBX 6 6 0 0
BITMAP
3A04A1
4E2E50
4EB900
4FDB00
4E1E60
4E06E1
ENDCHAR
STARTCHAR L
ENCODING 76
SWIDTH 564 0
DWIDTH 5 0
BBX 5 6 0 0
BITMAP
3A0000
4E0000
4E0000
4E0000
4E0000
4FFF40
ENDCHAR
STARTCHAR M
ENCODING 77
SWIDTH 942 0
DWIDTH 8 0
BBX 7 6 0 0
BITMAP
3B500A90
4EB03EC0
4CE18AC0
4C95D6C0
4C5DB4C0
4C1F64C0
ENDCHAR
STARTCHAR N
ENCODING 78
SWIDTH 812 0
DWIDTH 7 0
BBX 6 6 0 0
BITMAP
3B5038
4EE14C
4CB84C
4C3E6C
4C09EC
4C01EC
ENDCHAR
STARTCHAR O
ENCODING 79
SWIDTH 795 0
DWIDTH 6 0
BBX 6 6 0 0
BITMAP
04AB70
2F74D8
7C007C
7C006D
4F30B9
08EFB2
ENDCHAR
STARTCHAR P
ENCODING 80
SWIDTH 627 0
DWIDTH 5 0
BBX 5 6 0 0
BITMAP
3BB810
4E4D80
4E1B90
4FEB20
4E0000
4E0000
ENDCHAR
STARTCHAR Q
ENCODING 81
SWIDTH 795 0
DWIDTH 6 0
BBX 6 8 0 -2
BITMAP
04AB70
2F74D8
7C007C
7C006D
4F30BA
08EFD2
0006E2
000044
ENDCHAR
STARTCHAR R
ENCODING 82
SWIDTH 660 0
DWIDTH 5 0
BBX 6 6 0 0
BITMAP
3BA810
4E5C80
4E3C80
4FDC00
4E1E40
4E06D1
ENDCHAR
STARTCHAR S
ENCODING 83
SWIDTH 550 0
DWIDTH 4 0
BBX 5 6 0 0
BITMAP
19B900
7C4500
5E6000
06DB00
313F10
8FF900
ENDCHAR
STARTCHAR T
ENCODING 84
SWIDTH 579 0
DWIDTH 5 0
BBX 5 6 0 0
BITMAP
9BBB50
47E420
04E000
04E000
04E000
04E000
ENDCHAR
STARTCHAR U
ENCODING 85
SWIDTH 755 0
DWIDTH 6 0
BBX 6 6 0 0
BITMAP
3A0094
5D00D6
5D00D6
5D00D6
3F21E4
09FE90
ENDCHAR
STARTCHAR V
ENCODING 86
SWIDTH 649 0
DWIDTH 5 0
BBX 6 6 0 0
BITMAP
9401B1
9906C0
4E0B70
0E4F20
09CC00
03F700
ENDCHAR
STARTCHAR W
ENCODING 87
SWIDTH 966 0
DWIDTH 8 0
BBX 8 6 0 0
BITMAP
A3096067
A71EB0B6
7B4BE1E3
3E87B7E0
0ED37DA0
0AE03F60
ENDCHAR
STARTCHAR X
ENCODING 88
SWIDTH 666 0
DWIDTH 5 0
BBX 6 6 0 0
BITMAP
7703A0
2E3C60
07EC00
06FA00
2E4E50
A905E1
ENDCHAR
STARTCHAR Y
ENCODING 89
SWIDTH 624 0
DWIDTH 5 0
BBX 5 6 0 0
BITMAP
950590
5D1D50
0CCC00
04F400
02F100
02F100
ENDCHAR
STARTCHAR Z
ENCODING 90
SWIDTH 579 0
DWIDTH 5 0
BBX 5 6 0 0
BITMAP
8BBB40
348E20
01D600
09A000
5E1000
CFFF70
ENDCHAR
STARTCHAR bracketleft
ENCODING 91
SWIDTH 331 0
DWIDTH 3 0
BBX 3 8 0 -2
BITMAP
5B50
7910
7900
7900
7900
7900
7C40
2420
ENDCHAR
STARTCHAR backslash
ENCODING 92
SWIDTH 413 0
DWIDTH 3 0
BBX 4 6 0 0
BITMAP
9300
8900
2E00
0B50
06B0
01E1
ENDCHAR
STARTCHAR bracketright
ENCODING 93
SWIDTH 331 0
DWIDTH 3 0
BBX 3 8 0 -2
BITMAP
9B10
1E10
0E10
0E10
0E10
0E10
7F10
3400
ENDCHAR
STARTCHAR asciicircum
ENCODING 94
SWIDTH 532 0
DWIDTH 4 0
BBX 5 4 0 2
BITMAP
056000
0CC100
496700
B20C10
ENDCHAR
STARTCHAR underscore
ENCODING 95
SWIDTH 411 0
DWIDTH 3 0
BBX 4 2 0 -2
BITMAP
4441
4441
ENDCHAR
STARTCHAR grave
ENCODING 96
SWIDTH 606 0
DWIDTH 5 0
BBX 3 3 1 4
BITMAP
1100
3C20
0110
ENDCHAR
STARTCHAR a
ENCODING 97
SWIDTH 604 0
DWIDTH 5 0
BBX 5 6 0 -1
BITMAP
056300
198F20
28AF30
9B1F40
6ECD40
010000
ENDCHAR
STARTCHAR b
ENCODING 98
SWIDTH 632 0
DWIDTH 5 0
BBX 5 7 0 0
BITMAP
010000
6C0000
6C4500
6F9E60
6D08A0
6E0A90
6DDE30
ENDCHAR
STARTCHAR c
ENCODING 99
SWIDTH 514 0
DWIDTH 4 0
BBX 4 6 0 -1
BITMAP
0364
4E87
9900
8B01
2DEA
0010
ENDCHAR
STARTCHAR d
ENCODING 100
SWIDTH 632 0
DWIDTH 5 0
BBX 5 7 0 0
BITMAP
000100
000B70
045B70
5E9E70
990B70
8A0C70
3EDC70
ENDCHAR
STARTCHAR e
ENCODING 101
SWIDTH 590 0
DWIDTH 5 0
BBX 5 6 0 -1
BITMAP
036200
4E7E20
9DAE60
8C2210
2CDD20
001000
ENDCHAR
STARTCHAR f
ENCODING 102
SWIDTH 387 0
DWIDTH 3 0
BBX 4 7 0 0
BITMAP
0010
1DE4
5F60
8F80
3F00
3F00
3F00
ENDCHAR
STARTCHAR g
ENCODING 103
SWIDTH 564 0
DWIDTH 5 0
BBX 5 7 0 -2
BITMAP
056620
7B8D20
8A7C00
3C8200
5FEC20
D41C50
8CC900
ENDCHAR
STARTCHAR h
ENCODING 104
SWIDTH 657 0
DWIDTH 5 0
BBX 5 7 0 0
BITMAP
010000
6C0000
6C4600
6F9D80
6D08A0
6C08A0
6C08A0
ENDCHAR
STARTCHAR i
ENCODING 105
SWIDTH 305 0
DWIDTH 2 0
BBX 2 6 0 0
BITMAP
5C
25
6C
6C
6C
6C
ENDCHAR
STARTCHAR j
ENCODING 106
SWIDTH 305 0
DWIDTH 2 0
BBX 3 8 -1 -2
BITMAP
05C0
0250
06C0
06C0
06C0
06C0
17C0
7D60
ENDCHAR
STARTCHAR k
ENCODING 107
SWIDTH 620 0
DWIDTH 5 0
BBX 5 7 0 0
BITMAP
010000
6C0000
6C0440
6C5E20
6DE500
6E9C00
6C0B90
ENDCHAR
STARTCHAR l
ENCODING 108
SWIDTH 305 0
DWIDTH 2 0
BBX 2 7 0 0
BITMAP
01
6C
6C
6C
6C
6C
6C
ENDCHAR
STARTCHAR m
ENCODING 109
SWIDTH 981 0
DWIDTH 8 0
BBX 8 5 0 0
BITMAP
23551640
6E9ED9F2
6D0A90E4
6C0A80E4
6C0A80E4
ENDCHAR
STARTCHAR n
ENCODING 110
SWIDTH 657 0
DWIDTH 5 0
BBX 5 5 0 0
BITMAP
234600
6E9D80
6D08A0
6C08A0
6C08A0
ENDCHAR
STARTCHAR o
ENCODING 111
SWIDTH 619 0
DWIDTH 5 0
BBX 5 6 0 -1
BITMAP
036300
4E9E30
990A80
8B0B70
1CEC10
001000
ENDCHAR
STARTCHAR p
ENCODING 112
SWIDTH 632 0
DWIDTH 5 0
BBX 5 7 0 -2
BITMAP
244500
6E9E60
6D08A0
6E0A90
6EDE30
6C0000
5B0000
ENDCHAR
STARTCHAR q
ENCODING 113
SWIDTH 632 0
DWIDTH 5 0
BBX 5 7 0 -2
BITMAP
055320
5E9E70
990B70
8A0C70
3EDD70
000B70
000A60
ENDCHAR
STARTCHAR r
ENCODING 114
SWIDTH 454 0
DWIDTH 4 0
BBX 4 5 0 0
BITMAP
2343
6EC4
6D00
6C00
6C00
ENDCHAR
STARTCHAR s
ENCODING 115
SWIDTH 497 0
DWIDTH 4 0
BBX 4 6 0 -1
BITMAP
1562
8C85
5F91
02C9
9DE5
0100
ENDCHAR
STARTCHAR t
ENCODING 116
SWIDTH 434 0
DWIDTH 3 0
BBX 4 6 0 0
BITMAP
0400
3E61
8F81
4E00
4F00
1EE3
ENDCHAR
STARTCHAR u
ENCODING 117
SWIDTH 657 0
DWIDTH 5 0
BBX 5 5 0 0
BITMAP
240340
6C08A0
6C09A0
6D0BA0
2EEBA0
ENDCHAR
STARTCHAR v
ENCODING 118
SWIDTH 568 0
DWIDTH 5 0
BBX 5 5 0 0
BITMAP
520430
A80E30
4D5D00
0DC700
08F100
ENDCHAR
STARTCHAR w
ENCODING 119
SWIDTH 855 0
DWIDTH 7 0
BBX 7 5 0 0
BITMAP
52161240
A77E5A80
6BB88D30
2ED2CE00
0CB0DA00
ENDCHAR
STARTCHAR x
ENCODING 120
SWIDTH 578 0
DWIDTH 5 0
BBX 5 5 0 0
BITMAP
430520
5E7D10
0AF500
1ED900
9A2E40
ENDCHAR
STARTCHAR y
ENCODING 121
SWIDTH 568 0
DWIDTH 5 0
BBX 5 7 0 -2
BITMAP
520430
A91E30
4E5D00
0DC700
07F200
18B000
AC2000
ENDCHAR
STARTCHAR z
ENCODING 122
SWIDTH 487 0
DWIDTH 4 0
BBX 4 5 0 0
BITMAP
4663
58E7
07C0
3E20
BFE9
ENDCHAR
STARTCHAR braceleft
ENCODING 123
SWIDTH 394 0
DWIDTH 3 0
BBX 3 8 0 -2
BITMAP
0590
0D50
0D20
BB00
5E10
0D20
0CA0
0130
ENDCHAR
STARTCHAR bar
ENCODING 124
SWIDTH 550 0
DWIDTH 4 0
BBX 2 9 1 -2
BITMAP
01
3A
3A
3A
3A
3A
3A
3A
38
ENDCHAR
STARTCHAR braceright
ENCODING 125
SWIDTH 394 0
DWIDTH 3 0
BBX 3 8 0 -2
BITMAP
7700
3F00
0F10
09C0
0E70
0F00
7E00
3100
ENDCHAR
STARTCHAR asciitilde
ENCODING 126
SWIDTH 570 0
DWIDTH 5 0
BBX 5 2 0 2
BITMAP
373210
67BC20
ENDCHAR
STARTCHAR nonbreakingspace
ENCODING 160
SWIDTH 259 0
DWIDTH 2 0
BBX 1 1 0 0
BITMAP
00
ENDCHAR
STARTCHAR exclamdown
ENCODING 161
SWIDTH 286 0
DWIDTH 2 0
BBX 2 7 0 -2
BITMAP
13
6A
23
6A
7B
8B
45
ENDCHAR
STARTCHAR cent
ENCODING 162
SWIDTH 570 0
DWIDTH 5 0
BBX 4 7 0 -1
BITMAP
0091
1DDC
5D00
6D00
2EBB
01C3
0010
ENDCHAR
STARTCHAR sterling
ENCODING 163
SWIDTH 570 0
DWIDTH 5 0
BBX 5 6 0 0
BITMAP
05BA10
0E7500
4F8400
5F8500
2E1000
AFFF60
ENDCHAR
STARTCHAR currency
ENCODING 164
SWIDTH 570 0
DWIDTH 5 0
BBX 4 4 0 1
BITMAP
3546
3D9B
2B4B
4AAB
ENDCHAR
STARTCHAR yen
ENCODING 165
SWIDTH 570 0
DWIDTH 5 0
BBX 5 6 0 0
BITMAP
950940
5C3D00
0DC600
3DF900
2AE700
16D200
ENDCHAR
STARTCHAR brokenbar
ENCODING 166
SWIDTH 550 0
DWIDTH 4 0
BBX 2 9 1 -2
BITMAP
01
3A
3A
3A
01
14
3A
3A
38
ENDCHAR
STARTCHAR section
ENCODING 167
SWIDTH 485 0
DWIDTH 4 0
BBX 4 8 0 -1
BITMAP
0110
5CA4
5C40
69B5
4CB5
02B6
7BC3
0100
ENDCHAR
STARTCHAR dieresis
ENCODING 168
SWIDTH 606 0
DWIDTH 5 0
BBX 3 1 1 5
BITMAP
B490
ENDCHAR
STARTCHAR copyright
ENCODING 169
SWIDTH 832 0
DWIDTH 7 0
BBX 7 7 0 -1
BITMAP
02887100
2A6A7900
83D21620
83C00530
479B5A00
06989300
00010000
ENDCHAR
STARTCHAR ordfeminine
ENCODING 170
SWIDTH 382 0
DWIDTH 3 0
BBX 3 3 0 3
BITMAP
5A50
58B0
A9A0
ENDCHAR
STARTCHAR guillemotleft
ENCODING 171
SWIDTH 615 0
DWIDTH 5 0
BBX 5 4 0 0
BITMAP
0A5A50
6C7C00
3D5D20
043530
ENDCHAR
STARTCHAR logicalnot
ENCODING 172
SWIDTH 570 0
DWIDTH 5 0
BBX 5 3 0 1
BITMAP
244410
699D30
000930
ENDCHAR
STARTCHAR uni00AD
ENCODING 173
SWIDTH 321 0
DWIDTH 3 0
BBX 3 2 0 1
BITMAP
7A30
4520
ENDCHAR
STARTCHAR registered
ENCODING 174
SWIDTH 832 0
DWIDTH 7 0
BBX 7 7 0 -1
BITMAP
02887100
2A994900
81D87620
80DD2530
47C59A00
06989300
00010000
ENDCHAR
STARTCHAR overscore
ENCODING 175
SWIDTH 500 0
DWIDTH 4 0
BBX 4 1 0 6
BITMAP
CCCC
ENDCHAR
STARTCHAR degree
ENCODING 176
SWIDTH 428 0
DWIDTH 3 0
BBX 3 3 0 3
BITMAP
2B70
93C0
4C80
ENDCHAR
STARTCHAR plusminus
ENCODING 177
SWIDTH 570 0
DWIDTH 5 0
BBX 5 5 0 0
BITMAP
02B000
58D720
47C510
029000
8DDD30
ENDCHAR
STARTCHAR twosuperior
ENCODING 178
SWIDTH 378 0
DWIDTH 3 0
BBX 3 4 0 2
BITMAP
6B50
1680
4C20
8B80
ENDCHAR
STARTCHAR threesuperior
ENCODING 179
SWIDTH 378 0
DWIDTH 3 0
BBX 3 4 0 2
BITMAP
6A40
2960
2780
7B50
ENDCHAR
STARTCHAR acute
ENCODING 180
SWIDTH 606 0
DWIDTH 5 0
BBX 3 3 1 4
BITMAP
0210
4C20
2000
ENDCHAR
STARTCHAR mu
ENCODING 181
SWIDTH 660 0
DWIDTH 5 0
BBX 5 7 0 -2
BITMAP
250340
6C08A0
6C08A0
6D0AA0
6EECA0
6C0000
5B0000
ENDCHAR
STARTCHAR paragraph
ENCODING 182
SWIDTH 654 0
DWIDTH 5 0
BBX 5 8 0 -1
BITMAP
001110
3EFC80
8FF580
7FF580
2BE580
005580
005580
005580
ENDCHAR
STARTCHAR periodcentered
ENCODING 183
SWIDTH 285 0
DWIDTH 2 0
BBX 2 2 0 2
BITMAP
24
59
ENDCHAR
STARTCHAR cedilla
ENCODING 184
SWIDTH 205 0
DWIDTH 2 0
BBX 3 2 -1 -2
BITMAP
0A50
1B60
ENDCHAR
STARTCHAR onesuperior
ENCODING 185
SWIDTH 378 0
DWIDTH 3 0
BBX 3 4 0 2
BITMAP
1930
5C40
0A40
0730
ENDCHAR
STARTCHAR ordmasculine
ENCODING 186
SWIDTH 388 0
DWIDTH 3 0
BBX 3 3 0 3
BITMAP
4A50
B1C0
7B90
ENDCHAR
STARTCHAR guillemotright
ENCODING 187
SWIDTH 615 0
DWIDTH 5 0
BBX 5 4 0 0
BITMAP
696900
1D6D50
3E5D20
344400
ENDCHAR
STARTCHAR onequarter
ENCODING 188
SWIDTH 880 0
DWIDTH 7 0
BBX 7 6 0 0
BITMAP
2A108200
6D14A000
0C1C2710
09687E10
01C3AD30
07726D40
ENDCHAR
STARTCHAR onehalf
ENCODING 189
SWIDTH 880 0
DWIDTH 7 0
BBX 7 6 0 0
BITMAP
2A108200
6D14A000
0C1C5720
09684880
01C12C20
0770BD80
ENDCHAR
STARTCHAR threequarters
ENCODING 190
SWIDTH 880 0
DWIDTH 7 0
BBX 7 6 0 0
BITMAP
4A505500
1771C100
16A86610
6A8C6E30
00A5BC50
03B16C60
ENDCHAR
STARTCHAR questiondown
ENCODING 191
SWIDTH 477 0
DWIDTH 4 0
BBX 4 7 0 -2
BITMAP
0130
05B0
0140
0A80
8A00
AB87
1773
ENDCHAR
STARTCHAR Agrave
ENCODING 192
SWIDTH 689 0
DWIDTH 6 0
BBX 6 8 0 0
BITMAP
036000
009400
01B700
06CE00
0C6D40
2F7BA0
7DAAE1
C700E5
ENDCHAR
STARTCHAR Aacute
ENCODING 193
SWIDTH 689 0
DWIDTH 6 0
BBX 6 8 0 0
BITMAP
001710
008500
01B700
06CE00
0C6D40
2F7BA0
7DAAE1
C700E5
ENDCHAR
STARTCHAR Acircumflex
ENCODING 194
SWIDTH 689 0
DWIDTH 6 0
BBX 6 8 0 0
BITMAP
017400
086A30
01B700
06CE00
0C6D40
2F7BA0
7DAAE1
C700E5
ENDCHAR
STARTCHAR Atilde
ENCODING 195
SWIDTH 689 0
DWIDTH 6 0
BBX 6 8 0 0
BITMAP
024220
088B10
01B700
06CE00
0C6D40
2F7BA0
7DAAE1
C700E5
ENDCHAR
STARTCHAR Adieresis
ENCODING 196
SWIDTH 689 0
DWIDTH 6 0
BBX 6 8 0 0
BITMAP
022300
054900
01B700
06CE00
0C6D40
2F7BA0
7DAAE1
C700E5
ENDCHAR
STARTCHAR Aring
ENCODING 197
SWIDTH 689 0
DWIDTH 6 0
BBX 6 7 0 0
BITMAP
02A800
02FD00
06CE00
0C6D40
2F7BA0
7DAAE1
C700E5
ENDCHAR
STARTCHAR AE
ENCODING 198
SWIDTH 952 0
DWIDTH 8 0
BBX 8 6 0 0
BITMAP
006BBBB1
01E8F441
07B4F770
0D98F880
5EABE000
C704FFF2
ENDCHAR
STARTCHAR Ccedilla
ENCODING 199
SWIDTH 637 0
DWIDTH 5 0
BBX 5 8 0 -2
BITMAP
04BB60
2F7440
7C0000
7B0000
4E2010
09FF80
009700
00B800
ENDCHAR
STARTCHAR Egrave
ENCODING 200
SWIDTH 560 0
DWIDTH 4 0
BBX 4 8 0 0
BITMAP
0540
02A1
3BBB
4E44
4F76
4F87
4E00
4FFF
ENDCHAR
STARTCHAR Eacute
ENCODING 201
SWIDTH 560 0
DWIDTH 4 0
BBX 4 8 0 0
BITMAP
0045
02A2
3BBB
4E44
4F76
4F87
4E00
4FFF
ENDCHAR
STARTCHAR Ecircumflex
ENCODING 202
SWIDTH 560 0
DWIDTH 4 0
BBX 4 8 0 0
BITMAP
0372
1A59
3BBB
4E44
4F76
4F87
4E00
4FFF
ENDCHAR
STARTCHAR Edieresis
ENCODING 203
SWIDTH 560 0
DWIDTH 4 0
BBX 4 8 0 0
BITMAP
0313
0836
3BBB
4E44
4F76
4F87
4E00
4FFF
ENDCHAR
STARTCHAR Igrave
ENCODING 204
SWIDTH 331 0
DWIDTH 3 0
BBX 3 8 -1 0
BITMAP
1720
0490
03A0
04E0
04E0
04E0
04E0
04E0
ENDCHAR
STARTCHAR Iacute
ENCODING 205
SWIDTH 331 0
DWIDTH 3 0
BBX 3 8 0 0
BITMAP
0450
2A20
3A00
4E00
4E00
4E00
4E00
4E00
ENDCHAR
STARTCHAR Icircumflex
ENCODING 206
SWIDTH 331 0
DWIDTH 3 0
BBX 4 8 -1 0
BITMAP
0471
2A69
03A0
04E0
04E0
04E0
04E0
04E0
ENDCHAR
STARTCHAR Idieresis
ENCODING 207
SWIDTH 331 0
DWIDTH 3 0
BBX 3 8 0 0
BITMAP
3120
9460
3A00
4E00
4E00
4E00
4E00
4E00
ENDCHAR
STARTCHAR Eth
ENCODING 208
SWIDTH 740 0
DWIDTH 6 0
BBX 6 6 0 0
BITMAP
3BB820
4E49E1
7E40D5
AF90D6
4E05F2
4FFC50
ENDCHAR
STARTCHAR Ntilde
ENCODING 209
SWIDTH 812 0
DWIDTH 7 0
BBX 6 8 0 0
BITMAP
004240
039B60
3B5038
4EE14C
4CB84C
4C3E6C
4C09EC
4C01EC
ENDCHAR
STARTCHAR Ograve
ENCODING 210
SWIDTH 795 0
DWIDTH 6 0
BBX 6 8 0 0
BITMAP
017200
004900
04AB70
2F74D8
7C007C
7C006D
4F30B9
08EFB2
ENDCHAR
STARTCHAR Oacute
ENCODING 211
SWIDTH 795 0
DWIDTH 6 0
BBX 6 8 0 0
BITMAP
000540
002A10
04AB70
2F74D8
7C007C
7C006D
4F30B9
08EFB2
ENDCHAR
STARTCHAR Ocircumflex
ENCODING 212
SWIDTH 795 0
DWIDTH 6 0
BBX 6 8 0 0
BITMAP
005710
039670
04AB70
2F74D8
7C007C
7C006D
4F30B9
08EFB2
ENDCHAR
STARTCHAR Otilde
ENCODING 213
SWIDTH 795 0
DWIDTH 6 0
BBX 6 8 0 0
BITMAP
005140
038B60
04AB70
2F74D8
7C007C
7C006D
4F30B9
08EFB2
ENDCHAR
STARTCHAR Odieresis
ENCODING 214
SWIDTH 795 0
DWIDTH 6 0
BBX 6 8 0 0
BITMAP
003220
018540
04AB70
2F74D8
7C007C
7C006D
4F30B9
08EFB2
ENDCHAR
STARTCHAR multiply
ENCODING 215
SWIDTH 570 0
DWIDTH 5 0
BBX 4 4 0 1
BITMAP
2405
2DB8
0AE4
382A
ENDCHAR
STARTCHAR Oslash
ENCODING 216
SWIDTH 795 0
DWIDTH 6 0
BBX 6 7 0 -1
BITMAP
04ABB4
2F77F7
7C0B9C
7C766D
4FB1B9
0DEFB2
020000
ENDCHAR
STARTCHAR Ugrave
ENCODING 217
SWIDTH 755 0
DWIDTH 6 0
BBX 6 8 0 0
BITMAP
026000
007600
3A0094
5D00D6
5D00D6
5D00D6
3F21E4
09FE90
ENDCHAR
STARTCHAR Uacute
ENCODING 218
SWIDTH 755 0
DWIDTH 6 0
BBX 6 8 0 0
BITMAP
000630
005800
3A0094
5D00D6
5D00D6
5D00D6
3F21E4
09FE90
ENDCHAR
STARTCHAR Ucircumflex
ENCODING 219
SWIDTH 755 0
DWIDTH 6 0
BBX 6 8 0 0
BITMAP
006600
058860
3A0094
5D00D6
5D00D6
5D00D6
3F21E4
09FE90
ENDCHAR
STARTCHAR Udieresis
ENCODING 220
SWIDTH 755 0
DWIDTH 6 0
BBX 6 8 0 0
BITMAP
013310
027630
3A0094
5D00D6
5D00D6
5D00D6
3F21E4
09FE90
ENDCHAR
STARTCHAR Yacute
ENCODING 221
SWIDTH 624 0
DWIDTH 5 0
BBX 5 8 0 0
BITMAP
003600
01A200
950590
5D1D50
0CCC00
04F400
02F100
02F100
ENDCHAR
STARTCHAR Thorn
ENCODING 222
SWIDTH 627 0
DWIDTH 5 0
BBX 5 6 0 0
BITMAP
3A0000
4FCA10
4E3C90
4E2B90
4FDA10
4E0000
ENDCHAR
STARTCHAR germandbls
ENCODING 223
SWIDTH 710 0
DWIDTH 6 0
BBX 6 8 0 -1
BITMAP
001100
1CEE80
5D07C0
6C4D20
6C3E90
6C01E5
6C8CE2
000100
ENDCHAR
STARTCHAR agrave
ENCODING 224
SWIDTH 604 0
DWIDTH 5 0
BBX 5 8 0 -1
BITMAP
021000
07B000
058300
198F20
28AF30
9B1F40
6ECD40
010000
ENDCHAR
STARTCHAR aacute
ENCODING 225
SWIDTH 604 0
DWIDTH 5 0
BBX 5 8 0 -1
BITMAP
001200
01C600
058300
198F20
28AF30
9B1F40
6ECD40
010000
ENDCHAR
STARTCHAR acircumflex
ENCODING 226
SWIDTH 604 0
DWIDTH 5 0
BBX 5 8 0 -1
BITMAP
012000
0BA900
166500
198F20
28AF30
9B1F40
6ECD40
010000
ENDCHAR
STARTCHAR atilde
ENCODING 227
SWIDTH 604 0
DWIDTH 5 0
BBX 5 7 0 -1
BITMAP
0BCB00
167400
198F20
28AF30
9B1F40
6ECD40
010000
ENDCHAR
STARTCHAR adieresis
ENCODING 228
SWIDTH 604 0
DWIDTH 5 0
BBX 5 7 0 -1
BITMAP
0B4A00
056300
198F20
28AF30
9B1F40
6ECD40
010000
ENDCHAR
STARTCHAR aring
ENCODING 229
SWIDTH 604 0
DWIDTH 5 0
BBX 5 8 0 -1
BITMAP
039200
06A500
057300
198F20
28AF30
9B1F40
6ECD40
010000
ENDCHAR
STARTCHAR ae
ENCODING 230
SWIDTH 916 0
DWIDTH 7 0
BBX 7 6 0 -1
BITMAP
05625610
198FBAB0
29BFBBF0
9B2F6220
6ED7DDA0
00000100
ENDCHAR
STARTCHAR ccedilla
ENCODING 231
SWIDTH 514 0
DWIDTH 4 0
BBX 4 7 0 -2
BITMAP
0364
4E87
9900
8B01
2DEA
03D1
06C1
ENDCHAR
STARTCHAR egrave
ENCODING 232
SWIDTH 590 0
DWIDTH 5 0
BBX 5 8 0 -1
BITMAP
021000
06B000
038300
4E7E20
9DAE60
8C2210
2CDD20
001000
ENDCHAR
STARTCHAR eacute
ENCODING 233
SWIDTH 590 0
DWIDTH 5 0
BBX 5 8 0 -1
BITMAP
001200
00B600
048200
4E7E20
9DAE60
8C2210
2CDD20
001000
ENDCHAR
STARTCHAR ecircumflex
ENCODING 234
SWIDTH 590 0
DWIDTH 5 0
BBX 5 8 0 -1
BITMAP
012000
0BAA00
156400
4E7E20
9DAE60
8C2210
2CDD20
001000
ENDCHAR
STARTCHAR edieresis
ENCODING 235
SWIDTH 590 0
DWIDTH 5 0
BBX 5 7 0 -1
BITMAP
0A4A00
036300
4E7E20
9DAE60
8C2210
2CDD20
001000
ENDCHAR
STARTCHAR igrave
ENCODING 236
SWIDTH 305 0
DWIDTH 2 0
BBX 3 7 -1 0
BITMAP
1200
1B60
0270
06C0
06C0
06C0
06C0
ENDCHAR
STARTCHAR iacute
ENCODING 237
SWIDTH 305 0
DWIDTH 2 0
BBX 3 7 0 0
BITMAP
0110
1C40
3600
6C00
6C00
6C00
6C00
ENDCHAR
STARTCHAR icircumflex
ENCODING 238
SWIDTH 305 0
DWIDTH 2 0
BBX 4 7 -1 0
BITMAP
0120
1CB6
1352
06C0
06C0
06C0
06C0
ENDCHAR
STARTCHAR idieresis
ENCODING 239
SWIDTH 305 0
DWIDTH 2 0
BBX 3 6 0 0
BITMAP
C660
2500
6C00
6C00
6C00
6C00
ENDCHAR
STARTCHAR eth
ENCODING 240
SWIDTH 619 0
DWIDTH 5 0
BBX 5 7 0 -1
BITMAP
05CB00
069D10
1BDE60
8B1C80
8A0B70
2DDC10
001000
ENDCHAR
STARTCHAR ntilde
ENCODING 241
SWIDTH 657 0
DWIDTH 5 0
BBX 5 6 0 0
BITMAP
0ACC10
255700
6E9D80
6D08A0
6C08A0
6C08A0
ENDCHAR
STARTCHAR ograve
ENCODING 242
SWIDTH 619 0
DWIDTH 5 0
BBX 5 8 0 -1
BITMAP
021000
07B000
038300
4E9E30
990A80
8B0B70
1CEC10
001000
ENDCHAR
STARTCHAR oacute
ENCODING 243
SWIDTH 619 0
DWIDTH 5 0
BBX 5 8 0 -1
BITMAP
001200
00B700
038300
4E9E30
990A80
8B0B70
1CEC10
001000
ENDCHAR
STARTCHAR ocircumflex
ENCODING 244
SWIDTH 619 0
DWIDTH 5 0
BBX 5 8 0 -1
BITMAP
002000
0AAA00
056500
4E9E30
990A80
8B0B70
1CEC10
001000
ENDCHAR
STARTCHAR otilde
ENCODING 245
SWIDTH 619 0
DWIDTH 5 0
BBX 5 7 0 -1
BITMAP
0BCB00
047400
4E9E30
990A80
8B0B70
1CEC10
001000
ENDCHAR
STARTCHAR odieresis
ENCODING 246
SWIDTH 619 0
DWIDTH 5 0
BBX 5 7 0 -1
BITMAP
0B4A00
036300
4E9E30
990A80
8B0B70
1CEC10
001000
ENDCHAR
STARTCHAR divide
ENCODING 247
SWIDTH 570 0
DWIDTH 5 0
BBX 5 5 0 0
BITMAP
028000
247410
699920
03B000
001000
ENDCHAR
STARTCHAR oslash
ENCODING 248
SWIDTH 619 0
DWIDTH 5 0
BBX 5 6 0 -1
BITMAP
036610
4EAF40
99AC80
8E7B70
3FEC10
010000
ENDCHAR
STARTCHAR ugrave
ENCODING 249
SWIDTH 657 0
DWIDTH 5 0
BBX 5 7 0 0
BITMAP
021000
06B000
242440
6C08A0
6C09A0
6D0BA0
2EEBA0
ENDCHAR
STARTCHAR uacute
ENCODING 250
SWIDTH 657 0
DWIDTH 5 0
BBX 5 7 0 0
BITMAP
000200
009800
252340
6C08A0
6C09A0
6D0BA0
2EEBA0
ENDCHAR
STARTCHAR ucircumflex
ENCODING 251
SWIDTH 657 0
DWIDTH 5 0
BBX 5 7 0 0
BITMAP
002100
09AB10
260540
6C08A0
6C09A0
6D0BA0
2EEBA0
ENDCHAR
STARTCHAR udieresis
ENCODING 252
SWIDTH 657 0
DWIDTH 5 0
BBX 5 6 0 0
BITMAP
094C00
250340
6C08A0
6C09A0
6D0BA0
2EEBA0
ENDCHAR
STARTCHAR yacute
ENCODING 253
SWIDTH 568 0
DWIDTH 5 0
BBX 5 9 0 -2
BITMAP
001100
02C400
531430
A91E30
4E5D00
0DC700
07F200
18B000
AC2000
ENDCHAR
STARTCHAR thorn
ENCODING 254
SWIDTH 632 0
DWIDTH 5 0
BBX 5 9 0 -2
BITMAP
010000
6C0000
6C4500
6F9E60
6D08A0
6E0A90
6EDE30
6C0000
5B0000
ENDCHAR
STARTCHAR ydieresis
ENCODING 255
SWIDTH 568 0
DWIDTH 5 0
BBX 5 8 0 -2
BITMAP
0C5700
520430
A91E30
4E5D00
0DC700
07F200
18B000
AC2000
ENDCHAR
STARTCHAR Amacron
ENCODING 256
SWIDTH 689 0
DWIDTH 6 0
BBX 6 7 0 0
BITMAP
07CC10
01B700
06CE00
0C6D40
2F7BA0
7DAAE1
C700E5
ENDCHAR
STARTCHAR amacron
ENCODING 257
SWIDTH 604 0
DWIDTH 5 0
BBX 5 7 0 -1
BITMAP
09A800
079500
198F20
28AF30
9B1F40
6ECD40
010000
ENDCHAR
STARTCHAR Abreve
ENCODING 258
SWIDTH 689 0
DWIDTH 6 0
BBX 6 8 0 0
BITMAP
051520
04C900
01B700
06CE00
0C6D40
2F7BA0
7DAAE1
C700E5
ENDCHAR
STARTCHAR abreve
ENCODING 259
SWIDTH 604 0
DWIDTH 5 0
BBX 5 8 0 -1
BITMAP
020200
0BBA00
058300
198F20
28AF30
9B1F40
6ECD40
010000
ENDCHAR
STARTCHAR Aogonek
ENCODING 260
SWIDTH 689 0
DWIDTH 6 0
BBX 6 8 0 -2
BITMAP
01B700
06CE00
0C6D40
2F7BA0
7DAAE1
C700E5
000480
0004B1
ENDCHAR
STARTCHAR aogonek
ENCODING 261
SWIDTH 604 0
DWIDTH 5 0
BBX 5 7 0 -2
BITMAP
056300
198F20
28AF30
9B1F40
6ECD40
012A00
002B30
ENDCHAR
STARTCHAR Cacute
ENCODING 262
SWIDTH 637 0
DWIDTH 5 0
BBX 5 9 0 -1
BITMAP
000630
005800
04BB60
2F7440
7C0000
7B0000
4E2010
09FF80
000100
ENDCHAR
STARTCHAR cacute
ENCODING 263
SWIDTH 514 0
DWIDTH 4 0
BBX 4 8 0 -1
BITMAP
0012
00B6
0484
4E87
9900
8B01
2DEA
0010
ENDCHAR
STARTCHAR Ccircumflex
ENCODING 264
SWIDTH 637 0
DWIDTH 5 0
BBX 5 9 0 -1
BITMAP
005600
049760
04BB60
2F7440
7C0000
7B0000
4E2010
09FF80
000100
ENDCHAR
STARTCHAR ccircumflex
ENCODING 265
SWIDTH 514 0
DWIDTH 4 0
BBX 4 8 0 -1
BITMAP
0120
1BA9
1466
4E87
9900
8B01
2DEA
0010
ENDCHAR
STARTCHAR Cdot
ENCODING 266
SWIDTH 637 0
DWIDTH 5 0
BBX 5 9 0 -1
BITMAP
002300
005700
04BB60
2F7440
7C0000
7B0000
4E2010
09FF80
000100
ENDCHAR
STARTCHAR cdot
ENCODING 267
SWIDTH 514 0
DWIDTH 4 0
BBX 4 7 0 -1
BITMAP
01E0
0374
4E87
9900
8B01
2DEA
0010
ENDCHAR
STARTCHAR Ccaron
ENCODING 268
SWIDTH 637 0
DWIDTH 5 0
BBX 5 9 0 -1
BITMAP
033240
01BB20
04BB60
2F7440
7C0000
7B0000
4E2010
09FF80
000100
ENDCHAR
STARTCHAR ccaron
ENCODING 269
SWIDTH 514 0
DWIDTH 4 0
BBX 4 8 0 -1
BITMAP
0101
0B99
0494
4E87
9900
8B01
2DEA
0010
ENDCHAR
STARTCHAR Dcaron
ENCODING 270
SWIDTH 740 0
DWIDTH 6 0
BBX 6 8 0 0
BITMAP
051430
03BA00
3BB820
4E49E1
4E00D5
4E00D6
4E05F2
4FFC50
ENDCHAR
STARTCHAR dcaron
ENCODING 271
SWIDTH 632 0
DWIDTH 5 0
BBX 6 7 0 0
BITMAP
000101
000B8D
045B72
5E9E70
990B70
8A0C70
3EDC70
ENDCHAR
STARTCHAR Dcroat
ENCODING 272
SWIDTH 740 0
DWIDTH 6 0
BBX 6 6 0 0
BITMAP
3BB820
4E49E1
7E40D5
AF90D6
4E05F2
4FFC50
ENDCHAR
STARTCHAR dcroat
ENCODING 273
SWIDTH 648 0
DWIDTH 5 0
BBX 5 7 0 0
BITMAP
000100
007DA0
026C90
4FCD70
9B0B70
9B0C70
3EDC70
ENDCHAR
STARTCHAR Emacron
ENCODING 274
SWIDTH 560 0
DWIDTH 4 0
BBX 4 7 0 0
BITMAP
0BC9
3BBB
4E44
4F76
4F87
4E00
4FFF
ENDCHAR
STARTCHAR emacron
ENCODING 275
SWIDTH 590 0
DWIDTH 5 0
BBX 5 7 0 -1
BITMAP
09A700
058400
4E7E20
9DAE60
8C2210
2CDD20
001000
ENDCHAR
STARTCHAR Ebreve
ENCODING 276
SWIDTH 560 0
DWIDTH 4 0
BBX 4 8 0 0
BITMAP
1516
09C5
3BBB
4E44
4F76
4F87
4E00
4FFF
ENDCHAR
STARTCHAR ebreve
ENCODING 277
SWIDTH 590 0
DWIDTH 5 0
BBX 5 8 0 -1
BITMAP
010200
0BBA00
038300
4E7E20
9DAE60
8C2210
2CDD20
001000
ENDCHAR
STARTCHAR Edotaccent
ENCODING 278
SWIDTH 560 0
DWIDTH 4 0
BBX 4 8 0 0
BITMAP
0030
02C0
3BBB
4E44
4F76
4F87
4E00
4FFF
ENDCHAR
STARTCHAR edotaccent
ENCODING 279
SWIDTH 590 0
DWIDTH 5 0
BBX 5 7 0 -1
BITMAP
01F100
037200
4E7E20
9DAE60
8C2210
2CDD20
001000
ENDCHAR
STARTCHAR Eogonek
ENCODING 280
SWIDTH 560 0
DWIDTH 4 0
BBX 4 8 0 -2
BITMAP
3BBB
4E44
4F76
4F87
4E00
4FFF
0074
0079
ENDCHAR
STARTCHAR eogonek
ENCODING 281
SWIDTH 590 0
DWIDTH 5 0
BBX 5 7 0 -2
BITMAP
036200
4E7E20
9DAE60
8C2210
2CDE20
008400
006A00
ENDCHAR
STARTCHAR Ecaron
ENCODING 282
SWIDTH 560 0
DWIDTH 4 0
BBX 4 8 0 0
BITMAP
1516
08B5
3BBB
4E44
4F76
4F87
4E00
4FFF
ENDCHAR
STARTCHAR ecaron
ENCODING 283
SWIDTH 590 0
DWIDTH 5 0
BBX 5 8 0 -1
BITMAP
010100
0B9A00
048300
4E7E20
9DAE60
8C2210
2CDD20
001000
ENDCHAR
STARTCHAR Gcircumflex
ENCODING 284
SWIDTH 724 0
DWIDTH 6 0
BBX 6 9 0 -1
BITMAP
005700
039770
03AB90
2E8450
6D0330
7B1CF2
4F30F2
08EFE2
000100
ENDCHAR
STARTCHAR gcircumflex
ENCODING 285
SWIDTH 564 0
DWIDTH 5 0
BBX 5 9 0 -2
BITMAP
012000
1CB700
166820
7B8D20
8A7C00
3C8200
5FEC20
D41C50
8CC900
ENDCHAR
STARTCHAR Gbreve
ENCODING 286
SWIDTH 724 0
DWIDTH 6 0
BBX 6 9 0 -1
BITMAP
024250
01AB30
03AB90
2E8450
6D0330
7B1CF2
4F30F2
08EFE2
000100
ENDCHAR
STARTCHAR gbreve
ENCODING 287
SWIDTH 564 0
DWIDTH 5 0
BBX 5 9 0 -2
BITMAP
110200
1CB800
068620
7B8D20
8A7C00
3C8200
5FEC20
D41C50
8CC900
ENDCHAR
STARTCHAR Gdot
ENCODING 288
SWIDTH 724 0
DWIDTH 6 0
BBX 6 9 0 -1
BITMAP
001400
004800
03AB90
2E8450
6D0330
7B1CF2
4F30F2
08EFE2
000100
ENDCHAR
STARTCHAR gdot
ENCODING 289
SWIDTH 564 0
DWIDTH 5 0
BBX 5 8 0 -2
BITMAP
04C000
057620
7B8D20
8A7C00
3C8200
5FEC20
D41C50
8CC900
ENDCHAR
STARTCHAR Gcommaaccent
ENCODING 290
SWIDTH 724 0
DWIDTH 6 0
BBX 6 8 0 -2
BITMAP
03AB90
2E8450
6D0330
7B1CF2
4F30F2
08EFE2
003600
005400
ENDCHAR
STARTCHAR gcommaaccent
ENCODING 291
SWIDTH 564 0
DWIDTH 5 0
BBX 5 9 0 -2
BITMAP
001000
01D000
068620
7B8D20
8A7C00
3C8200
5FEC20
D41C50
8CC900
ENDCHAR
STARTCHAR Hcircumflex
ENCODING 292
SWIDTH 765 0
DWIDTH 6 0
BBX 6 8 0 0
BITMAP
006600
048860
3A0094
4E00C6
4F77E6
4F88E6
4E00C6
4E00C6
ENDCHAR
STARTCHAR hcircumflex
ENCODING 293
SWIDTH 657 0
DWIDTH 5 0
BBX 5 8 0 0
BITMAP
03A600
192810
6C0000
6C4600
6F9D80
6D08A0
6C08A0
6C08A0
ENDCHAR
STARTCHAR Hbar
ENCODING 294
SWIDTH 765 0
DWIDTH 6 0
BBX 7 6 0 0
BITMAP
3A009400
DFCCED10
4F77E600
4F88E600
4E00C600
4E00C600
ENDCHAR
STARTCHAR hbar
ENCODING 295
SWIDTH 657 0
DWIDTH 5 0
BBX 5 7 0 0
BITMAP
010000
AD7000
9D6200
6ECF60
6E09A0
6C08A0
6C08A0
ENDCHAR
STARTCHAR Itilde
ENCODING 296
SWIDTH 331 0
DWIDTH 3 0
BBX 4 8 -1 0
BITMAP
0424
29B7
03A0
04E0
04E0
04E0
04E0
04E0
ENDCHAR
STARTCHAR itilde
ENCODING 297
SWIDTH 305 0
DWIDTH 2 0
BBX 4 7 -1 0
BITMAP
0001
2CB9
1360
06C0
06C0
06C0
06C0
ENDCHAR
STARTCHAR Imacron
ENCODING 298
SWIDTH 331 0
DWIDTH 3 0
BBX 3 7 0 0
BITMAP
CC80
3A00
4E00
4E00
4E00
4E00
4E00
ENDCHAR
STARTCHAR imacron
ENCODING 299
SWIDTH 305 0
DWIDTH 2 0
BBX 4 6 -1 0
BITMAP
1AA6
0471
06C0
06C0
06C0
06C0
ENDCHAR
STARTCHAR Ibreve
ENCODING 300
SWIDTH 331 0
DWIDTH 3 0
BBX 4 8 -1 0
BITMAP
1516
09C5
03A0
04E0
04E0
04E0
04E0
04E0
ENDCHAR
STARTCHAR ibreve
ENCODING 301
SWIDTH 305 0
DWIDTH 2 0
BBX 4 7 -1 0
BITMAP
1102
2CB7
0360
06C0
06C0
06C0
06C0
ENDCHAR
STARTCHAR Iogonek
ENCODING 302
SWIDTH 331 0
DWIDTH 3 0
BBX 2 8 0 -2
BITMAP
3A
4E
4E
4E
4E
4E
57
5B
ENDCHAR
STARTCHAR iogonek
ENCODING 303
SWIDTH 305 0
DWIDTH 2 0
BBX 2 8 0 -2
BITMAP
5C
25
6C
6C
6C
6C
93
88
ENDCHAR
STARTCHAR Idotaccent
ENCODING 304
SWIDTH 331 0
DWIDTH 3 0
BBX 2 8 0 0
BITMAP
14
29
3A
4E
4E
4E
4E
4E
ENDCHAR
STARTCHAR dotlessi
ENCODING 305
SWIDTH 305 0
DWIDTH 2 0
BBX 2 5 0 0
BITMAP
25
6C
6C
6C
6C
ENDCHAR
STARTCHAR IJ
ENCODING 306
SWIDTH 720 0
DWIDTH 6 0
BBX 6 8 0 -2
BITMAP
3A02B0
4E03F1
4E03F1
4E03F1
4E03F1
4E03F1
0039D0
005A30
ENDCHAR
STARTCHAR ij
ENCODING 307
SWIDTH 590 0
DWIDTH 5 0
BBX 5 8 0 -2
BITMAP
5C1F10
250610
6C1F20
6C1F20
6C1F20
6C1F20
003F10
03D900
ENDCHAR
STARTCHAR Jcircumflex
ENCODING 308
SWIDTH 331 0
DWIDTH 3 0
BBX 4 10 -1 -2
BITMAP
0471
2A69
03A0
04E0
04E0
04E0
04E0
04E0
3AC0
6920
ENDCHAR
STARTCHAR jcircumflex
ENCODING 309
SWIDTH 305 0
DWIDTH 2 0
BBX 4 9 -1 -2
BITMAP
0120
2CB6
1352
06C0
06C0
06C0
06C0
17C0
7D60
ENDCHAR
STARTCHAR Kcommaaccent
ENCODING 310
SWIDTH 664 0
DWIDTH 5 0
BBX 6 8 0 -2
BITMAP
3A04A1
4E2E50
4EB900
4FDB00
4E1E60
4E06E1
006200
009000
ENDCHAR
STARTCHAR kcommaaccent
ENCODING 311
SWIDTH 620 0
DWIDTH 5 0
BBX 5 9 0 -2
BITMAP
010000
6C0000
6C0440
6C5E20
6DE500
6E9C00
6C0B90
008100
018000
ENDCHAR
STARTCHAR kgreenlandic
ENCODING 312
SWIDTH 620 0
DWIDTH 5 0
BBX 5 5 0 0
BITMAP
250340
6C3D20
6DD500
6E9C00
6C0B90
ENDCHAR
STARTCHAR Lacute
ENCODING 313
SWIDTH 564 0
DWIDTH 5 0
BBX 5 8 0 0
BITMAP
017100
085000
3A0000
4E0000
4E0000
4E0000
4E0000
4FFF40
ENDCHAR
STARTCHAR lacute
ENCODING 314
SWIDTH 305 0
DWIDTH 2 0
BBX 3 8 0 0
BITMAP
0670
2900
6C00
6C00
6C00
6C00
6C00
6C00
ENDCHAR
STARTCHAR Lcommaaccent
ENCODING 315
SWIDTH 564 0
DWIDTH 5 0
BBX 5 8 0 -2
BITMAP
3A0000
4E0000
4E0000
4E0000
4E0000
4FFF40
017000
037000
ENDCHAR
STARTCHAR lcommaaccent
ENCODING 316
SWIDTH 305 0
DWIDTH 2 0
BBX 2 9 0 -2
BITMAP
01
6C
6C
6C
6C
6C
6C
35
63
ENDCHAR
STARTCHAR Lcaron
ENCODING 317
SWIDTH 564 0
DWIDTH 5 0
BBX 5 6 0 0
BITMAP
3A0A10
4E1600
4E0000
4E0000
4E0000
4FFF40
ENDCHAR
STARTCHAR lcaron
ENCODING 318
SWIDTH 305 0
DWIDTH 2 0
BBX 4 7 0 0
BITMAP
0111
6CA4
6C20
6C00
6C00
6C00
6C00
ENDCHAR
STARTCHAR Ldot
ENCODING 319
SWIDTH 564 0
DWIDTH 5 0
BBX 5 6 0 0
BITMAP
3A0000
4E0000
4E1600
4E1800
4E0000
4FFF40
ENDCHAR
STARTCHAR ldot
ENCODING 320
SWIDTH 428 0
DWIDTH 3 0
BBX 4 7 0 0
BITMAP
0100
6C00
6C00
6C21
6C86
6C00
6C00
ENDCHAR
STARTCHAR Lslash
ENCODING 321
SWIDTH 564 0
DWIDTH 5 0
BBX 5 6 0 0
BITMAP
3A0000
4E0000
4FA000
BE1000
5E0000
4FFF40
ENDCHAR
STARTCHAR lslash
ENCODING 322
SWIDTH 330 0
DWIDTH 3 0
BBX 3 7 0 0
BITMAP
0100
4E00
4E00
4F50
BE20
6E00
4E00
ENDCHAR
STARTCHAR Nacute
ENCODING 323
SWIDTH 812 0
DWIDTH 7 0
BBX 6 8 0 0
BITMAP
000540
002A10
3B5038
4EE14C
4CB84C
4C3E6C
4C09EC
4C01EC
ENDCHAR
STARTCHAR nacute
ENCODING 324
SWIDTH 657 0
DWIDTH 5 0
BBX 5 7 0 0
BITMAP
000200
009900
236600
6E9D80
6D08A0
6C08A0
6C08A0
ENDCHAR
STARTCHAR Ncommaaccent
ENCODING 325
SWIDTH 812 0
DWIDTH 7 0
BBX 6 8 0 -2
BITMAP
3B5038
4EE14C
4CB84C
4C3E6C
4C09EC
4C01EC
004500
007300
ENDCHAR
STARTCHAR ncommaaccent
ENCODING 326
SWIDTH 657 0
DWIDTH 5 0
BBX 5 7 0 -2
BITMAP
234600
6E9D80
6D08A0
6C08A0
6C08A0
008100
018000
ENDCHAR
STARTCHAR Ncaron
ENCODING 327
SWIDTH 812 0
DWIDTH 7 0
BBX 6 8 0 0
BITMAP
015160
008B50
3B5038
4EE14C
4CB84C
4C3E6C
4C09EC
4C01EC
ENDCHAR
STARTCHAR ncaron
ENCODING 328
SWIDTH 657 0
DWIDTH 5 0
BBX 5 7 0 0
BITMAP
020110
07AC10
237700
6E9D80
6D08A0
6C08A0
6C08A0
ENDCHAR
STARTCHAR napostrophe
ENCODING 329
SWIDTH 778 0
DWIDTH 6 0
BBX 6 6 0 0
BITMAP
750000
C53460
36E9E7
06D09A
06C08A
06C08A
ENDCHAR
STARTCHAR Eng
ENCODING 330
SWIDTH 812 0
DWIDTH 7 0
BBX 6 8 0 -2
BITMAP
3B5038
4EE24C
4CAC5C
4C1DCC
4C04FC
4C009C
0004AA
000892
ENDCHAR
STARTCHAR eng
ENCODING 331
SWIDTH 657 0
DWIDTH 5 0
BBX 5 7 0 -2
BITMAP
234600
6E9D80
6D08A0
6C08A0
6C08A0
0009A0
006D40
ENDCHAR
STARTCHAR Omacron
ENCODING 332
SWIDTH 795 0
DWIDTH 6 0
BBX 6 7 0 0
BITMAP
02CC60
04AB70
2F74D8
7C007C
7C006D
4F30B9
08EFB2
ENDCHAR
STARTCHAR omacron
ENCODING 333
SWIDTH 619 0
DWIDTH 5 0
BBX 5 7 0 -1
BITMAP
09A800
059500
4E9E30
990A80
8B0B70
1CEC10
001000
ENDCHAR
STARTCHAR Obreve
ENCODING 334
SWIDTH 795 0
DWIDTH 6 0
BBX 6 8 0 0
BITMAP
024250
01AB30
04AB70
2F74D8
7C007C
7C006D
4F30B9
08EFB2
ENDCHAR
STARTCHAR obreve
ENCODING 335
SWIDTH 619 0
DWIDTH 5 0
BBX 5 8 0 -1
BITMAP
020200
0BBA00
038300
4E9E30
990A80
8B0B70
1CEC10
001000
ENDCHAR
STARTCHAR Ohungarumlaut
ENCODING 336
SWIDTH 795 0
DWIDTH 6 0
BBX 6 8 0 0
BITMAP
003562
009670
04AB70
2F74D8
7C007C
7C006D
4F30B9
08EFB2
ENDCHAR
STARTCHAR ohungarumlaut
ENCODING 337
SWIDTH 619 0
DWIDTH 5 0
BBX 5 8 0 -1
BITMAP
002110
089C20
057400
4E9E30
990A80
8B0B70
1CEC10
001000
ENDCHAR
STARTCHAR OE
ENCODING 338
SWIDTH 973 0
DWIDTH 8 0
BBX 8 7 0 -1
BITMAP
05BBBBB3
3F65F541
7C01F871
7B01F981
4E22F200
09EFFFF5
00010000
ENDCHAR
STARTCHAR oe
ENCODING 339
SWIDTH 978 0
DWIDTH 8 0
BBX 8 6 0 -1
BITMAP
03623630
4E9EE7E3
990ADAE7
8B0BB221
1CECCDD3
00100100
ENDCHAR
STARTCHAR Racute
ENCODING 340
SWIDTH 660 0
DWIDTH 5 0
BBX 6 8 0 0
BITMAP
003600
00A300
3BA810
4E5C80
4E3C80
4FDC00
4E1E40
4E06D1
ENDCHAR
STARTCHAR racute
ENCODING 341
SWIDTH 454 0
DWIDTH 4 0
BBX 4 7 0 0
BITMAP
0011
04C2
2543
6EC4
6D00
6C00
6C00
ENDCHAR
STARTCHAR Rcommaaccent
ENCODING 342
SWIDTH 660 0
DWIDTH 5 0
BBX 6 8 0 -2
BITMAP
3BA810
4E5C80
4E3C80
4FDC00
4E1E40
4E06D1
006200
009000
ENDCHAR
STARTCHAR rcommaaccent
ENCODING 343
SWIDTH 454 0
DWIDTH 4 0
BBX 4 7 0 -2
BITMAP
2343
6EC4
6D00
6C00
6C00
3500
6300
ENDCHAR
STARTCHAR Rcaron
ENCODING 344
SWIDTH 660 0
DWIDTH 5 0
BBX 6 8 0 0
BITMAP
061510
05B800
3BA810
4E5C80
4E3C80
4FDC00
4E1E40
4E06D1
ENDCHAR
STARTCHAR rcaron
ENCODING 345
SWIDTH 454 0
DWIDTH 4 0
BBX 4 7 0 0
BITMAP
1001
4CB4
2563
6EC4
6D00
6C00
6C00
ENDCHAR
STARTCHAR Sacute
ENCODING 346
SWIDTH 550 0
DWIDTH 4 0
BBX 5 8 0 0
BITMAP
004500
02A100
19B900
7C4500
5E6000
06DB00
313F10
8FF900
ENDCHAR
STARTCHAR sacute
ENCODING 347
SWIDTH 497 0
DWIDTH 4 0
BBX 4 8 0 -1
BITMAP
0011
03C2
1772
8C85
5F91
02C9
9DE5
0100
ENDCHAR
STARTCHAR Scircumflex
ENCODING 348
SWIDTH 550 0
DWIDTH 4 0
BBX 5 8 0 0
BITMAP
047100
2A6900
19B900
7C4500
5E6000
06DB00
313F10
8FF900
ENDCHAR
STARTCHAR scircumflex
ENCODING 349
SWIDTH 497 0
DWIDTH 4 0
BBX 4 8 0 -1
BITMAP
0120
3CC4
2664
8C85
5F91
02C9
9DE5
0100
ENDCHAR
STARTCHAR Scedilla
ENCODING 350
SWIDTH 550 0
DWIDTH 4 0
BBX 5 8 0 -2
BITMAP
19B900
7C4500
5E6000
06DB00
313F10
8FF900
05B000
07B000
ENDCHAR
STARTCHAR scedilla
ENCODING 351
SWIDTH 497 0
DWIDTH 4 0
BBX 4 7 0 -2
BITMAP
1562
8C85
5F91
02C9
9DE5
0980
0A80
ENDCHAR
STARTCHAR Scaron
ENCODING 352
SWIDTH 550 0
DWIDTH 4 0
BBX 5 8 0 0
BITMAP
251600
09B400
19B900
7C4500
5E6000
06DB00
313F10
8FF900
ENDCHAR
STARTCHAR scaron
ENCODING 353
SWIDTH 497 0
DWIDTH 4 0
BBX 4 8 0 -1
BITMAP
1001
3CB5
1782
8C85
5F91
02C9
9DE5
0100
ENDCHAR
STARTCHAR Tcedilla
ENCODING 354
SWIDTH 579 0
DWIDTH 5 0
BBX 5 8 0 -2
BITMAP
9BBB50
47E420
04E000
04E000
04E000
04E000
02C100
05C200
ENDCHAR
STARTCHAR tcedilla
ENCODING 355
SWIDTH 434 0
DWIDTH 3 0
BBX 4 8 0 -2
BITMAP
0400
3E61
8F81
4E00
4F00
1EE3
06A0
09A0
ENDCHAR
STARTCHAR Tcaron
ENCODING 356
SWIDTH 579 0
DWIDTH 5 0
BBX 5 8 0 0
BITMAP
251600
09B400
9BBB50
47E420
04E000
04E000
04E000
04E000
ENDCHAR
STARTCHAR tcaron
ENCODING 357
SWIDTH 434 0
DWIDTH 3 0
BBX 4 7 0 0
BITMAP
0012
0477
3E71
8F81
4E00
4F00
1EE3
ENDCHAR
STARTCHAR Tbar
ENCODING 358
SWIDTH 579 0
DWIDTH 5 0
BBX 5 6 0 0
BITMAP
9BBB50
47E420
18E400
3BF900
04E000
04E000
ENDCHAR
STARTCHAR tbar
ENCODING 359
SWIDTH 434 0
DWIDTH 3 0
BBX 4 7 0 -1
BITMAP
0400
3E61
8F81
9FB0
4F10
1EE3
0010
ENDCHAR
STARTCHAR Utilde
ENCODING 360
SWIDTH 755 0
DWIDTH 6 0
BBX 6 8 0 0
BITMAP
015130
058B40
3A0094
5D00D6
5D00D6
5D00D6
3F21E4
09FE90
ENDCHAR
STARTCHAR utilde
ENCODING 361
SWIDTH 657 0
DWIDTH 5 0
BBX 5 6 0 0
BITMAP
0ACC10
260440
6C08A0
6C09A0
6D0BA0
2EEBA0
ENDCHAR
STARTCHAR Umacron
ENCODING 362
SWIDTH 755 0
DWIDTH 6 0
BBX 6 7 0 0
BITMAP
03CC40
3A0094
5D00D6
5D00D6
5D00D6
3F21E4
09FE90
ENDCHAR
STARTCHAR umacron
ENCODING 363
SWIDTH 657 0
DWIDTH 5 0
BBX 5 6 0 0
BITMAP
07A900
262540
6C08A0
6C09A0
6D0BA0
2EEBA0
ENDCHAR
STARTCHAR Ubreve
ENCODING 364
SWIDTH 755 0
DWIDTH 6 0
BBX 6 8 0 0
BITMAP
033340
02BB20
3A0094
5D00D6
5D00D6
5D00D6
3F21E4
09FE90
ENDCHAR
STARTCHAR ubreve
ENCODING 365
SWIDTH 657 0
DWIDTH 5 0
BBX 5 7 0 0
BITMAP
020100
09BC00
252340
6C08A0
6C09A0
6D0BA0
2EEBA0
ENDCHAR
STARTCHAR Uring
ENCODING 366
SWIDTH 755 0
DWIDTH 6 0
BBX 6 8 0 0
BITMAP
00AA00
008800
3A0094
5D00D6
5D00D6
5D00D6
3F21E4
09FE90
ENDCHAR
STARTCHAR uring
ENCODING 367
SWIDTH 657 0
DWIDTH 5 0
BBX 5 7 0 0
BITMAP
029400
049700
241340
6C08A0
6C09A0
6D0BA0
2EEBA0
ENDCHAR
STARTCHAR Uhungarumlaut
ENCODING 368
SWIDTH 755 0
DWIDTH 6 0
BBX 6 8 0 0
BITMAP
004471
019750
3A0094
5D00D6
5D00D6
5D00D6
3F21E4
09FE90
ENDCHAR
STARTCHAR uhungarumlaut
ENCODING 369
SWIDTH 657 0
DWIDTH 5 0
BBX 5 7 0 0
BITMAP
002120
04BB50
260540
6C08A0
6C09A0
6D0BA0
2EEBA0
ENDCHAR
STARTCHAR Uogonek
ENCODING 370
SWIDTH 755 0
DWIDTH 6 0
BBX 6 8 0 -2
BITMAP
3A0094
5D00D6
5D00D6
5D00D6
3F21E4
09FE90
007600
006A00
ENDCHAR
STARTCHAR uogonek
ENCODING 371
SWIDTH 657 0
DWIDTH 5 0
BBX 5 7 0 -2
BITMAP
240340
6C08A0
6C09A0
6D0BA0
2EEBA0
000A10
000A60
ENDCHAR
STARTCHAR Wcircumflex
ENCODING 372
SWIDTH 966 0
DWIDTH 8 0
BBX 8 8 0 0
BITMAP
00065000
00779300
A3096067
A71EB0B6
7B4BE1E3
3E87B7E0
0ED37DA0
0AE03F60
ENDCHAR
STARTCHAR wcircumflex
ENCODING 373
SWIDTH 855 0
DWIDTH 7 0
BBX 7 7 0 0
BITMAP
00120000
00BA9000
52363340
A77E5A80
6BB88D30
2ED2CE00
0CB0DA00
ENDCHAR
STARTCHAR Ycircumflex
ENCODING 374
SWIDTH 624 0
DWIDTH 5 0
BBX 5 8 0 0
BITMAP
027300
1A5A10
950590
5D1D50
0CCC00
04F400
02F100
02F100
ENDCHAR
STARTCHAR ycircumflex
ENCODING 375
SWIDTH 568 0
DWIDTH 5 0
BBX 5 9 0 -2
BITMAP
012000
1CB700
630730
A91E30
4E5D00
0DC700
07F200
18B000
AC2000
ENDCHAR
STARTCHAR Ydieresis
ENCODING 376
SWIDTH 624 0
DWIDTH 5 0
BBX 5 8 0 0
BITMAP
031300
073700
950590
5D1D50
0CCC00
04F400
02F100
02F100
ENDCHAR
STARTCHAR Zacute
ENCODING 377
SWIDTH 579 0
DWIDTH 5 0
BBX 5 8 0 0
BITMAP
004500
02A100
8BBB40
348E20
01D600
09A000
5E1000
CFFF70
ENDCHAR
STARTCHAR zacute
ENCODING 378
SWIDTH 487 0
DWIDTH 4 0
BBX 4 7 0 0
BITMAP
0011
03C2
4763
58E7
07C0
3E20
BFE9
ENDCHAR
STARTCHAR Zdotaccent
ENCODING 379
SWIDTH 579 0
DWIDTH 5 0
BBX 5 8 0 0
BITMAP
014000
029000
8BBB40
348E20
01D600
09A000
5E1000
CFFF70
ENDCHAR
STARTCHAR zdotaccent
ENCODING 380
SWIDTH 487 0
DWIDTH 4 0
BBX 4 6 0 0
BITMAP
0970
4663
58E7
07C0
3E20
BFE9
ENDCHAR
STARTCHAR Zcaron
ENCODING 381
SWIDTH 579 0
DWIDTH 5 0
BBX 5 8 0 0
BITMAP
151600
08B500
8BBB40
348E20
01D600
09A000
5E1000
CFFF70
ENDCHAR
STARTCHAR zcaron
ENCODING 382
SWIDTH 487 0
DWIDTH 4 0
BBX 4 7 0 0
BITMAP
1001
4CB4
4773
58E7
07C0
3E20
BFE9
ENDCHAR
STARTCHAR longs
ENCODING 383
SWIDTH 382 0
DWIDTH 3 0
BBX 4 7 0 0
BITMAP
0110
3ED2
6D00
6C00
6C00
6C00
6C00
ENDCHAR
STARTCHAR florin
ENCODING 402
SWIDTH 570 0
DWIDTH 5 0
BBX 5 8 0 -2
BITMAP
00AB10
04E400
0CFA00
04E000
04E000
04E000
06D000
3D7000
ENDCHAR
STARTCHAR Ohorn
ENCODING 416
SWIDTH 825 0
DWIDTH 7 0
BBX 7 7 0 0
BITMAP
00000010
04AB78A0
2F74DD20
7C007C00
7C006D00
4F30B900
08EFB200
ENDCHAR
STARTCHAR ohorn
ENCODING 417
SWIDTH 679 0
DWIDTH 5 0
BBX 6 6 0 -1
BITMAP
03639A
4E9EB2
990A80
8B0B70
1CEC10
001000
ENDCHAR
STARTCHAR Uhorn
ENCODING 431
SWIDTH 884 0
DWIDTH 7 0
BBX 8 7 0 0
BITMAP
00000010
3A0098E1
5D00DC40
5D00D600
5D00D600
3F11E400
09FE9000
ENDCHAR
STARTCHAR uhorn
ENCODING 432
SWIDTH 759 0
DWIDTH 6 0
BBX 7 5 0 0
BITMAP
24034E50
6C08E700
6C09A000
6D0BA000
2EEBA000
ENDCHAR
STARTCHAR uni01F0
ENCODING 496
SWIDTH 305 0
DWIDTH 2 0
BBX 4 9 -1 -2
BITMAP
1102
2CA6
0370
06C0
06C0
06C0
06C0
17C0
7D60
ENDCHAR
STARTCHAR Aringacute
ENCODING 506
SWIDTH 689 0
DWIDTH 6 0
BBX 6 8 0 0
BITMAP
003810
009500
02A900
04DC00
0A6D30
1F6B80
6EBBE0
C700E5
ENDCHAR
STARTCHAR aringacute
ENCODING 507
SWIDTH 604 0
DWIDTH 5 0
BBX 5 9 0 -1
BITMAP
008500
029100
079600
05A300
198F20
28AF30
9B1F40
6ECD40
010000
ENDCHAR
STARTCHAR AEacute
ENCODING 508
SWIDTH 952 0
DWIDTH 8 0
BBX 8 8 0 0
BITMAP
00002600
0000A400
006BBBB1
01E8F441
07B4F770
0D98F880
5EABE000
C704FFF2
ENDCHAR
STARTCHAR aeacute
ENCODING 509
SWIDTH 916 0
DWIDTH 7 0
BBX 7 8 0 -1
BITMAP
00002100
0007A100
05645610
198FBAB0
29BFBBF0
9B2F6220
6ED7DDA0
00000100
ENDCHAR
STARTCHAR Oslashacute
ENCODING 510
SWIDTH 795 0
DWIDTH 6 0
BBX 6 9 0 -1
BITMAP
000540
003910
04ABB4
2F77F7
7C0B9C
7C766D
4FB1B9
0DEFB2
020000
ENDCHAR
STARTCHAR oslashacute
ENCODING 511
SWIDTH 619 0
DWIDTH 5 0
BBX 5 8 0 -1
BITMAP
001200
00B600
048610
4EAF40
99AC80
8E7B70
3FEC10
010000
ENDCHAR
STARTCHAR Scommaaccent
ENCODING 536
SWIDTH 550 0
DWIDTH 4 0
BBX 5 8 0 -2
BITMAP
19B900
7C4500
5E6000
06DB00
313F10
8FF900
045000
073000
ENDCHAR
STARTCHAR scommaaccent
ENCODING 537
SWIDTH 497 0
DWIDTH 4 0
BBX 4 7 0 -2
BITMAP
1562
8C85
5F91
02C9
9DE5
0630
0910
ENDCHAR
STARTCHAR Tcommaaccent
ENCODING 538
SWIDTH 579 0
DWIDTH 5 0
BBX 5 8 0 -2
BITMAP
9BBB50
47E420
04E000
04E000
04E000
04E000
026000
055000
ENDCHAR
STARTCHAR tcommaaccent
ENCODING 539
SWIDTH 434 0
DWIDTH 3 0
BBX 4 8 0 -2
BITMAP
0400
3E61
8F81
4E00
4F00
1EE3
0540
0810
ENDCHAR
STARTCHAR dotlessj
ENCODING 567
SWIDTH 305 0
DWIDTH 2 0
BBX 3 7 -1 -2
BITMAP
0250
06C0
06C0
06C0
06C0
17C0
7D60
ENDCHAR
STARTCHAR uni02BC
ENCODING 700
SWIDTH 216 0
DWIDTH 2 0
BBX 2 3 0 3
BITMAP
66
B4
30
ENDCHAR
STARTCHAR circumflex
ENCODING 710
SWIDTH 606 0
DWIDTH 5 0
BBX 4 3 0 4
BITMAP
0120
0BA9
1102
ENDCHAR
STARTCHAR caron
ENCODING 711
SWIDTH 606 0
DWIDTH 5 0
BBX 3 3 1 4
BITMAP
1010
B990
1200
ENDCHAR
STARTCHAR macron
ENCODING 713
SWIDTH 606 0
DWIDTH 5 0
BBX 3 2 1 4
BITMAP
9A80
2220
ENDCHAR
STARTCHAR breve
ENCODING 728
SWIDTH 606 0
DWIDTH 5 0
BBX 3 3 1 4
BITMAP
1020
BBA0
0200
ENDCHAR
STARTCHAR dotaccent
ENCODING 729
SWIDTH 305 0
DWIDTH 2 0
BBX 2 1 0 5
BITMAP
5C
ENDCHAR
STARTCHAR ring
ENCODING 730
SWIDTH 577 0
DWIDTH 5 0
BBX 3 3 1 4
BITMAP
4910
8A30
0100
ENDCHAR
STARTCHAR ogonek
ENCODING 731
SWIDTH 206 0
DWIDTH 2 0
BBX 2 2 0 -2
BITMAP
A2
A7
ENDCHAR
STARTCHAR tilde
ENCODING 732
SWIDTH 606 0
DWIDTH 5 0
BBX 3 2 1 4
BITMAP
CCB0
1110
ENDCHAR
STARTCHAR hungarumlaut
ENCODING 733
SWIDTH 587 0
DWIDTH 5 0
BBX 4 3 0 4
BITMAP
0112
1C98
1120
ENDCHAR
STARTCHAR uni02F3
ENCODING 755
SWIDTH 333 0
DWIDTH 3 0
BBX 3 3 0 -3
BITMAP
2700
9940
1400
ENDCHAR
STARTCHAR uni0300
ENCODING 768
SWIDTH 0 0
DWIDTH 0 0
BBX 3 3 -4 4
BITMAP
2100
5C10
0110
ENDCHAR
STARTCHAR uni0301
ENCODING 769
SWIDTH 0 0
DWIDTH 0 0
BBX 2 3 -3 4
BITMAP
12
B7
20
ENDCHAR
STARTCHAR uni0303
ENCODING 771
SWIDTH 0 0
DWIDTH 0 0
BBX 3 2 -4 4
BITMAP
BCB0
1110
ENDCHAR
STARTCHAR hook
ENCODING 777
SWIDTH 0 0
DWIDTH 0 0
BBX 3 3 -4 4
BITMAP
1940
0970
0300
ENDCHAR
STARTCHAR uni030F
ENCODING 783
SWIDTH 0 0
DWIDTH 0 0
BBX 4 3 -5 4
BITMAP
1120
2C88
0112
ENDCHAR
STARTCHAR dotbelow
ENCODING 803
SWIDTH 0 0
DWIDTH 0 0
BBX 3 2 -4 -2
BITMAP
0600
1910
ENDCHAR
STARTCHAR tonos
ENCODING 900
SWIDTH 577 0
DWIDTH 5 0
BBX 3 3 1 4
BITMAP
0510
1C00
0100
ENDCHAR
STARTCHAR dieresistonos
ENCODING 901
SWIDTH 577 0
DWIDTH 5 0
BBX 4 2 0 5
BITMAP
0091
3A6B
ENDCHAR
STARTCHAR Alphatonos
ENCODING 902
SWIDTH 689 0
DWIDTH 6 0
BBX 7 6 -1 0
BITMAP
0D2B7000
156CE000
00C6D400
02F7BA00
07DAAE10
0C700E50
ENDCHAR
STARTCHAR anoteleia
ENCODING 903
SWIDTH 285 0
DWIDTH 2 0
BBX 2 2 0 2
BITMAP
24
59
ENDCHAR
STARTCHAR Epsilontonos
ENCODING 904
SWIDTH 629 0
DWIDTH 5 0
BBX 6 6 -1 0
BITMAP
2C8BB6
34BA42
00BB73
00BC83
00B800
00BFF9
ENDCHAR
STARTCHAR Etatonos
ENCODING 905
SWIDTH 834 0
DWIDTH 7 0
BBX 7 6 -1 0
BITMAP
2C8503A0
34B804F0
00BB79F0
00BC8AF0
00B804F0
00B804F0
ENDCHAR
STARTCHAR Iotatonos
ENCODING 906
SWIDTH 512 0
DWIDTH 4 0
BBX 4 6 -1 0
BITMAP
2C3A
344E
004E
004E
004E
004E
ENDCHAR
STARTCHAR Omicrontonos
ENCODING 908
SWIDTH 835 0
DWIDTH 7 0
BBX 8 7 -1 -1
BITMAP
0D29B920
15CA4AC0
02F202F2
02F201F3
00E706E1
004DFD40
00001000
ENDCHAR
STARTCHAR Upsilontonos
ENCODING 910
SWIDTH 764 0
DWIDTH 6 0
BBX 7 6 -1 0
BITMAP
4B7704A0
433E1C70
000ACD00
0002F600
0000F300
0000F300
ENDCHAR
STARTCHAR Omegatonos
ENCODING 911
SWIDTH 786 0
DWIDTH 6 0
BBX 8 6 -1 0
BITMAP
0D3AC920
16E949D0
03F101F3
01F202F1
00890980
06FF2FF7
ENDCHAR
STARTCHAR iotadieresistonos
ENCODING 912
SWIDTH 407 0
DWIDTH 3 0
BBX 5 7 -1 0
BITMAP
009100
2A6C00
025000
06C000
06C000
05D000
02EE10
ENDCHAR
STARTCHAR Alpha
ENCODING 913
SWIDTH 689 0
DWIDTH 6 0
BBX 6 6 0 0
BITMAP
01B700
06CE00
0C6D40
2F7BA0
7DAAE1
C700E5
ENDCHAR
STARTCHAR Beta
ENCODING 914
SWIDTH 671 0
DWIDTH 5 0
BBX 5 6 0 0
BITMAP
3BB920
4E4BB0
4F7C80
4F8C90
4E07D0
4FFE60
ENDCHAR
STARTCHAR Gamma
ENCODING 915
SWIDTH 561 0
DWIDTH 4 0
BBX 5 6 0 0
BITMAP
3BBB40
4E4410
4E0000
4E0000
4E0000
4E0000
ENDCHAR
STARTCHAR uni0394
ENCODING 916
SWIDTH 658 0
DWIDTH 5 0
BBX 6 6 0 0
BITMAP
02B500
07DB00
0C5E10
2E0A60
8905C0
CFFFF1
ENDCHAR
STARTCHAR Epsilon
ENCODING 917
SWIDTH 560 0
DWIDTH 4 0
BBX 4 6 0 0
BITMAP
3BBB
4E44
4F76
4F87
4E00
4FFF
ENDCHAR
STARTCHAR Zeta
ENCODING 918
SWIDTH 579 0
DWIDTH 5 0
BBX 5 6 0 0
BITMAP
8BBB40
348E20
01D600
09A000
5E1000
CFFF70
ENDCHAR
STARTCHAR Eta
ENCODING 919
SWIDTH 765 0
DWIDTH 6 0
BBX 6 6 0 0
BITMAP
3A0094
4E00C6
4F77E6
4F88E6
4E00C6
4E00C6
ENDCHAR
STARTCHAR Theta
ENCODING 920
SWIDTH 795 0
DWIDTH 6 0
BBX 6 6 0 0
BITMAP
04AB70
2F74D8
7C568C
7B798D
4E20B9
08EFB2
ENDCHAR
STARTCHAR Iota
ENCODING 921
SWIDTH 331 0
DWIDTH 3 0
BBX 2 6 0 0
BITMAP
3A
4E
4E
4E
4E
4E
ENDCHAR
STARTCHAR Kappa
ENCODING 922
SWIDTH 664 0
DWIDTH 5 0
BBX 6 6 0 0
BITMAP
3A04A1
4E2E50
4EB900
4FDB00
4E1E60
4E06E1
ENDCHAR
STARTCHAR Lambda
ENCODING 923
SWIDTH 649 0
DWIDTH 5 0
BBX 6 6 0 0
BITMAP
02B400
07DA00
0C6E10
2F1C50
7A07A0
D603F1
ENDCHAR
STARTCHAR Mu
ENCODING 924
SWIDTH 942 0
DWIDTH 8 0
BBX 7 6 0 0
BITMAP
3B500A90
4EB03EC0
4CE18AC0
4C95D6C0
4C5DB4C0
4C1F64C0
ENDCHAR
STARTCHAR Nu
ENCODING 925
SWIDTH 812 0
DWIDTH 7 0
BBX 6 6 0 0
BITMAP
3B5038
4EE14C
4CB84C
4C3E6C
4C09EC
4C01EC
ENDCHAR
STARTCHAR Xi
ENCODING 926
SWIDTH 570 0
DWIDTH 5 0
BBX 5 6 0 0
BITMAP
6BBB10
244400
177500
288600
000000
AFFF40
ENDCHAR
STARTCHAR Omicron
ENCODING 927
SWIDTH 795 0
DWIDTH 6 0
BBX 6 6 0 0
BITMAP
04AB70
2F74D8
7C007C
7C006D
4F30B9
08EFB2
ENDCHAR
STARTCHAR Pi
ENCODING 928
SWIDTH 745 0
DWIDTH 6 0
BBX 6 6 0 0
BITMAP
3BBBB3
4E44F4
4E00F4
4E00F4
4E00F4
4E00F4
ENDCHAR
STARTCHAR Rho
ENCODING 929
SWIDTH 627 0
DWIDTH 5 0
BBX 5 6 0 0
BITMAP
3BB810
4E4D80
4E1B90
4FEB20
4E0000
4E0000
ENDCHAR
STARTCHAR Sigma
ENCODING 931
SWIDTH 592 0
DWIDTH 5 0
BBX 5 6 0 0
BITMAP
7BBB30
5E5410
06C100
05D100
3D2000
AFFF70
ENDCHAR
STARTCHAR Tau
ENCODING 932
SWIDTH 579 0
DWIDTH 5 0
BBX 5 6 0 0
BITMAP
9BBB50
47E420
04E000
04E000
04E000
04E000
ENDCHAR
STARTCHAR Upsilon
ENCODING 933
SWIDTH 624 0
DWIDTH 5 0
BBX 5 6 0 0
BITMAP
950590
5D1D50
0CCC00
04F400
02F100
02F100
ENDCHAR
STARTCHAR Phi
ENCODING 934
SWIDTH 859 0
DWIDTH 7 0
BBX 7 7 0 -1
BITMAP
002C1000
1CEFEA10
8A2F0C60
892F0B60
2DCFDC10
003F2000
00010000
ENDCHAR
STARTCHAR Chi
ENCODING 935
SWIDTH 666 0
DWIDTH 5 0
BBX 6 6 0 0
BITMAP
7703A0
2E3C60
07EC00
06FA00
2E4E50
A905E1
ENDCHAR
STARTCHAR Psi
ENCODING 936
SWIDTH 875 0
DWIDTH 7 0
BBX 7 6 0 0
BITMAP
660B0660
980F1890
890F1980
3EBFBE30
014F4100
000F1000
ENDCHAR
STARTCHAR uni03A9
ENCODING 937
SWIDTH 786 0
DWIDTH 6 0
BBX 7 6 0 0
BITMAP
05BB7000
4F64D800
8B006C00
6B007B00
1C42C300
CFB7FF10
ENDCHAR
STARTCHAR Iotadieresis
ENCODING 938
SWIDTH 331 0
DWIDTH 3 0
BBX 3 8 0 0
BITMAP
3120
9460
3A00
4E00
4E00
4E00
4E00
4E00
ENDCHAR
STARTCHAR Upsilondieresis
ENCODING 939
SWIDTH 624 0
DWIDTH 5 0
BBX 5 8 0 0
BITMAP
031300
073700
950590
5D1D50
0CCC00
04F400
02F100
02F100
ENDCHAR
STARTCHAR alphatonos
ENCODING 940
SWIDTH 646 0
DWIDTH 5 0
BBX 5 8 0 -1
BITMAP
004200
00C100
047240
5E9E80
990B70
8B0C70
2EDAF0
000010
ENDCHAR
STARTCHAR epsilontonos
ENCODING 941
SWIDTH 555 0
DWIDTH 4 0
BBX 5 8 0 -1
BITMAP
004200
00C100
058500
6D7900
2DB300
8A2100
5EDE20
001000
ENDCHAR
STARTCHAR etatonos
ENCODING 942
SWIDTH 657 0
DWIDTH 5 0
BBX 5 9 0 -2
BITMAP
002400
008500
236600
6E9D80
6D08A0
6C08A0
6C08A0
0008A0
000790
ENDCHAR
STARTCHAR iotatonos
ENCODING 943
SWIDTH 407 0
DWIDTH 3 0
BBX 4 7 0 0
BITMAP
0510
0D00
2600
6C00
6C00
5D00
2EE1
ENDCHAR
STARTCHAR upsilondieresistonos
ENCODING 944
SWIDTH 645 0
DWIDTH 5 0
BBX 5 8 0 -1
BITMAP
007300
0C6B10
240430
7B0890
7B07B0
6D0990
1CED20
001000
ENDCHAR
STARTCHAR alpha
ENCODING 945
SWIDTH 646 0
DWIDTH 5 0
BBX 5 6 0 -1
BITMAP
045240
5E9E80
990B70
8B0C70
2EDAF0
000010
ENDCHAR
STARTCHAR beta
ENCODING 946
SWIDTH 660 0
DWIDTH 5 0
BBX 5 9 0 -2
BITMAP
001000
1CDE50
5D09A0
6C5D30
6C3AB0
6C05E0
6FEF70
6C0000
5B0000
ENDCHAR
STARTCHAR gamma
ENCODING 947
SWIDTH 567 0
DWIDTH 5 0
BBX 5 7 0 -2
BITMAP
520430
A80E30
4D4D00
0DB700
08F200
07C000
098000
ENDCHAR
STARTCHAR delta
ENCODING 948
SWIDTH 619 0
DWIDTH 5 0
BBX 5 8 0 -1
BITMAP
001100
0BDE40
0D7000
08FB10
7D2C70
9B0B80
3DED20
001000
ENDCHAR
STARTCHAR epsilon
ENCODING 949
SWIDTH 555 0
DWIDTH 4 0
BBX 5 6 0 -1
BITMAP
056500
6D7900
2DB300
8A2100
5EDE20
001000
ENDCHAR
STARTCHAR zeta
ENCODING 950
SWIDTH 498 0
DWIDTH 4 0
BBX 4 9 0 -2
BITMAP
0111
5CED
04D2
2E30
8B00
9B00
2CE8
005D
0054
ENDCHAR
STARTCHAR eta
ENCODING 951
SWIDTH 657 0
DWIDTH 5 0
BBX 5 7 0 -2
BITMAP
234600
6E9D80
6D08A0
6C08A0
6C08A0
0008A0
000790
ENDCHAR
STARTCHAR theta
ENCODING 952
SWIDTH 618 0
DWIDTH 5 0
BBX 5 7 0 0
BITMAP
002000
1DCC10
7B0C60
9C8D80
9B6C80
6B0C60
1BDB10
ENDCHAR
STARTCHAR iota
ENCODING 953
SWIDTH 407 0
DWIDTH 3 0
BBX 4 5 0 0
BITMAP
2500
6C00
6C00
5D00
2EE1
ENDCHAR
STARTCHAR kappa
ENCODING 954
SWIDTH 620 0
DWIDTH 5 0
BBX 5 5 0 0
BITMAP
250340
6C3D20
6DD500
6E9C00
6C0B90
ENDCHAR
STARTCHAR lambda
ENCODING 955
SWIDTH 615 0
DWIDTH 5 0
BBX 5 8 0 -1
BITMAP
110000
7F6000
05E000
06F500
0DCA00
5D3F10
B70BD0
000010
ENDCHAR
STARTCHAR uni03BC
ENCODING 956
SWIDTH 660 0
DWIDTH 5 0
BBX 5 7 0 -2
BITMAP
250340
6C08A0
6C08A0
6D0AA0
6EECA0
6C0000
5B0000
ENDCHAR
STARTCHAR nu
ENCODING 957
SWIDTH 595 0
DWIDTH 5 0
BBX 5 5 0 0
BITMAP
520420
A80C60
4D0E30
0D9C00
08E300
ENDCHAR
STARTCHAR xi
ENCODING 958
SWIDTH 498 0
DWIDTH 4 0
BBX 4 9 0 -2
BITMAP
0111
5EE8
4D00
2D94
5D52
9B00
2CE8
005D
0054
ENDCHAR
STARTCHAR omicron
ENCODING 959
SWIDTH 619 0
DWIDTH 5 0
BBX 5 6 0 -1
BITMAP
036300
4E9E30
990A80
8B0B70
1CEC10
001000
ENDCHAR
STARTCHAR pi
ENCODING 960
SWIDTH 738 0
DWIDTH 6 0
BBX 6 6 0 -1
BITMAP
366664
7FACD5
0F37B0
0F37B0
0F34F8
000010
ENDCHAR
STARTCHAR rho
ENCODING 961
SWIDTH 618 0
DWIDTH 5 0
BBX 5 7 0 -2
BITMAP
036300
3E9E30
7B0A80
8B0B70
8EED20
8A1000
790000
ENDCHAR
STARTCHAR sigma1
ENCODING 962
SWIDTH 498 0
DWIDTH 4 0
BBX 4 7 0 -2
BITMAP
0364
4E88
9A00
8B10
1AE9
005D
0054
ENDCHAR
STARTCHAR sigma
ENCODING 963
SWIDTH 652 0
DWIDTH 5 0
BBX 5 5 0 0
BITMAP
025660
4E8E80
9A0A80
8B0B90
2DEC20
ENDCHAR
STARTCHAR tau
ENCODING 964
SWIDTH 538 0
DWIDTH 4 0
BBX 4 6 0 -1
BITMAP
3666
7DB8
0B70
0B70
07FA
0010
ENDCHAR
STARTCHAR upsilon
ENCODING 965
SWIDTH 645 0
DWIDTH 5 0
BBX 5 6 0 -1
BITMAP
240430
7B0890
7B07B0
6D0990
1CED20
001000
ENDCHAR
STARTCHAR phi
ENCODING 966
SWIDTH 791 0
DWIDTH 6 0
BBX 6 7 0 -2
BITMAP
030450
4D5DAA
987A3E
8A7A7C
1BEEC2
007A00
006900
ENDCHAR
STARTCHAR chi
ENCODING 967
SWIDTH 591 0
DWIDTH 5 0
BBX 5 7 0 -2
BITMAP
440340
7E2D40
09DA00
05F200
0CD600
6C6C10
C41BA0
ENDCHAR
STARTCHAR psi
ENCODING 968
SWIDTH 836 0
DWIDTH 7 0
BBX 7 9 0 -2
BITMAP
00010000
003E0000
243E1600
7B3E0E20
7B3E0D40
5C3E1E20
0AEFE700
003E0000
002D0000
ENDCHAR
STARTCHAR omega
ENCODING 969
SWIDTH 862 0
DWIDTH 7 0
BBX 7 5 0 0
BITMAP
15000610
6B000C50
881F0A70
792F1B60
2DE8ED10
ENDCHAR
STARTCHAR iotadieresis
ENCODING 970
SWIDTH 407 0
DWIDTH 3 0
BBX 4 6 0 0
BITMAP
C490
2500
6C00
6C00
5D00
2EE1
ENDCHAR
STARTCHAR upsilondieresis
ENCODING 971
SWIDTH 645 0
DWIDTH 5 0
BBX 5 7 0 -1
BITMAP
094B00
240430
7B0890
7B07B0
6D0990
1CED20
001000
ENDCHAR
STARTCHAR omicrontonos
ENCODING 972
SWIDTH 619 0
DWIDTH 5 0
BBX 5 8 0 -1
BITMAP
003300
00B200
038300
4E9E30
990A80
8B0B70
1CEC10
001000
ENDCHAR
STARTCHAR upsilontonos
ENCODING 973
SWIDTH 645 0
DWIDTH 5 0
BBX 5 8 0 -1
BITMAP
003300
00B300
242430
7B0890
7B07B0
6D0990
1CED20
001000
ENDCHAR
STARTCHAR omegatonos
ENCODING 974
SWIDTH 862 0
DWIDTH 7 0
BBX 7 7 0 0
BITMAP
00042000
000C2000
15020610
6B000C50
881F0A70
792F1B60
2DE8ED10
ENDCHAR
STARTCHAR uni03D1
ENCODING 977
SWIDTH 731 0
DWIDTH 6 0
BBX 6 8 0 -1
BITMAP
002100
08DE50
0B85D0
15CEF8
8F12F2
0F15E0
0BEE50
001000
ENDCHAR
STARTCHAR uni03D2
ENCODING 978
SWIDTH 630 0
DWIDTH 5 0
BBX 5 6 0 0
BITMAP
9504B0
5D1E60
0CCB00
04F400
01F200
01F200
ENDCHAR
STARTCHAR uni03D6
ENCODING 982
SWIDTH 999 0
DWIDTH 8 0
BBX 8 5 0 0
BITMAP
26666664
6EA88AE6
0E2332E0
0E2992E0
08EBBE80
ENDCHAR
STARTCHAR uni0400
ENCODING 1024
SWIDTH 560 0
DWIDTH 4 0
BBX 4 8 0 0
BITMAP
1720
0490
3BBB
4E44
4F76
4F87
4E00
4FFF
ENDCHAR
STARTCHAR afii10023
ENCODING 1025
SWIDTH 560 0
DWIDTH 4 0
BBX 4 8 0 0
BITMAP
0312
0936
3BBB
4E44
4F76
4F87
4E00
4FFF
ENDCHAR
STARTCHAR afii10051
ENCODING 1026
SWIDTH 805 0
DWIDTH 6 0
BBX 6 7 0 -1
BITMAP
9BBB60
49D420
06EA93
06D59E
06C03F
06C5EA
000010
ENDCHAR
STARTCHAR afii10052
ENCODING 1027
SWIDTH 561 0
DWIDTH 4 0
BBX 5 8 0 0
BITMAP
003600
01A300
3BBB40
4E4410
4E0000
4E0000
4E0000
4E0000
ENDCHAR
STARTCHAR afii10053
ENCODING 1028
SWIDTH 676 0
DWIDTH 5 0
BBX 5 7 0 -1
BITMAP
03AB90
2E7460
7D6610
7E9920
4E2020
08EFD0
000100
ENDCHAR
STARTCHAR afii10054
ENCODING 1029
SWIDTH 550 0
DWIDTH 4 0
BBX 5 6 0 0
BITMAP
19B900
7C4500
5E6000
06DB00
313F10
8FF900
ENDCHAR
STARTCHAR afii10055
ENCODING 1030
SWIDTH 331 0
DWIDTH 3 0
BBX 2 6 0 0
BITMAP
3A
4E
4E
4E
4E
4E
ENDCHAR
STARTCHAR afii10056
ENCODING 1031
SWIDTH 331 0
DWIDTH 3 0
BBX 3 8 0 0
BITMAP
3120
9460
3A00
4E00
4E00
4E00
4E00
4E00
ENDCHAR
STARTCHAR afii10057
ENCODING 1032
SWIDTH 331 0
DWIDTH 3 0
BBX 3 8 -1 -2
BITMAP
03A0
04E0
04E0
04E0
04E0
04E0
3AC0
6920
ENDCHAR
STARTCHAR afii10058
ENCODING 1033
SWIDTH 999 0
DWIDTH 8 0
BBX 8 7 0 -1
BITMAP
04BBB000
08B7F000
0A74F750
0C54F7E6
1F24F0B9
EB04FFC2
10000000
ENDCHAR
STARTCHAR afii10059
ENCODING 1034
SWIDTH 1001 0
DWIDTH 8 0
BBX 8 6 0 0
BITMAP
3A02B000
4E03F000
4F79F750
4F89F7D7
4E03F0A9
4E03FFC2
ENDCHAR
STARTCHAR afii10060
ENCODING 1035
SWIDTH 805 0
DWIDTH 6 0
BBX 6 6 0 0
BITMAP
9BBB60
49D420
06EA94
06D58E
06C03F
06C03F
ENDCHAR
STARTCHAR afii10061
ENCODING 1036
SWIDTH 671 0
DWIDTH 5 0
BBX 6 8 0 0
BITMAP
000620
006700
3A03A1
4E1D50
4EA900
4EC800
4E2E40
4E05E1
ENDCHAR
STARTCHAR uni040D
ENCODING 1037
SWIDTH 823 0
DWIDTH 7 0
BBX 6 8 0 0
BITMAP
017100
006800
390099
4C05ED
4C1D7D
4C8A3D
4DE23D
4F703D
ENDCHAR
STARTCHAR afii10062
ENCODING 1038
SWIDTH 652 0
DWIDTH 5 0
BBX 6 8 0 0
BITMAP
180540
09BA20
9502B1
6C08A0
0E4D40
07DC00
03F500
BFA000
ENDCHAR
STARTCHAR afii10145
ENCODING 1039
SWIDTH 745 0
DWIDTH 6 0
BBX 6 8 0 -2
BITMAP
3A00A3
4E00F4
4E00F4
4E00F4
4E00F4
4FFFF4
009800
006600
ENDCHAR
STARTCHAR afii10017
ENCODING 1040
SWIDTH 689 0
DWIDTH 6 0
BBX 6 6 0 0
BITMAP
01B700
06CE00
0C6D40
2F7BA0
7DAAE1
C700E5
ENDCHAR
STARTCHAR afii10018
ENCODING 1041
SWIDTH 638 0
DWIDTH 5 0
BBX 5 6 0 0
BITMAP
3BBB40
4E4410
4F7500
4F7D80
4E09A0
4FFC30
ENDCHAR
STARTCHAR afii10019
ENCODING 1042
SWIDTH 671 0
DWIDTH 5 0
BBX 5 6 0 0
BITMAP
3BB920
4E4BB0
4F7C80
4F8C90
4E07D0
4FFE60
ENDCHAR
STARTCHAR afii10020
ENCODING 1043
SWIDTH 561 0
DWIDTH 4 0
BBX 5 6 0 0
BITMAP
3BBB40
4E4410
4E0000
4E0000
4E0000
4E0000
ENDCHAR
STARTCHAR afii10021
ENCODING 1044
SWIDTH 764 0
DWIDTH 6 0
BBX 6 8 0 -2
BITMAP
02BBB2
06C5F3
0980F3
0E40F3
5E00F3
EFFFFE
E3003E
A2002A
ENDCHAR
STARTCHAR afii10022
ENCODING 1045
SWIDTH 560 0
DWIDTH 4 0
BBX 4 6 0 0
BITMAP
3BBB
4E44
4F76
4F87
4E00
4FFF
ENDCHAR
STARTCHAR afii10024
ENCODING 1046
SWIDTH 942 0
DWIDTH 8 0
BBX 8 6 0 0
BITMAP
760941A2
2E3C5990
05CCAD10
04DDBC00
1E4C5B80
A90C52E3
ENDCHAR
STARTCHAR afii10025
ENCODING 1047
SWIDTH 647 0
DWIDTH 5 0
BBX 5 7 0 -1
BITMAP
39BA20
363B90
057C40
058C60
1007C0
7EEE50
001000
ENDCHAR
STARTCHAR afii10026
ENCODING 1048
SWIDTH 823 0
DWIDTH 7 0
BBX 6 6 0 0
BITMAP
390099
4C05ED
4C1D7D
4C8A3D
4DE23D
4F703D
ENDCHAR
STARTCHAR afii10027
ENCODING 1049
SWIDTH 823 0
DWIDTH 7 0
BBX 6 8 0 0
BITMAP
055081
02AB80
390099
4C05ED
4C1D7D
4C8A3D
4DE23D
4F703D
ENDCHAR
STARTCHAR afii10028
ENCODING 1050
SWIDTH 671 0
DWIDTH 5 0
BBX 6 6 0 0
BITMAP
3A03A1
4E1D50
4EA900
4EC800
4E2E40
4E05E1
ENDCHAR
STARTCHAR afii10029
ENCODING 1051
SWIDTH 745 0
DWIDTH 6 0
BBX 6 7 0 -1
BITMAP
04BBB3
08B4F4
0A70F4
0C50F4
1F20F4
EB00F4
100000
ENDCHAR
STARTCHAR afii10030
ENCODING 1052
SWIDTH 942 0
DWIDTH 8 0
BBX 7 6 0 0
BITMAP
3B500A90
4EB03EC0
4CE18AC0
4C95D6C0
4C5DB4C0
4C1F64C0
ENDCHAR
STARTCHAR afii10031
ENCODING 1053
SWIDTH 765 0
DWIDTH 6 0
BBX 6 6 0 0
BITMAP
3A0094
4E00C6
4F77E6
4F88E6
4E00C6
4E00C6
ENDCHAR
STARTCHAR afii10032
ENCODING 1054
SWIDTH 795 0
DWIDTH 6 0
BBX 6 6 0 0
BITMAP
04AB70
2F74D8
7C007C
7C006D
4F30B9
08EFB2
ENDCHAR
STARTCHAR afii10033
ENCODING 1055
SWIDTH 745 0
DWIDTH 6 0
BBX 6 6 0 0
BITMAP
3BBBB3
4E44F4
4E00F4
4E00F4
4E00F4
4E00F4
ENDCHAR
STARTCHAR afii10034
ENCODING 1056
SWIDTH 627 0
DWIDTH 5 0
BBX 5 6 0 0
BITMAP
3BB810
4E4D80
4E1B90
4FEB20
4E0000
4E0000
ENDCHAR
STARTCHAR afii10035
ENCODING 1057
SWIDTH 637 0
DWIDTH 5 0
BBX 5 7 0 -1
BITMAP
04BB60
2F7440
7C0000
7B0000
4E2010
09FF80
000100
ENDCHAR
STARTCHAR afii10036
ENCODING 1058
SWIDTH 579 0
DWIDTH 5 0
BBX 5 6 0 0
BITMAP
9BBB50
47E420
04E000
04E000
04E000
04E000
ENDCHAR
STARTCHAR afii10037
ENCODING 1059
SWIDTH 652 0
DWIDTH 5 0
BBX 6 6 0 0
BITMAP
9502B1
6C08A0
0E4D40
07DC00
03F500
BFA000
ENDCHAR
STARTCHAR afii10038
ENCODING 1060
SWIDTH 859 0
DWIDTH 7 0
BBX 7 7 0 -1
BITMAP
002C1000
1CEFEA10
8A2F0C60
892F0B60
2DCFDC10
003F2000
00010000
ENDCHAR
STARTCHAR afii10039
ENCODING 1061
SWIDTH 666 0
DWIDTH 5 0
BBX 6 6 0 0
BITMAP
7703A0
2E3C60
07EC00
06FA00
2E4E50
A905E1
ENDCHAR
STARTCHAR afii10040
ENCODING 1062
SWIDTH 780 0
DWIDTH 6 0
BBX 7 8 0 -2
BITMAP
3A00A300
4E00F400
4E00F400
4E00F400
4E00F400
4FFFFF10
00001F10
00001A10
ENDCHAR
STARTCHAR afii10041
ENCODING 1063
SWIDTH 728 0
DWIDTH 6 0
BBX 6 6 0 0
BITMAP
6701B1
9A02F2
9B02F2
4FDEF2
0122F2
0002F2
ENDCHAR
STARTCHAR afii10042
ENCODING 1064
SWIDTH 1078 0
DWIDTH 9 0
BBX 8 6 0 0
BITMAP
3A03A03A
4E04E04E
4E04E04E
4E04E04E
4E05E05E
4FFFFFFE
ENDCHAR
STARTCHAR afii10043
ENCODING 1065
SWIDTH 1113 0
DWIDTH 9 0
BBX 9 8 0 -2
BITMAP
3A03A03A00
4E04E04E00
4E04E04E00
4E04E04E00
4E05E05E00
4FFFFFFFB0
00000006B0
0000000480
ENDCHAR
STARTCHAR afii10044
ENCODING 1066
SWIDTH 727 0
DWIDTH 6 0
BBX 6 6 0 0
BITMAP
BB7000
4AA000
08C730
08C8E4
08A1D6
08FEB1
ENDCHAR
STARTCHAR afii10045
ENCODING 1067
SWIDTH 905 0
DWIDTH 7 0
BBX 7 6 0 0
BITMAP
3A000760
4E000A80
4F740A80
4F8E6A80
4E0B8A80
4FFC2A80
ENDCHAR
STARTCHAR afii10046
ENCODING 1068
SWIDTH 638 0
DWIDTH 5 0
BBX 5 6 0 0
BITMAP
3A0000
4E0000
4F7500
4F7D80
4E09A0
4FFC30
ENDCHAR
STARTCHAR afii10047
ENCODING 1069
SWIDTH 663 0
DWIDTH 5 0
BBX 5 6 0 0
BITMAP
5BB700
454D60
056AB0
089CC0
101B90
8FFB10
ENDCHAR
STARTCHAR afii10048
ENCODING 1070
SWIDTH 1069 0
DWIDTH 9 0
BBX 9 7 0 -1
BITMAP
3A018B9100
4E09C4BB00
4F7E503F00
4F8E503F10
4E0B908D00
4E03DFD300
0000010000
ENDCHAR
STARTCHAR afii10049
ENCODING 1071
SWIDTH 665 0
DWIDTH 5 0
BBX 5 6 0 0
BITMAP
07AB70
5E5B90
4E4A90
0AEE90
2E3990
B90990
ENDCHAR
STARTCHAR afii10065
ENCODING 1072
SWIDTH 604 0
DWIDTH 5 0
BBX 5 6 0 -1
BITMAP
056300
198F20
28AF30
9B1F40
6ECD40
010000
ENDCHAR
STARTCHAR afii10066
ENCODING 1073
SWIDTH 622 0
DWIDTH 5 0
BBX 5 7 0 0
BITMAP
000010
06CF80
4E4100
8DCE30
9A0A90
7C0B80
1CEC10
ENDCHAR
STARTCHAR afii10067
ENCODING 1074
SWIDTH 639 0
DWIDTH 5 0
BBX 5 5 0 0
BITMAP
266400
6E7C80
6EAD40
6D2AB0
6FDD60
ENDCHAR
STARTCHAR afii10068
ENCODING 1075
SWIDTH 478 0
DWIDTH 4 0
BBX 4 5 0 0
BITMAP
2664
6E85
6C00
6C00
6C00
ENDCHAR
STARTCHAR afii10069
ENCODING 1076
SWIDTH 664 0
DWIDTH 5 0
BBX 6 7 0 -2
BITMAP
036630
0ABC80
0D4A80
3E1A80
DFDEE2
D300D3
820072
ENDCHAR
STARTCHAR afii10070
ENCODING 1077
SWIDTH 590 0
DWIDTH 5 0
BBX 5 6 0 -1
BITMAP
036200
4E7E20
9DAE60
8C2210
2CDD20
001000
ENDCHAR
STARTCHAR afii10072
ENCODING 1078
SWIDTH 873 0
DWIDTH 7 0
BBX 7 5 0 0
BITMAP
43060340
3D2F2D30
07CFC700
0C7F7C00
9A1F1A90
ENDCHAR
STARTCHAR afii10073
ENCODING 1079
SWIDTH 555 0
DWIDTH 4 0
BBX 5 6 0 -1
BITMAP
266200
588E00
07C900
124F10
9DEA00
010000
ENDCHAR
STARTCHAR afii10074
ENCODING 1080
SWIDTH 720 0
DWIDTH 6 0
BBX 6 5 0 0
BITMAP
240261
6C0DF2
6C8AF2
6DE2F2
6F60F2
ENDCHAR
STARTCHAR afii10075
ENCODING 1081
SWIDTH 720 0
DWIDTH 6 0
BBX 6 7 0 0
BITMAP
040130
0BAC70
242461
6C0DF2
6C8AF2
6DE2F2
6F60F2
ENDCHAR
STARTCHAR afii10076
ENCODING 1082
SWIDTH 619 0
DWIDTH 5 0
BBX 5 5 0 0
BITMAP
250440
6C3E20
6DD500
6C9B00
6C0C80
ENDCHAR
STARTCHAR afii10077
ENCODING 1083
SWIDTH 645 0
DWIDTH 5 0
BBX 5 5 0 0
BITMAP
046630
0DAD80
0E2A80
3E0A80
F90A80
ENDCHAR
STARTCHAR afii10078
ENCODING 1084
SWIDTH 844 0
DWIDTH 7 0
BBX 7 5 0 0
BITMAP
26203610
6F90CF20
6CE5BF20
6BAD6F20
6B4E1F20
ENDCHAR
STARTCHAR afii10079
ENCODING 1085
SWIDTH 662 0
DWIDTH 5 0
BBX 5 5 0 0
BITMAP
250340
6C08A0
6EADA0
6D39A0
6C08A0
ENDCHAR
STARTCHAR afii10080
ENCODING 1086
SWIDTH 619 0
DWIDTH 5 0
BBX 5 6 0 -1
BITMAP
036300
4E9E30
990A80
8B0B70
1CEC10
001000
ENDCHAR
STARTCHAR afii10081
ENCODING 1087
SWIDTH 651 0
DWIDTH 5 0
BBX 5 5 0 0
BITMAP
266630
6E8C90
6C0990
6C0990
6C0990
ENDCHAR
STARTCHAR afii10082
ENCODING 1088
SWIDTH 632 0
DWIDTH 5 0
BBX 5 7 0 -2
BITMAP
244500
6E9E60
6D08A0
6E0A90
6EDE30
6C0000
5B0000
ENDCHAR
STARTCHAR afii10083
ENCODING 1089
SWIDTH 514 0
DWIDTH 4 0
BBX 4 6 0 -1
BITMAP
0364
4E87
9900
8B01
2DEA
0010
ENDCHAR
STARTCHAR afii10084
ENCODING 1090
SWIDTH 553 0
DWIDTH 4 0
BBX 5 5 0 0
BITMAP
566610
6BE820
06C000
06C000
06C000
ENDCHAR
STARTCHAR afii10085
ENCODING 1091
SWIDTH 568 0
DWIDTH 5 0
BBX 5 7 0 -2
BITMAP
520430
A91E30
4E5D00
0DC700
07F200
18B000
AC2000
ENDCHAR
STARTCHAR afii10086
ENCODING 1092
SWIDTH 813 0
DWIDTH 7 0
BBX 7 9 0 -2
BITMAP
00010000
004C0000
018D3000
3EBECA00
9A4C2F10
7C5C4E10
1AEFD500
004C0000
004B0000
ENDCHAR
STARTCHAR afii10087
ENCODING 1093
SWIDTH 578 0
DWIDTH 5 0
BBX 5 5 0 0
BITMAP
430520
5E7D10
0AF500
1ED900
9A2E40
ENDCHAR
STARTCHAR afii10088
ENCODING 1094
SWIDTH 687 0
DWIDTH 6 0
BBX 6 7 0 -2
BITMAP
250240
6C07B0
6C07B0
6C07B0
6FDEF5
0000A6
000063
ENDCHAR
STARTCHAR afii10089
ENCODING 1095
SWIDTH 655 0
DWIDTH 5 0
BBX 5 5 0 0
BITMAP
340340
8A0890
7C4B90
189B90
000890
ENDCHAR
STARTCHAR afii10090
ENCODING 1096
SWIDTH 969 0
DWIDTH 8 0
BBX 8 5 0 0
BITMAP
25043061
6C0B71F2
6C0B71F2
6C0B71F2
6FDFEDF2
ENDCHAR
STARTCHAR afii10091
ENCODING 1097
SWIDTH 984 0
DWIDTH 8 0
BBX 8 7 0 -2
BITMAP
25043061
6C0B71F2
6C0B71F2
6C0B71F2
6FDFEDFA
0000004C
00000026
ENDCHAR
STARTCHAR afii10092
ENCODING 1098
SWIDTH 709 0
DWIDTH 6 0
BBX 6 5 0 0
BITMAP
663000
8C9000
09DA80
09A3E5
09EDC2
ENDCHAR
STARTCHAR afii10093
ENCODING 1099
SWIDTH 850 0
DWIDTH 7 0
BBX 7 5 0 0
BITMAP
25000610
6C000F30
6EA71F30
6D3E5F30
6FDC2F30
ENDCHAR
STARTCHAR afii10094
ENCODING 1100
SWIDTH 613 0
DWIDTH 5 0
BBX 5 5 0 0
BITMAP
250000
6C0000
6EA920
6D2B90
6FDD40
ENDCHAR
STARTCHAR afii10095
ENCODING 1101
SWIDTH 512 0
DWIDTH 4 0
BBX 4 6 0 -1
BITMAP
3640
58D6
19CA
13B9
9DD3
0100
ENDCHAR
STARTCHAR afii10096
ENCODING 1102
SWIDTH 876 0
DWIDTH 7 0
BBX 7 6 0 -1
BITMAP
25026300
6C2E9E40
6ECD0990
6D6D0A80
6C0BED20
00001000
ENDCHAR
STARTCHAR afii10097
ENCODING 1103
SWIDTH 592 0
DWIDTH 5 0
BBX 5 5 0 0
BITMAP
046610
8C8F20
8C7F20
1E7F20
A91F20
ENDCHAR
STARTCHAR uni0450
ENCODING 1104
SWIDTH 590 0
DWIDTH 5 0
BBX 5 8 0 -1
BITMAP
021000
06B000
038300
4E7E20
9DAE60
8C2210
2CDD20
001000
ENDCHAR
STARTCHAR afii10071
ENCODING 1105
SWIDTH 590 0
DWIDTH 5 0
BBX 5 7 0 -1
BITMAP
0B4A00
036300
4E7E20
9DAE60
8C2210
2CDD20
001000
ENDCHAR
STARTCHAR afii10099
ENCODING 1106
SWIDTH 657 0
DWIDTH 5 0
BBX 5 9 0 -2
BITMAP
010000
AD7000
9D6200
6ECF60
6E09A0
6C08A0
6C08A0
0009A0
006D40
ENDCHAR
STARTCHAR afii10100
ENCODING 1107
SWIDTH 478 0
DWIDTH 4 0
BBX 4 7 0 0
BITMAP
0011
03C2
2764
6E85
6C00
6C00
6C00
ENDCHAR
STARTCHAR afii10101
ENCODING 1108
SWIDTH 523 0
DWIDTH 4 0
BBX 4 6 0 -1
BITMAP
0364
5E87
9D92
8B31
2DDB
0010
ENDCHAR
STARTCHAR afii10102
ENCODING 1109
SWIDTH 497 0
DWIDTH 4 0
BBX 4 6 0 -1
BITMAP
1562
8C85
5F91
02C9
9DE5
0100
ENDCHAR
STARTCHAR afii10103
ENCODING 1110
SWIDTH 305 0
DWIDTH 2 0
BBX 2 6 0 0
BITMAP
5C
25
6C
6C
6C
6C
ENDCHAR
STARTCHAR afii10104
ENCODING 1111
SWIDTH 305 0
DWIDTH 2 0
BBX 3 6 0 0
BITMAP
C660
2500
6C00
6C00
6C00
6C00
ENDCHAR
STARTCHAR afii10105
ENCODING 1112
SWIDTH 305 0
DWIDTH 2 0
BBX 3 8 -1 -2
BITMAP
05C0
0250
06C0
06C0
06C0
06C0
17C0
7D60
ENDCHAR
STARTCHAR afii10106
ENCODING 1113
SWIDTH 888 0
DWIDTH 7 0
BBX 7 5 0 0
BITMAP
04662000
0DAE6000
0E2CC930
3E0C79C0
F90CDD60
ENDCHAR
STARTCHAR afii10107
ENCODING 1114
SWIDTH 888 0
DWIDTH 7 0
BBX 7 5 0 0
BITMAP
25052000
6C0C6000
6EAEC930
6D3D79C0
6C0CDD60
ENDCHAR
STARTCHAR afii10108
ENCODING 1115
SWIDTH 657 0
DWIDTH 5 0
BBX 5 7 0 0
BITMAP
010000
AD7000
9D6200
6ECF60
6E09A0
6C08A0
6C08A0
ENDCHAR
STARTCHAR afii10109
ENCODING 1116
SWIDTH 619 0
DWIDTH 5 0
BBX 5 7 0 0
BITMAP
000200
009900
252440
6C3E20
6DD500
6C9B00
6C0C80
ENDCHAR
STARTCHAR uni045D
ENCODING 1117
SWIDTH 720 0
DWIDTH 6 0
BBX 6 7 0 0
BITMAP
011000
02C300
241461
6C0DF2
6C8AF2
6DE2F2
6F60F2
ENDCHAR
STARTCHAR afii10110
ENCODING 1118
SWIDTH 568 0
DWIDTH 5 0
BBX 5 9 0 -2
BITMAP
220410
5C9C00
532530
A91E30
4E5D00
0DC700
07F200
18B000
AC2000
ENDCHAR
STARTCHAR afii10193
ENCODING 1119
SWIDTH 671 0
DWIDTH 5 0
BBX 5 7 0 -2
BITMAP
250240
6C07B0
6C07B0
6C07B0
6FDEB0
00D300
007200
ENDCHAR
STARTCHAR uni0460
ENCODING 1120
SWIDTH 1087 0
DWIDTH 9 0
BBX 9 6 0 0
BITMAP
06B71AA300
3E43047D00
7B00000F30
7B03B00F30
4E35E16E00
09FEAFE500
ENDCHAR
STARTCHAR uni0461
ENCODING 1121
SWIDTH 884 0
DWIDTH 7 0
BBX 7 5 0 0
BITMAP
52350240
A83F17B0
5D3F6A80
0EADBE30
09E3F900
ENDCHAR
STARTCHAR uni0462
ENCODING 1122
SWIDTH 672 0
DWIDTH 5 0
BBX 5 7 0 0
BITMAP
010000
4F7300
9FA600
0F9610
0F9BC0
0F35E0
0FFD60
ENDCHAR
STARTCHAR uni0463
ENCODING 1123
SWIDTH 662 0
DWIDTH 5 0
BBX 5 6 0 0
BITMAP
020000
6F8300
8F9500
0FBA50
0F56E0
0FDD90
ENDCHAR
STARTCHAR uni0464
ENCODING 1124
SWIDTH 950 0
DWIDTH 8 0
BBX 8 7 0 -1
BITMAP
3A019BA2
4E0CA461
4F8F8730
4F9F8830
4E1E6010
4E05EFE1
00000100
ENDCHAR
STARTCHAR uni0465
ENCODING 1125
SWIDTH 799 0
DWIDTH 6 0
BBX 7 6 0 -1
BITMAP
25026500
6C1E8800
6ECFA600
6D6F4200
6C0AED10
00001000
ENDCHAR
STARTCHAR uni0466
ENCODING 1126
SWIDTH 729 0
DWIDTH 6 0
BBX 6 6 0 0
BITMAP
00A900
04BD20
0AAB80
1ECCD0
7A97D4
C5977A
ENDCHAR
STARTCHAR uni0467
ENCODING 1127
SWIDTH 640 0
DWIDTH 5 0
BBX 5 5 0 0
BITMAP
016200
08CA00
0E9F10
6BFB70
C5E4D0
ENDCHAR
STARTCHAR uni0468
ENCODING 1128
SWIDTH 1004 0
DWIDTH 8 0
BBX 8 6 0 0
BITMAP
3A008B00
4E02EB50
4F7ACAB0
4F8FCDE2
4E3D6AA7
4E986A5D
ENDCHAR
STARTCHAR uni0469
ENCODING 1129
SWIDTH 901 0
DWIDTH 7 0
BBX 8 5 0 0
BITMAP
24016300
6A07CB00
6DAEBF20
6B7CDA90
6AA6D4E1
ENDCHAR
STARTCHAR uni046A
ENCODING 1130
SWIDTH 804 0
DWIDTH 6 0
BBX 7 6 0 0
BITMAP
3BBBB800
0BA6E400
02EC8000
0DDEE500
5D6C6C00
A86C2F20
ENDCHAR
STARTCHAR uni046B
ENCODING 1131
SWIDTH 623 0
DWIDTH 5 0
BBX 5 5 0 0
BITMAP
366630
4E8E40
0BEB00
6AFB50
B4F4B0
ENDCHAR
STARTCHAR uni046C
ENCODING 1132
SWIDTH 1073 0
DWIDTH 9 0
BBX 9 6 0 0
BITMAP
3A1BBBBA00
4E09C5E600
4F78FCA000
4F8EDFD700
4E3F4F4E00
4E8A3F0E40
ENDCHAR
STARTCHAR uni046D
ENCODING 1133
SWIDTH 879 0
DWIDTH 7 0
BBX 7 5 0 0
BITMAP
24366640
6A3E8E50
6DADEC00
6B7BEB60
6AA5E4C0
ENDCHAR
STARTCHAR uni046E
ENCODING 1134
SWIDTH 631 0
DWIDTH 5 0
BBX 5 9 0 -2
BITMAP
0A5B20
4BFA10
453C70
068C30
069D50
0009A0
5CED30
C94300
4AAA00
ENDCHAR
STARTCHAR uni046F
ENCODING 1135
SWIDTH 555 0
DWIDTH 4 0
BBX 5 8 0 -2
BITMAP
121500
3DC600
588E00
07C900
024F10
6CEA00
D74100
5AA600
ENDCHAR
STARTCHAR uni0470
ENCODING 1136
SWIDTH 875 0
DWIDTH 7 0
BBX 7 6 0 0
BITMAP
660B0660
980F1890
890F1980
3EBFBE30
014F4100
000F1000
ENDCHAR
STARTCHAR uni0471
ENCODING 1137
SWIDTH 836 0
DWIDTH 7 0
BBX 7 9 0 -2
BITMAP
00010000
003E0000
243E1600
7B3E0E20
7B3E0D40
5C3E1E20
0AEFE700
003E0000
002D0000
ENDCHAR
STARTCHAR uni0472
ENCODING 1138
SWIDTH 795 0
DWIDTH 6 0
BBX 6 6 0 0
BITMAP
04AB70
2F64D8
7E77AC
7E99BD
4E20B9
08EFB2
ENDCHAR
STARTCHAR uni0473
ENCODING 1139
SWIDTH 619 0
DWIDTH 5 0
BBX 5 6 0 -1
BITMAP
036300
4E9E30
9D9D80
8C3D70
1CEC10
001000
ENDCHAR
STARTCHAR uni0474
ENCODING 1140
SWIDTH 716 0
DWIDTH 6 0
BBX 6 6 0 0
BITMAP
940097
9905D3
4E0A70
0E4E20
09CC00
03F700
ENDCHAR
STARTCHAR uni0475
ENCODING 1141
SWIDTH 604 0
DWIDTH 5 0
BBX 5 5 0 0
BITMAP
520240
A80D80
4D4D00
0DB700
08F200
ENDCHAR
STARTCHAR uni0476
ENCODING 1142
SWIDTH 716 0
DWIDTH 6 0
BBX 6 8 0 0
BITMAP
165300
075900
940097
9905D3
4E0A70
0E4E20
09CC00
03F700
ENDCHAR
STARTCHAR uni0477
ENCODING 1143
SWIDTH 604 0
DWIDTH 5 0
BBX 5 7 0 0
BITMAP
112000
4BA500
530440
A80D80
4D4D00
0DB700
08F200
ENDCHAR
STARTCHAR uni0478
ENCODING 1144
SWIDTH 1318 0
DWIDTH 11 0
BBX 11 8 0 -2
BITMAP
05BB50000000
3F65F4520430
7C00B8A91E30
7B00A84E5D00
4E21E50DC700
09FF9007F200
00000018B000
000000AC2000
ENDCHAR
STARTCHAR uni0479
ENCODING 1145
SWIDTH 1145 0
DWIDTH 9 0
BBX 9 7 0 -2
BITMAP
0363250160
4E9E4F36C0
990A8A8B70
8B0B74DE10
1CEC10DB00
001002D500
00002D9000
ENDCHAR
STARTCHAR uni047A
ENCODING 1146
SWIDTH 835 0
DWIDTH 7 0
BBX 7 8 0 -1
BITMAP
00020000
04BE9100
2F77AC00
7C002F20
7B001F20
4F337E00
07EFD400
00150000
ENDCHAR
STARTCHAR uni047B
ENCODING 1147
SWIDTH 679 0
DWIDTH 5 0
BBX 5 6 0 -1
BITMAP
029500
4ECCA0
9A03F0
8B25E0
1BFD50
004100
ENDCHAR
STARTCHAR uni047C
ENCODING 1148
SWIDTH 1087 0
DWIDTH 9 0
BBX 9 9 0 0
BITMAP
0006720000
0009A90000
0001B00000
06B70AA300
3E43047D00
7B00000F30
7B00000F30
4E22816E00
09FEAFE500
ENDCHAR
STARTCHAR uni047D
ENCODING 1149
SWIDTH 890 0
DWIDTH 7 0
BBX 7 9 0 -1
BITMAP
00240000
00BAB300
000C1000
04645500
5E717D70
990007B0
8B0209A0
2DDCDE30
00100000
ENDCHAR
STARTCHAR uni047E
ENCODING 1150
SWIDTH 1087 0
DWIDTH 9 0
BBX 9 8 0 0
BITMAP
0014440000
0027880000
06B70AA300
3E43047D00
7B00000F30
7B03B00F30
4E35E16E00
09FEAFE500
ENDCHAR
STARTCHAR uni047F
ENCODING 1151
SWIDTH 884 0
DWIDTH 7 0
BBX 7 6 0 0
BITMAP
02999000
52562240
A84E07B0
4D3F4A80
0EAEAE30
08F4F800
ENDCHAR
STARTCHAR uni0480
ENCODING 1152
SWIDTH 676 0
DWIDTH 5 0
BBX 5 8 0 -2
BITMAP
03AB90
2E7460
7C0000
7B0000
4F3000
07EE80
000A80
000980
ENDCHAR
STARTCHAR uni0481
ENCODING 1153
SWIDTH 523 0
DWIDTH 4 0
BBX 4 7 0 -2
BITMAP
0364
5E88
9900
8B00
2CE8
00A8
0098
ENDCHAR
STARTCHAR uni0482
ENCODING 1154
SWIDTH 608 0
DWIDTH 5 0
BBX 5 5 0 0
BITMAP
021900
01BA00
439330
1B9100
182200
ENDCHAR
STARTCHAR uni0483
ENCODING 1155
SWIDTH 557 0
DWIDTH 4 0
BBX 4 2 0 4
BITMAP
1778
2521
ENDCHAR
STARTCHAR uni0484
ENCODING 1156
SWIDTH 577 0
DWIDTH 5 0
BBX 3 2 1 4
BITMAP
ACD0
1020
ENDCHAR
STARTCHAR uni0485
ENCODING 1157
SWIDTH 577 0
DWIDTH 5 0
BBX 2 3 1 4
BITMAP
04
2C
01
ENDCHAR
STARTCHAR uni0486
ENCODING 1158
SWIDTH 577 0
DWIDTH 5 0
BBX 2 3 1 4
BITMAP
04
1C
11
ENDCHAR
STARTCHAR uni0488
ENCODING 1160
SWIDTH 988 0
DWIDTH 8 0
BBX 8 8 0 -2
BITMAP
00043000
05111240
01100120
44000043
11000011
06200350
00143110
00011000
ENDCHAR
STARTCHAR uni0489
ENCODING 1161
SWIDTH 956 0
DWIDTH 8 0
BBX 8 8 0 -2
BITMAP
00042000
06040340
02100300
63000061
02000012
03300500
04052230
00030000
ENDCHAR
STARTCHAR uni048A
ENCODING 1162
SWIDTH 916 0
DWIDTH 7 0
BBX 8 10 0 -2
BITMAP
05508100
02AB8000
39009900
4C05ED00
4C1D7D00
4C8A3D00
4DE23D10
4F703FF1
000005C0
00000760
ENDCHAR
STARTCHAR uni048B
ENCODING 1163
SWIDTH 801 0
DWIDTH 6 0
BBX 7 9 0 -2
BITMAP
04013000
0AAC7000
24246100
6C0DF200
6C8AF200
6DE2F200
6F60FD30
00001E00
00002700
ENDCHAR
STARTCHAR uni048C
ENCODING 1164
SWIDTH 616 0
DWIDTH 5 0
BBX 5 6 0 0
BITMAP
4A2000
BFD100
4F7500
4F7D80
4E09A0
4FFC30
ENDCHAR
STARTCHAR uni048D
ENCODING 1165
SWIDTH 613 0
DWIDTH 5 0
BBX 5 7 0 0
BITMAP
010000
7D3100
BE8200
6C0000
6EA920
6D2B90
6FDD40
ENDCHAR
STARTCHAR uni048E
ENCODING 1166
SWIDTH 627 0
DWIDTH 5 0
BBX 5 6 0 0
BITMAP
3BB810
4E4D80
4E5C90
4FEF20
4E0310
4E0000
ENDCHAR
STARTCHAR uni048F
ENCODING 1167
SWIDTH 632 0
DWIDTH 5 0
BBX 5 7 0 -2
BITMAP
244500
6E9E60
6D08A0
6E5D90
6EDF40
6C0320
5B0000
ENDCHAR
STARTCHAR afii10050
ENCODING 1168
SWIDTH 581 0
DWIDTH 5 0
BBX 5 7 0 0
BITMAP
000870
3BBD70
4E4420
4E0000
4E0000
4E0000
4E0000
ENDCHAR
STARTCHAR afii10098
ENCODING 1169
SWIDTH 512 0
DWIDTH 4 0
BBX 4 6 0 0
BITMAP
0027
268C
6E86
6C00
6C00
6C00
ENDCHAR
STARTCHAR uni0492
ENCODING 1170
SWIDTH 559 0
DWIDTH 4 0
BBX 5 6 0 0
BITMAP
3BBB30
4E4410
7E5200
AFA500
4E0000
4E0000
ENDCHAR
STARTCHAR uni0493
ENCODING 1171
SWIDTH 491 0
DWIDTH 4 0
BBX 4 5 0 0
BITMAP
3664
7E97
BD80
AD50
7B00
ENDCHAR
STARTCHAR uni0494
ENCODING 1172
SWIDTH 733 0
DWIDTH 6 0
BBX 6 8 0 -2
BITMAP
3BBB30
4E4410
4E3200
4FEFA0
4E02E5
4E00B7
0023E4
00DF90
ENDCHAR
STARTCHAR uni0495
ENCODING 1173
SWIDTH 602 0
DWIDTH 5 0
BBX 5 7 0 -2
BITMAP
266500
6E9700
6E7300
6E9E30
6C0A70
011C60
05EB00
ENDCHAR
STARTCHAR uni0496
ENCODING 1174
SWIDTH 1028 0
DWIDTH 8 0
BBX 9 8 0 -2
BITMAP
760941A200
2E3C599000
05CCAD1000
04DDBC0000
1E4C5B8100
A90C52EF10
0000001F10
0000001A10
ENDCHAR
STARTCHAR uni0497
ENCODING 1175
SWIDTH 941 0
DWIDTH 8 0
BBX 8 7 0 -2
BITMAP
43060340
3D2F2D30
07CFC700
0C7F7C00
9A1F1AE5
000000B5
00000063
ENDCHAR
STARTCHAR uni0498
ENCODING 1176
SWIDTH 647 0
DWIDTH 5 0
BBX 5 8 0 -2
BITMAP
39BA20
363B90
057C40
058C60
1007C0
7EEE50
00B100
03B200
ENDCHAR
STARTCHAR uni0499
ENCODING 1177
SWIDTH 555 0
DWIDTH 4 0
BBX 5 7 0 -2
BITMAP
266200
588E00
07C900
124F10
9DEA00
049000
088000
ENDCHAR
STARTCHAR uni049A
ENCODING 1178
SWIDTH 755 0
DWIDTH 6 0
BBX 6 8 0 -2
BITMAP
3A03A1
4E1D50
4EA900
4EC800
4E2E41
4E05FD
00004D
000039
ENDCHAR
STARTCHAR uni049B
ENCODING 1179
SWIDTH 665 0
DWIDTH 5 0
BBX 6 7 0 -2
BITMAP
250440
6C3E20
6DD500
6C9B00
6C0CD3
0000D3
000072
ENDCHAR
STARTCHAR uni049C
ENCODING 1180
SWIDTH 664 0
DWIDTH 5 0
BBX 6 6 0 0
BITMAP
3A14A1
4E8E50
4EC900
4FEB00
4E8E60
4E26E1
ENDCHAR
STARTCHAR uni049D
ENCODING 1181
SWIDTH 599 0
DWIDTH 5 0
BBX 5 5 0 0
BITMAP
240430
6BBD10
6CE200
6BE800
6B6D60
ENDCHAR
STARTCHAR uni049E
ENCODING 1182
SWIDTH 643 0
DWIDTH 5 0
BBX 5 6 0 0
BITMAP
691590
DE7E30
7CD600
7FD900
7C3F30
7C08C0
ENDCHAR
STARTCHAR uni049F
ENCODING 1183
SWIDTH 620 0
DWIDTH 5 0
BBX 5 7 0 0
BITMAP
010000
AD7000
9D5440
6C5E20
6DE500
6E9C00
6C0B90
ENDCHAR
STARTCHAR uni04A0
ENCODING 1184
SWIDTH 732 0
DWIDTH 6 0
BBX 6 6 0 0
BITMAP
BB5086
4C77D1
0BBE20
0BDE40
0B77D1
0B70C8
ENDCHAR
STARTCHAR uni04A1
ENCODING 1185
SWIDTH 694 0
DWIDTH 6 0
BBX 6 5 0 0
BITMAP
663051
8C88A0
09BD10
098D50
0982E3
ENDCHAR
STARTCHAR uni04A2
ENCODING 1186
SWIDTH 840 0
DWIDTH 7 0
BBX 7 8 0 -2
BITMAP
3A009400
4E00C600
4F77E600
4F88E600
4E00C700
4E00CF80
00000980
00000660
ENDCHAR
STARTCHAR uni04A3
ENCODING 1187
SWIDTH 743 0
DWIDTH 6 0
BBX 6 7 0 -2
BITMAP
250340
6C08A0
6EADA0
6D39A0
6C08EA
00005B
000036
ENDCHAR
STARTCHAR uni04A4
ENCODING 1188
SWIDTH 833 0
DWIDTH 7 0
BBX 7 6 0 0
BITMAP
3A009B70
4E00C930
4F77E600
4F88E600
4E00C600
4E00C600
ENDCHAR
STARTCHAR uni04A5
ENCODING 1189
SWIDTH 757 0
DWIDTH 6 0
BBX 6 5 0 0
BITMAP
250366
6C08D8
6EADA0
6D39A0
6C08A0
ENDCHAR
STARTCHAR uni04A6
ENCODING 1190
SWIDTH 1125 0
DWIDTH 9 0
BBX 9 8 0 -2
BITMAP
3BBBB10000
4E46F10000
4E02F32000
4E02FEFC10
4E02F11D70
4E02F10990
0000022D60
00000BFA00
ENDCHAR
STARTCHAR uni04A7
ENCODING 1191
SWIDTH 889 0
DWIDTH 7 0
BBX 7 7 0 -2
BITMAP
26663000
6E8D7000
6C0BB500
6C0BCD70
6C0B76C0
000028A0
0001DD20
ENDCHAR
STARTCHAR uni04A8
ENCODING 1192
SWIDTH 776 0
DWIDTH 6 0
BBX 6 7 0 -1
BITMAP
05B900
3F5661
7B2EB9
7B3D5B
4E3EB7
08FFFA
000024
ENDCHAR
STARTCHAR uni04A9
ENCODING 1193
SWIDTH 655 0
DWIDTH 5 0
BBX 5 6 0 -1
BITMAP
036100
4E9510
999BB0
8AA9B0
2DEFB0
001140
ENDCHAR
STARTCHAR uni04AA
ENCODING 1194
SWIDTH 637 0
DWIDTH 5 0
BBX 5 8 0 -2
BITMAP
04BB60
2F7440
7C0000
7B0000
4E2010
09FF80
003900
008900
ENDCHAR
STARTCHAR uni04AB
ENCODING 1195
SWIDTH 514 0
DWIDTH 4 0
BBX 4 7 0 -2
BITMAP
0364
4E87
9900
8B01
2DEA
00B1
03B2
ENDCHAR
STARTCHAR uni04AC
ENCODING 1196
SWIDTH 579 0
DWIDTH 5 0
BBX 5 8 0 -2
BITMAP
9BBB50
47E420
04E000
04E000
04E100
04FF10
001F10
001A10
ENDCHAR
STARTCHAR uni04AD
ENCODING 1197
SWIDTH 549 0
DWIDTH 4 0
BBX 5 7 0 -2
BITMAP
566610
6BE820
06C000
06C000
06FC00
003D00
002700
ENDCHAR
STARTCHAR uni04AE
ENCODING 1198
SWIDTH 624 0
DWIDTH 5 0
BBX 5 6 0 0
BITMAP
950590
5D1D50
0CCC00
04F400
02F100
02F100
ENDCHAR
STARTCHAR uni04AF
ENCODING 1199
SWIDTH 574 0
DWIDTH 5 0
BBX 5 7 0 -2
BITMAP
520430
A91E40
4E6D00
0DD700
07F100
04D000
04C000
ENDCHAR
STARTCHAR uni04B0
ENCODING 1200
SWIDTH 624 0
DWIDTH 5 0
BBX 5 6 0 0
BITMAP
950590
5D1D50
0CCC00
05F500
5EFE50
02F100
ENDCHAR
STARTCHAR uni04B1
ENCODING 1201
SWIDTH 574 0
DWIDTH 5 0
BBX 5 7 0 -2
BITMAP
520430
A91E40
4E6D00
0DD700
07F100
6EFD00
04C000
ENDCHAR
STARTCHAR uni04B2
ENCODING 1202
SWIDTH 743 0
DWIDTH 6 0
BBX 6 8 0 -2
BITMAP
7703A0
2E3C60
07EC00
06FA00
2E4E51
A905FC
00006C
000048
ENDCHAR
STARTCHAR uni04B3
ENCODING 1203
SWIDTH 640 0
DWIDTH 5 0
BBX 5 7 0 -2
BITMAP
430520
5E7D10
0AF500
1ED900
9A2ED0
0001F0
000180
ENDCHAR
STARTCHAR uni04B4
ENCODING 1204
SWIDTH 930 0
DWIDTH 7 0
BBX 8 8 0 -2
BITMAP
9BBB5B10
49D43F20
06C01F20
06C01F20
06C02F20
06FFFFF4
000000D4
00000093
ENDCHAR
STARTCHAR uni04B5
ENCODING 1205
SWIDTH 791 0
DWIDTH 6 0
BBX 7 7 0 -2
BITMAP
56636100
6EB5F200
0C61F200
0C61F200
0CEDFD30
00000D30
00000720
ENDCHAR
STARTCHAR uni04B6
ENCODING 1206
SWIDTH 804 0
DWIDTH 6 0
BBX 7 8 0 -2
BITMAP
6701B100
9A02F200
9B02F200
4FDEF200
0122F200
0002FF40
00000D40
00000930
ENDCHAR
STARTCHAR uni04B7
ENCODING 1207
SWIDTH 726 0
DWIDTH 6 0
BBX 6 7 0 -2
BITMAP
340340
8A0890
7C4B90
189B90
0008E9
00006B
000036
ENDCHAR
STARTCHAR uni04B8
ENCODING 1208
SWIDTH 728 0
DWIDTH 6 0
BBX 6 6 0 0
BITMAP
6701B1
9A12F2
9B82F2
4FFEF2
0192F2
0032F2
ENDCHAR
STARTCHAR uni04B9
ENCODING 1209
SWIDTH 655 0
DWIDTH 5 0
BBX 5 5 0 0
BITMAP
340340
8A1890
7C9B90
18CB90
004890
ENDCHAR
STARTCHAR uni04BA
ENCODING 1210
SWIDTH 728 0
DWIDTH 6 0
BBX 6 6 0 0
BITMAP
3A0000
4E0000
4FACA1
4E43E6
4E00C6
4E00C6
ENDCHAR
STARTCHAR uni04BB
ENCODING 1211
SWIDTH 666 0
DWIDTH 5 0
BBX 5 5 0 0
BITMAP
250000
6C0000
6ECE60
6C07B0
6C06C0
ENDCHAR
STARTCHAR uni04BC
ENCODING 1212
SWIDTH 948 0
DWIDTH 8 0
BBX 7 7 0 -1
BITMAP
003AB800
42E74B80
EBE77AD0
5BE88880
03F30240
006EFE70
00001000
ENDCHAR
STARTCHAR uni04BD
ENCODING 1213
SWIDTH 714 0
DWIDTH 6 0
BBX 6 6 0 -1
BITMAP
004620
55D7E2
DDDAE5
0AA221
02DDD1
000100
ENDCHAR
STARTCHAR uni04BE
ENCODING 1214
SWIDTH 948 0
DWIDTH 8 0
BBX 7 8 0 -2
BITMAP
003AB800
42E74B80
EBE77AD0
5BE88880
03F30240
007EFE70
0004D000
00039000
ENDCHAR
STARTCHAR uni04BF
ENCODING 1215
SWIDTH 714 0
DWIDTH 6 0
BBX 6 7 0 -2
BITMAP
004620
55D7E2
DDDAE5
0AA221
02DDD1
002E00
001800
ENDCHAR
STARTCHAR uni04C0
ENCODING 1216
SWIDTH 331 0
DWIDTH 3 0
BBX 2 6 0 0
BITMAP
3A
4E
4E
4E
4E
4E
ENDCHAR
STARTCHAR uni04C1
ENCODING 1217
SWIDTH 942 0
DWIDTH 8 0
BBX 8 8 0 0
BITMAP
01905500
008BB200
760941A2
2E3C5990
05CCAD10
04DDBC00
1E4C5B80
A90C52E3
ENDCHAR
STARTCHAR uni04C2
ENCODING 1218
SWIDTH 873 0
DWIDTH 7 0
BBX 7 7 0 0
BITMAP
01303100
02D9D200
43181340
3D2F2D30
07CFC700
0C7F7C00
9A1F1A90
ENDCHAR
STARTCHAR uni04C3
ENCODING 1219
SWIDTH 759 0
DWIDTH 6 0
BBX 6 8 0 -2
BITMAP
3A03A1
4E1D50
4EA800
4FEFA1
4E01C8
4E008A
0022C7
00AFB1
ENDCHAR
STARTCHAR uni04C4
ENCODING 1220
SWIDTH 661 0
DWIDTH 5 0
BBX 5 7 0 -2
BITMAP
250440
6C4D20
6EE700
6E8D90
6C03E0
0027C0
00CD40
ENDCHAR
STARTCHAR uni04C5
ENCODING 1221
SWIDTH 837 0
DWIDTH 7 0
BBX 7 8 0 -2
BITMAP
04BBB300
08B4F400
0A70F400
0C50F400
1F20F400
EB00FF60
10001E20
00004900
ENDCHAR
STARTCHAR uni04C6
ENCODING 1222
SWIDTH 727 0
DWIDTH 6 0
BBX 6 7 0 -2
BITMAP
046630
0DAD80
0E2A80
3E0A80
F90AE8
0000A6
000082
ENDCHAR
STARTCHAR uni04C7
ENCODING 1223
SWIDTH 765 0
DWIDTH 6 0
BBX 6 8 0 -2
BITMAP
3A0094
4E00C6
4F77E6
4F88E6
4E00C6
4E00C6
0023F4
00DE80
ENDCHAR
STARTCHAR uni04C8
ENCODING 1224
SWIDTH 662 0
DWIDTH 5 0
BBX 5 7 0 -2
BITMAP
250340
6C08A0
6EADA0
6D39A0
6C08A0
012B90
03EC20
ENDCHAR
STARTCHAR uni04C9
ENCODING 1225
SWIDTH 857 0
DWIDTH 7 0
BBX 7 8 0 -2
BITMAP
3A009400
4E00C600
4F77E600
4F88E600
4E00C700
4E00CF80
00000C50
00002A10
ENDCHAR
STARTCHAR uni04CA
ENCODING 1226
SWIDTH 744 0
DWIDTH 6 0
BBX 6 7 0 -2
BITMAP
250340
6C08A0
6EADA0
6D39A0
6C08EA
000088
000063
ENDCHAR
STARTCHAR uni04CB
ENCODING 1227
SWIDTH 728 0
DWIDTH 6 0
BBX 6 8 0 -2
BITMAP
6701B1
9A02F2
9B02F2
4FDEF2
0122F2
001FF2
001F10
001A10
ENDCHAR
STARTCHAR uni04CC
ENCODING 1228
SWIDTH 655 0
DWIDTH 5 0
BBX 5 7 0 -2
BITMAP
340340
8A0890
7C4B90
189B90
006E90
007900
004500
ENDCHAR
STARTCHAR uni04CD
ENCODING 1229
SWIDTH 1036 0
DWIDTH 8 0
BBX 8 8 0 -2
BITMAP
3B500A90
4EB03EC0
4CE18AC0
4C95D6C0
4C5DB4D1
4C1F64FE
0000006B
00000085
ENDCHAR
STARTCHAR uni04CE
ENCODING 1230
SWIDTH 925 0
DWIDTH 7 0
BBX 8 7 0 -2
BITMAP
26203610
6F90CF20
6CE5BF20
6BAD6F20
6B4E1FD3
000001E0
00000370
ENDCHAR
STARTCHAR uni04CF
ENCODING 1231
SWIDTH 331 0
DWIDTH 3 0
BBX 2 6 0 0
BITMAP
3A
4E
4E
4E
4E
4E
ENDCHAR
STARTCHAR uni04D0
ENCODING 1232
SWIDTH 689 0
DWIDTH 6 0
BBX 6 8 0 0
BITMAP
190550
08BB20
01B700
06CE00
0C6D40
2F7BA0
7DAAE1
C700E5
ENDCHAR
STARTCHAR uni04D1
ENCODING 1233
SWIDTH 604 0
DWIDTH 5 0
BBX 5 8 0 -1
BITMAP
220310
3D9D20
058300
198F20
28AF30
9B1F40
6ECD40
010000
ENDCHAR
STARTCHAR uni04D2
ENCODING 1234
SWIDTH 689 0
DWIDTH 6 0
BBX 6 8 0 0
BITMAP
022300
054900
01B700
06CE00
0C6D40
2F7BA0
7DAAE1
C700E5
ENDCHAR
STARTCHAR uni04D3
ENCODING 1235
SWIDTH 604 0
DWIDTH 5 0
BBX 5 7 0 -1
BITMAP
0B4900
056300
198F20
28AF30
9B1F40
6ECD40
010000
ENDCHAR
STARTCHAR uni04D4
ENCODING 1236
SWIDTH 952 0
DWIDTH 8 0
BBX 8 6 0 0
BITMAP
006BBBB1
01E8F441
07B4F770
0D98F880
5EABE000
C704FFF2
ENDCHAR
STARTCHAR uni04D5
ENCODING 1237
SWIDTH 916 0
DWIDTH 7 0
BBX 7 6 0 -1
BITMAP
05625610
198FBAB0
29BFBBF0
9B2F6220
6ED7DDA0
00000100
ENDCHAR
STARTCHAR uni04D6
ENCODING 1238
SWIDTH 560 0
DWIDTH 4 0
BBX 5 8 0 0
BITMAP
450820
2AB800
3BBB00
4E4400
4F7600
4F8700
4E0000
4FFF00
ENDCHAR
STARTCHAR uni04D7
ENCODING 1239
SWIDTH 590 0
DWIDTH 5 0
BBX 5 8 0 -1
BITMAP
220310
3D9D10
048300
4E7E20
9DAE60
8C2210
2CDD20
001000
ENDCHAR
STARTCHAR uni04D8
ENCODING 1240
SWIDTH 816 0
DWIDTH 7 0
BBX 6 7 0 -1
BITMAP
07BB81
1954C9
14447F
4FBBCF
2E208C
06EFC3
000100
ENDCHAR
STARTCHAR uni04D9
ENCODING 1241
SWIDTH 601 0
DWIDTH 5 0
BBX 5 6 0 -1
BITMAP
166200
488E20
577D60
9B5E50
2DDB00
001000
ENDCHAR
STARTCHAR uni04DA
ENCODING 1242
SWIDTH 816 0
DWIDTH 7 0
BBX 6 9 0 -1
BITMAP
003120
009360
07BB81
1954C9
14447F
4FBBCF
2E208C
06EFC3
000100
ENDCHAR
STARTCHAR uni04DB
ENCODING 1243
SWIDTH 601 0
DWIDTH 5 0
BBX 5 7 0 -1
BITMAP
0B4900
166200
488E20
577D60
9B5E50
2DDB00
001000
ENDCHAR
STARTCHAR uni04DC
ENCODING 1244
SWIDTH 942 0
DWIDTH 8 0
BBX 8 8 0 0
BITMAP
00223000
00549000
760941A2
2E3C5990
05CCAD10
04DDBC00
1E4C5B80
A90C52E3
ENDCHAR
STARTCHAR uni04DD
ENCODING 1245
SWIDTH 873 0
DWIDTH 7 0
BBX 7 6 0 0
BITMAP
00A4A000
43060340
3D2F2D30
07CFC700
0C7F7C00
9A1F1A90
ENDCHAR
STARTCHAR uni04DE
ENCODING 1246
SWIDTH 647 0
DWIDTH 5 0
BBX 5 9 0 -1
BITMAP
031300
063800
39BA20
363B90
057C40
058C60
1007C0
7EEE50
001000
ENDCHAR
STARTCHAR uni04DF
ENCODING 1247
SWIDTH 555 0
DWIDTH 4 0
BBX 5 7 0 -1
BITMAP
0C6600
266200
588E00
07C900
124F10
9DEA00
010000
ENDCHAR
STARTCHAR uni04E0
ENCODING 1248
SWIDTH 590 0
DWIDTH 5 0
BBX 5 7 0 -1
BITMAP
6BBB20
25DA00
0AD200
079E30
200D50
AEEB10
010000
ENDCHAR
STARTCHAR uni04E1
ENCODING 1249
SWIDTH 581 0
DWIDTH 5 0
BBX 5 7 0 -2
BITMAP
366610
58CD10
05D200
0CE900
002E40
313F40
8DC700
ENDCHAR
STARTCHAR uni04E2
ENCODING 1250
SWIDTH 823 0
DWIDTH 7 0
BBX 6 7 0 0
BITMAP
00CC80
390099
4C05ED
4C1D7D
4C8A3D
4DE23D
4F703D
ENDCHAR
STARTCHAR uni04E3
ENCODING 1251
SWIDTH 720 0
DWIDTH 6 0
BBX 6 6 0 0
BITMAP
04AA20
252561
6C0DF2
6C8AF2
6DE2F2
6F60F2
ENDCHAR
STARTCHAR uni04E4
ENCODING 1252
SWIDTH 823 0
DWIDTH 7 0
BBX 6 8 0 0
BITMAP
003120
009450
390099
4C05ED
4C1D7D
4C8A3D
4DE23D
4F703D
ENDCHAR
STARTCHAR uni04E5
ENCODING 1253
SWIDTH 720 0
DWIDTH 6 0
BBX 6 6 0 0
BITMAP
058B20
240261
6C0DF2
6C8AF2
6DE2F2
6F60F2
ENDCHAR
STARTCHAR uni04E6
ENCODING 1254
SWIDTH 795 0
DWIDTH 6 0
BBX 6 8 0 0
BITMAP
003220
018540
04AB70
2F74D8
7C007C
7C006D
4F30B9
08EFB2
ENDCHAR
STARTCHAR uni04E7
ENCODING 1255
SWIDTH 619 0
DWIDTH 5 0
BBX 5 7 0 -1
BITMAP
0A4A00
036300
4E9E30
990A80
8B0B70
1CEC10
001000
ENDCHAR
STARTCHAR uni04E8
ENCODING 1256
SWIDTH 795 0
DWIDTH 6 0
BBX 6 6 0 0
BITMAP
04AB70
2F64D8
7E77AC
7E99BD
4E20B9
08EFB2
ENDCHAR
STARTCHAR uni04E9
ENCODING 1257
SWIDTH 619 0
DWIDTH 5 0
BBX 5 6 0 -1
BITMAP
036300
4E9E30
9D9D80
8C3D70
1CEC10
001000
ENDCHAR
STARTCHAR uni04EA
ENCODING 1258
SWIDTH 795 0
DWIDTH 6 0
BBX 6 8 0 0
BITMAP
003220
018540
04AB70
2F64D8
7E77AC
7E99BD
4E20B9
08EFB2
ENDCHAR
STARTCHAR uni04EB
ENCODING 1259
SWIDTH 619 0
DWIDTH 5 0
BBX 5 7 0 -1
BITMAP
0B4A00
036300
4E9E30
9D9D80
8C3D70
1CEC10
001000
ENDCHAR
STARTCHAR uni04EC
ENCODING 1260
SWIDTH 663 0
DWIDTH 5 0
BBX 5 8 0 0
BITMAP
031300
073800
5BB700
454D60
056AB0
089CC0
101B90
8FFB10
ENDCHAR
STARTCHAR uni04ED
ENCODING 1261
SWIDTH 512 0
DWIDTH 4 0
BBX 4 7 0 -1
BITMAP
3A93
3640
58D6
19CA
13B9
9DD3
0100
ENDCHAR
STARTCHAR uni04EE
ENCODING 1262
SWIDTH 652 0
DWIDTH 5 0
BBX 6 7 0 0
BITMAP
09CC00
9502B1
6C08A0
0E4D40
07DC00
03F500
BFA000
ENDCHAR
STARTCHAR uni04EF
ENCODING 1263
SWIDTH 568 0
DWIDTH 5 0
BBX 5 8 0 -2
BITMAP
0AA600
542630
A91E30
4E5D00
0DC700
07F200
18B000
AC2000
ENDCHAR
STARTCHAR uni04F0
ENCODING 1264
SWIDTH 652 0
DWIDTH 5 0
BBX 6 8 0 0
BITMAP
031300
063800
9502B1
6C08A0
0E4D40
07DC00
03F500
BFA000
ENDCHAR
STARTCHAR uni04F1
ENCODING 1265
SWIDTH 568 0
DWIDTH 5 0
BBX 5 8 0 -2
BITMAP
0C5700
520430
A91E30
4E5D00
0DC700
07F200
18B000
AC2000
ENDCHAR
STARTCHAR uni04F2
ENCODING 1266
SWIDTH 652 0
DWIDTH 5 0
BBX 6 8 0 0
BITMAP
007450
066920
9502B1
6C08A0
0E4D40
07DC00
03F500
BFA000
ENDCHAR
STARTCHAR uni04F3
ENCODING 1267
SWIDTH 568 0
DWIDTH 5 0
BBX 5 9 0 -2
BITMAP
012110
0A8C10
541530
A91E30
4E5D00
0DC700
07F200
18B000
AC2000
ENDCHAR
STARTCHAR uni04F4
ENCODING 1268
SWIDTH 728 0
DWIDTH 6 0
BBX 6 8 0 0
BITMAP
022300
054900
6701B1
9A02F2
9B02F2
4FDEF2
0122F2
0002F2
ENDCHAR
STARTCHAR uni04F5
ENCODING 1269
SWIDTH 655 0
DWIDTH 5 0
BBX 5 6 0 0
BITMAP
094B00
340340
8A0890
7C4B90
189B90
000890
ENDCHAR
STARTCHAR uni04F6
ENCODING 1270
SWIDTH 561 0
DWIDTH 4 0
BBX 5 8 0 -2
BITMAP
3BBB40
4E4410
4E0000
4E0000
4E1000
4FF100
01F100
01A100
ENDCHAR
STARTCHAR uni04F7
ENCODING 1271
SWIDTH 478 0
DWIDTH 4 0
BBX 4 7 0 -2
BITMAP
2664
6E85
6C00
6C00
6FC0
03D0
0280
ENDCHAR
STARTCHAR uni04F8
ENCODING 1272
SWIDTH 905 0
DWIDTH 7 0
BBX 7 8 0 0
BITMAP
00213000
00638000
3A000760
4E000A80
4F740A80
4F8E6A80
4E0B8A80
4FFC2A80
ENDCHAR
STARTCHAR uni04F9
ENCODING 1273
SWIDTH 850 0
DWIDTH 7 0
BBX 7 6 0 0
BITMAP
00B49000
25000610
6C000F30
6EA71F30
6D3E5F30
6FDC2F30
ENDCHAR
STARTCHAR uni04FA
ENCODING 1274
SWIDTH 559 0
DWIDTH 4 0
BBX 5 8 0 -2
BITMAP
3BBB30
4E4410
7E5200
AFA500
4E3000
4FF100
03F100
0EA000
ENDCHAR
STARTCHAR uni04FB
ENCODING 1275
SWIDTH 491 0
DWIDTH 4 0
BBX 4 7 0 -2
BITMAP
3664
7E97
BD80
AD60
7FD0
05D0
3E70
ENDCHAR
STARTCHAR uni04FC
ENCODING 1276
SWIDTH 731 0
DWIDTH 6 0
BBX 6 8 0 -2
BITMAP
7703A0
2E3C60
07EC00
06FA00
2E4E62
A905FC
00008A
0005D5
ENDCHAR
STARTCHAR uni04FD
ENCODING 1277
SWIDTH 645 0
DWIDTH 5 0
BBX 6 7 0 -2
BITMAP
430520
5E7D10
0AF500
1ED900
9A2FF1
0003F0
001E90
ENDCHAR
STARTCHAR uni04FE
ENCODING 1278
SWIDTH 666 0
DWIDTH 5 0
BBX 6 6 0 0
BITMAP
7703A0
2E3C70
3BEE60
5CFE80
2E4E50
A905E1
ENDCHAR
STARTCHAR uni04FF
ENCODING 1279
SWIDTH 578 0
DWIDTH 5 0
BBX 5 5 0 0
BITMAP
430520
5E7D10
6EFC20
3FDB10
9A2E40
ENDCHAR
STARTCHAR uni0500
ENCODING 1280
SWIDTH 638 0
DWIDTH 5 0
BBX 5 6 0 0
BITMAP
000940
000C60
047E60
6E8E60
9B0C60
2CFF60
ENDCHAR
STARTCHAR uni0501
ENCODING 1281
SWIDTH 632 0
DWIDTH 5 0
BBX 5 7 0 0
BITMAP
000100
000B70
045B70
5E9E70
990B70
8A0C70
3EDC70
ENDCHAR
STARTCHAR uni0502
ENCODING 1282
SWIDTH 925 0
DWIDTH 7 0
BBX 7 6 0 0
BITMAP
000B2000
000F3000
047F3230
6E8F37B0
9A1F48B0
4EFBEE50
ENDCHAR
STARTCHAR uni0503
ENCODING 1283
SWIDTH 922 0
DWIDTH 7 0
BBX 7 7 0 0
BITMAP
00010000
000D5000
054D5000
5E9F5000
990D5490
8A0D67B0
2DEBEF60
ENDCHAR
STARTCHAR uni0504
ENCODING 1284
SWIDTH 913 0
DWIDTH 7 0
BBX 7 7 0 -1
BITMAP
6BB50000
448E0000
16A80330
28BA0890
001F3A90
000AFE40
00001000
ENDCHAR
STARTCHAR uni0505
ENCODING 1285
SWIDTH 870 0
DWIDTH 7 0
BBX 7 6 0 -1
BITMAP
36610000
67AA0000
0AD60940
029D0D50
002DFD10
00001000
ENDCHAR
STARTCHAR uni0506
ENCODING 1286
SWIDTH 701 0
DWIDTH 6 0
BBX 6 8 0 -2
BITMAP
6BB600
446F10
169A00
28AC10
000E50
000EF7
0000B7
000075
ENDCHAR
STARTCHAR uni0507
ENCODING 1287
SWIDTH 661 0
DWIDTH 5 0
BBX 6 7 0 -2
BITMAP
266200
588D00
0AC900
025F10
001FD2
0000D3
000081
ENDCHAR
STARTCHAR uni0508
ENCODING 1288
SWIDTH 1033 0
DWIDTH 8 0
BBX 8 7 0 -1
BITMAP
04BBB100
08B6F100
0A72F133
0C52F199
1F22F2A9
EB00BFE4
10000100
ENDCHAR
STARTCHAR uni0509
ENCODING 1289
SWIDTH 935 0
DWIDTH 7 0
BBX 7 5 0 0
BITMAP
04662000
0DAD6000
0E2C63A0
3E0B76D0
F906FF70
ENDCHAR
STARTCHAR uni050A
ENCODING 1290
SWIDTH 1042 0
DWIDTH 8 0
BBX 8 6 0 0
BITMAP
3A00A300
4E00F400
4F77F423
4F88F48A
4E00E49A
4E009FE5
ENDCHAR
STARTCHAR uni050B
ENCODING 1291
SWIDTH 952 0
DWIDTH 8 0
BBX 7 6 0 -1
BITMAP
25033000
6C099000
6EAD92B0
6D3AA4F0
6C04EF90
00000100
ENDCHAR
STARTCHAR uni050C
ENCODING 1292
SWIDTH 799 0
DWIDTH 6 0
BBX 6 7 0 -1
BITMAP
03AC92
2F7470
7C0233
7C0ADE
4F309B
07EFC3
000100
ENDCHAR
STARTCHAR uni050D
ENCODING 1293
SWIDTH 663 0
DWIDTH 5 0
BBX 5 6 0 -1
BITMAP
026610
4E9930
994980
8B29D0
1CEE50
001000
ENDCHAR
STARTCHAR uni050E
ENCODING 1294
SWIDTH 757 0
DWIDTH 6 0
BBX 6 7 0 -1
BITMAP
9BBB50
47E420
04E042
04E0C6
04E0D6
01CFD2
000100
ENDCHAR
STARTCHAR uni050F
ENCODING 1295
SWIDTH 733 0
DWIDTH 6 0
BBX 6 6 0 -1
BITMAP
566610
6BE820
06C0A3
05D1E4
02DFC1
000100
ENDCHAR
STARTCHAR uni0510
ENCODING 1296
SWIDTH 647 0
DWIDTH 5 0
BBX 5 7 0 -1
BITMAP
18BA50
6D4550
2C8600
4D9700
9A0020
3DFFA0
001000
ENDCHAR
STARTCHAR uni0511
ENCODING 1297
SWIDTH 556 0
DWIDTH 4 0
BBX 5 6 0 -1
BITMAP
056500
6D7800
2DB300
8A2100
5EDE20
001000
ENDCHAR
STARTCHAR uni0512
ENCODING 1298
SWIDTH 817 0
DWIDTH 7 0
BBX 7 8 0 -2
BITMAP
04BBB300
08B4F400
0A70F400
0C50F400
1F20F610
EB00FF60
10001D50
0000AC10
ENDCHAR
STARTCHAR uni0513
ENCODING 1299
SWIDTH 724 0
DWIDTH 6 0
BBX 6 7 0 -2
BITMAP
046630
0DAD80
0E2A80
3E0A80
F90AFA
00008A
0006D4
ENDCHAR
STARTCHAR uni1E00
ENCODING 7680
SWIDTH 689 0
DWIDTH 6 0
BBX 6 9 0 -3
BITMAP
01B700
06CE00
0C6D40
2F7BA0
7DAAE1
C700E5
006300
02AA00
003100
ENDCHAR
STARTCHAR uni1E01
ENCODING 7681
SWIDTH 604 0
DWIDTH 5 0
BBX 5 8 0 -3
BITMAP
056300
198F20
28AF30
9B1F40
6ECD40
037000
099400
014000
ENDCHAR
STARTCHAR uni1E3E
ENCODING 7742
SWIDTH 942 0
DWIDTH 8 0
BBX 7 8 0 0
BITMAP
00017100
00085000
3B500A90
4EB03EC0
4CE18AC0
4C95D6C0
4C5DB4C0
4C1F64C0
ENDCHAR
STARTCHAR uni1E3F
ENCODING 7743
SWIDTH 981 0
DWIDTH 8 0
BBX 8 7 0 0
BITMAP
00002100
0005C100
23571640
6E9ED9F2
6D0A90E4
6C0A80E4
6C0A80E4
ENDCHAR
STARTCHAR Wgrave
ENCODING 7808
SWIDTH 966 0
DWIDTH 8 0
BBX 8 8 0 0
BITMAP
00450000
00193000
A3096067
A71EB0B6
7B4BE1E3
3E87B7E0
0ED37DA0
0AE03F60
ENDCHAR
STARTCHAR wgrave
ENCODING 7809
SWIDTH 855 0
DWIDTH 7 0
BBX 7 7 0 0
BITMAP
00200000
00890000
52181240
A77E5A80
6BB88D30
2ED2CE00
0CB0DA00
ENDCHAR
STARTCHAR Wacute
ENCODING 7810
SWIDTH 966 0
DWIDTH 8 0
BBX 8 8 0 0
BITMAP
00017100
00095000
A3096067
A71EB0B6
7B4BE1E3
3E87B7E0
0ED37DA0
0AE03F60
ENDCHAR
STARTCHAR wacute
ENCODING 7811
SWIDTH 855 0
DWIDTH 7 0
BBX 7 7 0 0
BITMAP
00012000
001C5000
52271240
A77E5A80
6BB88D30
2ED2CE00
0CB0DA00
ENDCHAR
STARTCHAR Wdieresis
ENCODING 7812
SWIDTH 966 0
DWIDTH 8 0
BBX 8 8 0 0
BITMAP
00123000
00458100
A3096067
A71EB0B6
7B4BE1E3
3E87B7E0
0ED37DA0
0AE03F60
ENDCHAR
STARTCHAR wdieresis
ENCODING 7813
SWIDTH 855 0
DWIDTH 7 0
BBX 7 6 0 0
BITMAP
00B49000
52261240
A77E5A80
6BB88D30
2ED2CE00
0CB0DA00
ENDCHAR
STARTCHAR uni1EA0
ENCODING 7840
SWIDTH 689 0
DWIDTH 6 0
BBX 6 8 0 -2
BITMAP
01B700
06CE00
0C6D40
2F7BA0
7DAAE1
C700E5
005200
008300
ENDCHAR
STARTCHAR uni1EA1
ENCODING 7841
SWIDTH 604 0
DWIDTH 5 0
BBX 5 7 0 -2
BITMAP
056300
198F20
28AF30
9B1F40
6ECD40
025000
038000
ENDCHAR
STARTCHAR uni1EA2
ENCODING 7842
SWIDTH 689 0
DWIDTH 6 0
BBX 6 8 0 0
BITMAP
00B800
007500
01B700
06CE00
0C6D40
2F7BA0
7DAAE1
C700E5
ENDCHAR
STARTCHAR uni1EA3
ENCODING 7843
SWIDTH 604 0
DWIDTH 5 0
BBX 5 8 0 -1
BITMAP
039200
00B400
059300
198F20
28AF30
9B1F40
6ECD40
010000
ENDCHAR
STARTCHAR uni1EA4
ENCODING 7844
SWIDTH 689 0
DWIDTH 6 0
BBX 6 8 0 0
BITMAP
005391
066910
01B700
06CE00
0C6D40
2F7BA0
7DAAE1
C700E5
ENDCHAR
STARTCHAR uni1EA5
ENCODING 7845
SWIDTH 604 0
DWIDTH 5 0
BBX 5 8 0 -1
BITMAP
001160
09B920
066500
198F20
28AF30
9B1F40
6ECD40
010000
ENDCHAR
STARTCHAR uni1EA6
ENCODING 7846
SWIDTH 689 0
DWIDTH 6 0
BBX 6 8 0 0
BITMAP
655300
066910
01B700
06CE00
0C6D40
2F7BA0
7DAAE1
C700E5
ENDCHAR
STARTCHAR uni1EA7
ENCODING 7847
SWIDTH 604 0
DWIDTH 5 0
BBX 5 8 0 -1
BITMAP
701000
3AB600
066500
198F20
28AF30
9B1F40
6ECD40
010000
ENDCHAR
STARTCHAR uni1EA8
ENCODING 7848
SWIDTH 689 0
DWIDTH 6 0
BBX 6 9 0 0
BITMAP
000130
0054A0
066910
01B700
06CE00
0C6D40
2F7BA0
7DAAE1
C700E5
ENDCHAR
STARTCHAR uni1EA9
ENCODING 7849
SWIDTH 604 0
DWIDTH 5 0
BBX 5 8 0 -1
BITMAP
001470
09B910
066500
198F20
28AF30
9B1F40
6ECD40
010000
ENDCHAR
STARTCHAR uni1EAA
ENCODING 7850
SWIDTH 689 0
DWIDTH 6 0
BBX 6 9 0 0
BITMAP
014300
049800
057910
01B700
06CE00
0C6D40
2F7BA0
7DAAE1
C700E5
ENDCHAR
STARTCHAR uni1EAB
ENCODING 7851
SWIDTH 604 0
DWIDTH 5 0
BBX 5 8 0 -1
BITMAP
089600
08B500
066400
198F20
28AF30
9B1F40
6ECD40
010000
ENDCHAR
STARTCHAR uni1EAC
ENCODING 7852
SWIDTH 689 0
DWIDTH 6 0
BBX 6 10 0 -2
BITMAP
017400
086A30
01B700
06CE00
0C6D40
2F7BA0
7DAAE1
C700E5
005200
008300
ENDCHAR
STARTCHAR uni1EAD
ENCODING 7853
SWIDTH 604 0
DWIDTH 5 0
BBX 5 9 0 -2
BITMAP
012000
0BA900
166500
198F20
28AF30
9B1F40
6ECD40
025000
028000
ENDCHAR
STARTCHAR uni1EAE
ENCODING 7854
SWIDTH 689 0
DWIDTH 6 0
BBX 6 9 0 0
BITMAP
000100
046810
03A900
01B700
06CE00
0C6D40
2F7BA0
7DAAE1
C700E5
ENDCHAR
STARTCHAR uni1EAF
ENCODING 7855
SWIDTH 604 0
DWIDTH 5 0
BBX 5 8 0 -1
BITMAP
028300
0AA800
058300
198F20
28AF30
9B1F40
6ECD40
010000
ENDCHAR
STARTCHAR uni1EB0
ENCODING 7856
SWIDTH 689 0
DWIDTH 6 0
BBX 6 9 0 0
BITMAP
001000
059510
03A900
01B700
06CE00
0C6D40
2F7BA0
7DAAE1
C700E5
ENDCHAR
STARTCHAR uni1EB1
ENCODING 7857
SWIDTH 604 0
DWIDTH 5 0
BBX 5 8 0 -1
BITMAP
046200
0AA800
058300
198F20
28AF30
9B1F40
6ECD40
010000
ENDCHAR
STARTCHAR uni1EB2
ENCODING 7858
SWIDTH 689 0
DWIDTH 6 0
BBX 6 9 0 0
BITMAP
004100
046710
03A900
01B700
06CE00
0C6D40
2F7BA0
7DAAE1
C700E5
ENDCHAR
STARTCHAR uni1EB3
ENCODING 7859
SWIDTH 604 0
DWIDTH 5 0
BBX 5 8 0 -1
BITMAP
02A200
0AA800
058300
198F20
28AF30
9B1F40
6ECD40
010000
ENDCHAR
STARTCHAR uni1EB4
ENCODING 7860
SWIDTH 689 0
DWIDTH 6 0
BBX 6 9 0 0
BITMAP
014300
064810
04A900
01B700
06CE00
0C6D40
2F7BA0
7DAAE1
C700E5
ENDCHAR
STARTCHAR uni1EB5
ENCODING 7861
SWIDTH 604 0
DWIDTH 5 0
BBX 5 8 0 -1
BITMAP
078600
0A8900
058300
198F20
28AF30
9B1F40
6ECD40
010000
ENDCHAR
STARTCHAR uni1EB6
ENCODING 7862
SWIDTH 689 0
DWIDTH 6 0
BBX 6 10 0 -2
BITMAP
051420
04C900
01B700
06CE00
0C6D40
2F7BA0
7DAAE1
C700E5
005200
008300
ENDCHAR
STARTCHAR uni1EB7
ENCODING 7863
SWIDTH 604 0
DWIDTH 5 0
BBX 5 9 0 -2
BITMAP
010200
0BBA00
058300
198F20
28AF30
9B1F40
6ECD40
025000
038000
ENDCHAR
STARTCHAR uni1EB8
ENCODING 7864
SWIDTH 560 0
DWIDTH 4 0
BBX 4 8 0 -2
BITMAP
3BBB
4E44
4F76
4F87
4E00
4FFF
0160
0280
ENDCHAR
STARTCHAR uni1EB9
ENCODING 7865
SWIDTH 590 0
DWIDTH 5 0
BBX 5 7 0 -2
BITMAP
036200
4E7E20
9DAE60
8C2210
2CDD20
016000
028000
ENDCHAR
STARTCHAR uni1EBA
ENCODING 7866
SWIDTH 560 0
DWIDTH 4 0
BBX 4 8 0 0
BITMAP
04C3
00B2
3BBB
4E44
4F76
4F87
4E00
4FFF
ENDCHAR
STARTCHAR uni1EBB
ENCODING 7867
SWIDTH 590 0
DWIDTH 5 0
BBX 5 8 0 -1
BITMAP
039200
00A500
039200
4E7E20
9DAE60
8C2210
2CDD20
001000
ENDCHAR
STARTCHAR uni1EBC
ENCODING 7868
SWIDTH 560 0
DWIDTH 4 0
BBX 4 8 0 0
BITMAP
0424
19A8
3BBB
4E44
4F76
4F87
4E00
4FFF
ENDCHAR
STARTCHAR uni1EBD
ENCODING 7869
SWIDTH 590 0
DWIDTH 5 0
BBX 5 8 0 -1
BITMAP
000100
0CCB00
047300
4E7E20
9DAE60
8C2210
2CDD20
001000
ENDCHAR
STARTCHAR uni1EBE
ENCODING 7870
SWIDTH 560 0
DWIDTH 4 0
BBX 5 8 0 0
BITMAP
026480
096700
3BBB00
4E4400
4F7600
4F8700
4E0000
4FFF00
ENDCHAR
STARTCHAR uni1EBF
ENCODING 7871
SWIDTH 590 0
DWIDTH 5 0
BBX 5 8 0 -1
BITMAP
001160
09B920
056400
4E7E20
9DAE60
8C2210
2CDD20
001000
ENDCHAR
STARTCHAR uni1EC0
ENCODING 7872
SWIDTH 560 0
DWIDTH 4 0
BBX 5 8 -1 0
BITMAP
193610
009670
03BBB0
04E440
04F760
04F870
04E000
04FFF0
ENDCHAR
STARTCHAR uni1EC1
ENCODING 7873
SWIDTH 590 0
DWIDTH 5 0
BBX 5 8 0 -1
BITMAP
701000
3AB700
056400
4E7E20
9DAE60
8C2210
2CDD20
001000
ENDCHAR
STARTCHAR uni1EC2
ENCODING 7874
SWIDTH 560 0
DWIDTH 4 0
BBX 5 9 0 0
BITMAP
000210
026560
096700
3BBB00
4E4400
4F7600
4F8700
4E0000
4FFF00
ENDCHAR
STARTCHAR uni1EC3
ENCODING 7875
SWIDTH 590 0
DWIDTH 5 0
BBX 5 8 0 -1
BITMAP
001470
09B910
056400
4E7E20
9DAE60
8C2210
2CDD20
001000
ENDCHAR
STARTCHAR uni1EC4
ENCODING 7876
SWIDTH 560 0
DWIDTH 4 0
BBX 4 9 0 0
BITMAP
0333
06B3
0866
3BBB
4E44
4F76
4F87
4E00
4FFF
ENDCHAR
STARTCHAR uni1EC5
ENCODING 7877
SWIDTH 590 0
DWIDTH 5 0
BBX 5 8 0 -1
BITMAP
089600
07B600
056400
4E7E20
9DAE60
8C2210
2CDD20
001000
ENDCHAR
STARTCHAR uni1EC6
ENCODING 7878
SWIDTH 560 0
DWIDTH 4 0
BBX 4 10 0 -2
BITMAP
0372
1A69
3BBB
4E44
4F76
4F87
4E00
4FFF
0160
0280
ENDCHAR
STARTCHAR uni1EC7
ENCODING 7879
SWIDTH 590 0
DWIDTH 5 0
BBX 5 9 0 -2
BITMAP
012000
1BA900
156400
4E7E20
9DAE60
8C2210
2CDD20
016000
028000
ENDCHAR
STARTCHAR uni1EC8
ENCODING 7880
SWIDTH 331 0
DWIDTH 3 0
BBX 3 8 0 0
BITMAP
4C30
1B10
3A00
4E00
4E00
4E00
4E00
4E00
ENDCHAR
STARTCHAR uni1EC9
ENCODING 7881
SWIDTH 305 0
DWIDTH 2 0
BBX 3 7 0 0
BITMAP
5910
2C20
3700
6C00
6C00
6C00
6C00
ENDCHAR
STARTCHAR uni1ECA
ENCODING 7882
SWIDTH 331 0
DWIDTH 3 0
BBX 2 8 0 -2
BITMAP
3A
4E
4E
4E
4E
4E
15
28
ENDCHAR
STARTCHAR uni1ECB
ENCODING 7883
SWIDTH 305 0
DWIDTH 2 0
BBX 2 8 0 -2
BITMAP
5C
25
6C
6C
6C
6C
25
37
ENDCHAR
STARTCHAR uni1ECC
ENCODING 7884
SWIDTH 795 0
DWIDTH 6 0
BBX 6 8 0 -2
BITMAP
04AB70
2F74D8
7C007C
7C006D
4F30B9
08EFB2
002500
003700
ENDCHAR
STARTCHAR uni1ECD
ENCODING 7885
SWIDTH 619 0
DWIDTH 5 0
BBX 5 7 0 -2
BITMAP
036300
4E9E30
990A80
8B0B70
1CEC10
007000
019000
ENDCHAR
STARTCHAR uni1ECE
ENCODING 7886
SWIDTH 795 0
DWIDTH 6 0
BBX 6 8 0 0
BITMAP
006C10
002A00
04AB70
2F74D8
7C007C
7C006D
4F30B9
08EFB2
ENDCHAR
STARTCHAR uni1ECF
ENCODING 7887
SWIDTH 619 0
DWIDTH 5 0
BBX 5 8 0 -1
BITMAP
039200
00A500
039300
4E9E30
990A80
8B0B70
1CEC10
001000
ENDCHAR
STARTCHAR uni1ED0
ENCODING 7888
SWIDTH 795 0
DWIDTH 6 0
BBX 6 8 0 0
BITMAP
003565
019750
04AB70
2F74D8
7C007C
7C006D
4F30B9
08EFB2
ENDCHAR
STARTCHAR uni1ED1
ENCODING 7889
SWIDTH 619 0
DWIDTH 5 0
BBX 5 8 0 -1
BITMAP
001160
09B920
056500
4E9E30
990A80
8B0B70
1CEC10
001000
ENDCHAR
STARTCHAR uni1ED2
ENCODING 7890
SWIDTH 795 0
DWIDTH 6 0
BBX 6 8 0 0
BITMAP
293500
029750
04AB70
2F74D8
7C007C
7C006D
4F30B9
08EFB2
ENDCHAR
STARTCHAR uni1ED3
ENCODING 7891
SWIDTH 619 0
DWIDTH 5 0
BBX 5 8 0 -1
BITMAP
701000
3AB700
056400
4E9E30
990A80
8B0B70
1CEC10
001000
ENDCHAR
STARTCHAR uni1ED4
ENCODING 7892
SWIDTH 795 0
DWIDTH 6 0
BBX 6 9 0 0
BITMAP
000030
003583
019750
04AB70
2F74D8
7C007C
7C006D
4F30B9
08EFB2
ENDCHAR
STARTCHAR uni1ED5
ENCODING 7893
SWIDTH 619 0
DWIDTH 5 0
BBX 5 8 0 -1
BITMAP
001470
09B920
056500
4E9E30
990A80
8B0B70
1CEC10
001000
ENDCHAR
STARTCHAR uni1ED6
ENCODING 7894
SWIDTH 795 0
DWIDTH 6 0
BBX 6 9 0 0
BITMAP
004230
018B20
019740
04AB70
2F74D8
7C007C
7C006D
4F30B9
08EFB2
ENDCHAR
STARTCHAR uni1ED7
ENCODING 7895
SWIDTH 619 0
DWIDTH 5 0
BBX 5 8 0 -1
BITMAP
089700
07B600
056400
4E9E30
990A80
8B0B70
1CEC10
001000
ENDCHAR
STARTCHAR uni1ED8
ENCODING 7896
SWIDTH 795 0
DWIDTH 6 0
BBX 6 10 0 -2
BITMAP
005700
039670
04AB70
2F74D8
7C007C
7C006D
4F30B9
08EFB2
002500
003700
ENDCHAR
STARTCHAR uni1ED9
ENCODING 7897
SWIDTH 619 0
DWIDTH 5 0
BBX 5 9 0 -2
BITMAP
002000
0AAA00
056500
4E9E30
990A80
8B0B70
1CEC10
007000
019000
ENDCHAR
STARTCHAR uni1EDA
ENCODING 7898
SWIDTH 825 0
DWIDTH 7 0
BBX 7 8 0 0
BITMAP
00063000
00490010
04AB78A0
2F74DD20
7C007C00
7C006D00
4F30B900
08EFB200
ENDCHAR
STARTCHAR uni1EDB
ENCODING 7899
SWIDTH 679 0
DWIDTH 5 0
BBX 6 8 0 -1
BITMAP
001200
00B600
04839A
4E9EB2
990A80
8B0B70
1CEC10
001000
ENDCHAR
STARTCHAR uni1EDC
ENCODING 7900
SWIDTH 825 0
DWIDTH 7 0
BBX 7 8 0 0
BITMAP
01710000
00580010
04AB78A0
2F74DD20
7C007C00
7C006D00
4F30B900
08EFB200
ENDCHAR
STARTCHAR uni1EDD
ENCODING 7901
SWIDTH 679 0
DWIDTH 5 0
BBX 6 8 0 -1
BITMAP
021000
07B000
03839A
4E9EB2
990A80
8B0B70
1CEC10
001000
ENDCHAR
STARTCHAR uni1EDE
ENCODING 7902
SWIDTH 825 0
DWIDTH 7 0
BBX 7 8 0 0
BITMAP
005C2000
001B1010
04AB78A0
2F74DD20
7C007C00
7C006D00
4F30B900
08EFB200
ENDCHAR
STARTCHAR uni1EDF
ENCODING 7903
SWIDTH 679 0
DWIDTH 5 0
BBX 6 8 0 -1
BITMAP
029300
00A500
03939A
4E9EB2
990A80
8B0B70
1CEC10
001000
ENDCHAR
STARTCHAR uni1EE0
ENCODING 7904
SWIDTH 825 0
DWIDTH 7 0
BBX 7 8 0 0
BITMAP
00514000
039B6010
04AB78A0
2F74DD20
7C007C00
7C006D00
4F30B900
08EFB200
ENDCHAR
STARTCHAR uni1EE1
ENCODING 7905
SWIDTH 679 0
DWIDTH 5 0
BBX 6 7 0 -1
BITMAP
0BCB00
04749A
4E9EB2
990A80
8B0B70
1CEC10
001000
ENDCHAR
STARTCHAR uni1EE2
ENCODING 7906
SWIDTH 825 0
DWIDTH 7 0
BBX 7 9 0 -2
BITMAP
00000010
04AB78A0
2F74DD20
7C007C00
7C006D00
4F30B900
08EFB200
00250000
00370000
ENDCHAR
STARTCHAR uni1EE3
ENCODING 7907
SWIDTH 679 0
DWIDTH 5 0
BBX 6 7 0 -2
BITMAP
03639A
4E9EB2
990A80
8B0B70
1CEC10
007000
019100
ENDCHAR
STARTCHAR uni1EE4
ENCODING 7908
SWIDTH 755 0
DWIDTH 6 0
BBX 6 8 0 -2
BITMAP
3A0094
5D00D6
5D00D6
5D00D6
3F21E4
09FE90
003400
005500
ENDCHAR
STARTCHAR uni1EE5
ENCODING 7909
SWIDTH 657 0
DWIDTH 5 0
BBX 5 7 0 -2
BITMAP
240340
6C08A0
6C09A0
6D0BA0
2EEBA0
006100
009200
ENDCHAR
STARTCHAR uni1EE6
ENCODING 7910
SWIDTH 755 0
DWIDTH 6 0
BBX 6 8 0 0
BITMAP
008C00
004900
3A0094
5D00D6
5D00D6
5D00D6
3F21E4
09FE90
ENDCHAR
STARTCHAR uni1EE7
ENCODING 7911
SWIDTH 657 0
DWIDTH 5 0
BBX 5 7 0 0
BITMAP
029300
009600
243340
6C08A0
6C09A0
6D0BA0
2EEBA0
ENDCHAR
STARTCHAR uni1EE8
ENCODING 7912
SWIDTH 884 0
DWIDTH 7 0
BBX 8 8 0 0
BITMAP
00063000
00490010
3A0098E1
5D00DC40
5D00D600
5D00D600
3F11E400
09FE9000
ENDCHAR
STARTCHAR uni1EE9
ENCODING 7913
SWIDTH 759 0
DWIDTH 6 0
BBX 7 7 0 0
BITMAP
00020000
00990000
25234E50
6C08E700
6C09A000
6D0BA000
2EEBA000
ENDCHAR
STARTCHAR uni1EEA
ENCODING 7914
SWIDTH 884 0
DWIDTH 7 0
BBX 8 8 0 0
BITMAP
03600000
00850010
3A0098E1
5D00DC40
5D00D600
5D00D600
3F11E400
09FE9000
ENDCHAR
STARTCHAR uni1EEB
ENCODING 7915
SWIDTH 759 0
DWIDTH 6 0
BBX 7 7 0 0
BITMAP
02100000
07B00000
24244E50
6C08E700
6C09A000
6D0BA000
2EEBA000
ENDCHAR
STARTCHAR uni1EEC
ENCODING 7916
SWIDTH 884 0
DWIDTH 7 0
BBX 8 8 0 0
BITMAP
008C0000
00490010
3A0098E1
5D00DC40
5D00D600
5D00D600
3F11E400
09FE9000
ENDCHAR
STARTCHAR uni1EED
ENCODING 7917
SWIDTH 759 0
DWIDTH 6 0
BBX 7 7 0 0
BITMAP
01940000
00970000
24334E50
6C08E700
6C09A000
6D0BA000
2EEBA000
ENDCHAR
STARTCHAR uni1EEE
ENCODING 7918
SWIDTH 884 0
DWIDTH 7 0
BBX 8 8 0 0
BITMAP
01513000
058B4010
3A0098E1
5D00DC40
5D00D600
5D00D600
3F11E400
09FE9000
ENDCHAR
STARTCHAR uni1EEF
ENCODING 7919
SWIDTH 759 0
DWIDTH 6 0
BBX 7 6 0 0
BITMAP
0ACC1000
26044E50
6C08E700
6C09A000
6D0BA000
2EEBA000
ENDCHAR
STARTCHAR uni1EF0
ENCODING 7920
SWIDTH 884 0
DWIDTH 7 0
BBX 8 9 0 -2
BITMAP
00000010
3A0098E1
5D00DC40
5D00D600
5D00D600
3F11E400
09FE9000
00430000
00550000
ENDCHAR
STARTCHAR uni1EF1
ENCODING 7921
SWIDTH 759 0
DWIDTH 6 0
BBX 7 7 0 -2
BITMAP
24034E50
6C08E700
6C09A000
6D0BA000
2EEBA000
00610000
00910000
ENDCHAR
STARTCHAR Ygrave
ENCODING 7922
SWIDTH 624 0
DWIDTH 5 0
BBX 5 8 0 0
BITMAP
172000
049000
950590
5D1D50
0CCC00
04F400
02F100
02F100
ENDCHAR
STARTCHAR ygrave
ENCODING 7923
SWIDTH 568 0
DWIDTH 5 0
BBX 5 9 0 -2
BITMAP
120000
1A7000
522430
A91E30
4E5D00
0DC700
07F200
18B000
AC2000
ENDCHAR
STARTCHAR uni1EF4
ENCODING 7924
SWIDTH 624 0
DWIDTH 5 0
BBX 5 8 0 -2
BITMAP
950590
5D1D50
0CCC00
04F400
02F100
02F100
006000
019100
ENDCHAR
STARTCHAR uni1EF5
ENCODING 7925
SWIDTH 568 0
DWIDTH 5 0
BBX 5 7 0 -2
BITMAP
520430
A91E30
4E5D00
0DC700
07F200
18B420
AC2740
ENDCHAR
STARTCHAR uni1EF6
ENCODING 7926
SWIDTH 624 0
DWIDTH 5 0
BBX 5 8 0 0
BITMAP
03C400
00A200
950590
5D1D50
0CCC00
04F400
02F100
02F100
ENDCHAR
STARTCHAR uni1EF7
ENCODING 7927
SWIDTH 568 0
DWIDTH 5 0
BBX 5 9 0 -2
BITMAP
059100
01C200
522430
A91E30
4E5D00
0DC700
07F200
18B000
AC2000
ENDCHAR
STARTCHAR uni1EF8
ENCODING 7928
SWIDTH 624 0
DWIDTH 5 0
BBX 5 8 0 0
BITMAP
033300
09A900
950590
5D1D50
0CCC00
04F400
02F100
02F100
ENDCHAR
STARTCHAR uni1EF9
ENCODING 7929
SWIDTH 568 0
DWIDTH 5 0
BBX 5 9 0 -2
BITMAP
000100
1CCA00
631530
A91E30
4E5D00
0DC700
07F200
18B000
AC2000
ENDCHAR
STARTCHAR uni1F4D
ENCODING 8013
SWIDTH 835 0
DWIDTH 7 0
BBX 9 7 -2 -1
BITMAP
43A29B9200
455CA4AC00
002F202F20
002F201F30
000E706E10
0004DFD400
0000010000
ENDCHAR
STARTCHAR uni2000
ENCODING 8192
SWIDTH 500 0
DWIDTH 4 0
BBX 1 1 0 0
BITMAP
00
ENDCHAR
STARTCHAR uni2001
ENCODING 8193
SWIDTH 1000 0
DWIDTH 8 0
BBX 1 1 0 0
BITMAP
00
ENDCHAR
STARTCHAR uni2002
ENCODING 8194
SWIDTH 500 0
DWIDTH 4 0
BBX 1 1 0 0
BITMAP
00
ENDCHAR
STARTCHAR uni2003
ENCODING 8195
SWIDTH 1000 0
DWIDTH 8 0
BBX 1 1 0 0
BITMAP
00
ENDCHAR
STARTCHAR uni2004
ENCODING 8196
SWIDTH 333 0
DWIDTH 3 0
BBX 1 1 0 0
BITMAP
00
ENDCHAR
STARTCHAR uni2005
ENCODING 8197
SWIDTH 250 0
DWIDTH 2 0
BBX 1 1 0 0
BITMAP
00
ENDCHAR
STARTCHAR uni2006
ENCODING 8198
SWIDTH 166 0
DWIDTH 1 0
BBX 1 1 0 0
BITMAP
00
ENDCHAR
STARTCHAR uni2007
ENCODING 8199
SWIDTH 559 0
DWIDTH 4 0
BBX 1 1 0 0
BITMAP
00
ENDCHAR
STARTCHAR uni2008
ENCODING 8200
SWIDTH 285 0
DWIDTH 2 0
BBX 1 1 0 0
BITMAP
00
ENDCHAR
STARTCHAR uni2009
ENCODING 8201
SWIDTH 200 0
DWIDTH 2 0
BBX 1 1 0 0
BITMAP
00
ENDCHAR
STARTCHAR uni200A
ENCODING 8202
SWIDTH 100 0
DWIDTH 1 0
BBX 1 1 0 0
BITMAP
00
ENDCHAR
STARTCHAR uni200B
ENCODING 8203
SWIDTH 0 0
DWIDTH 0 0
BBX 1 1 0 0
BITMAP
00
ENDCHAR
STARTCHAR endash
ENCODING 8211
SWIDTH 500 0
DWIDTH 4 0
BBX 4 2 0 1
BITMAP
6996
3443
ENDCHAR
STARTCHAR emdash
ENCODING 8212
SWIDTH 1000 0
DWIDTH 8 0
BBX 8 2 0 1
BITMAP
69999996
34444443
ENDCHAR
STARTCHAR afii00208
ENCODING 8213
SWIDTH 1000 0
DWIDTH 8 0
BBX 8 2 0 1
BITMAP
69999996
34444443
ENDCHAR
STARTCHAR underscoredbl
ENCODING 8215
SWIDTH 411 0
DWIDTH 3 0
BBX 4 2 0 -2
BITMAP
8883
8883
ENDCHAR
STARTCHAR quoteleft
ENCODING 8216
SWIDTH 216 0
DWIDTH 2 0
BBX 2 3 0 3
BITMAP
46
A6
31
ENDCHAR
STARTCHAR quoteright
ENCODING 8217
SWIDTH 216 0
DWIDTH 2 0
BBX 2 3 0 3
BITMAP
66
B4
30
ENDCHAR
STARTCHAR quotesinglbase
ENCODING 8218
SWIDTH 291 0
DWIDTH 2 0
BBX 2 2 0 -1
BITMAP
69
A5
ENDCHAR
STARTCHAR quotereversed
ENCODING 8219
SWIDTH 215 0
DWIDTH 2 0
BBX 2 3 0 3
BITMAP
93
87
12
ENDCHAR
STARTCHAR quotedblleft
ENCODING 8220
SWIDTH 444 0
DWIDTH 4 0
BBX 4 3 0 3
BITMAP
4664
A6D3
3140
ENDCHAR
STARTCHAR quotedblright
ENCODING 8221
SWIDTH 444 0
DWIDTH 4 0
BBX 4 3 0 3
BITMAP
6684
B4E1
3030
ENDCHAR
STARTCHAR quotedblbase
ENCODING 8222
SWIDTH 518 0
DWIDTH 4 0
BBX 4 2 0 -1
BITMAP
6997
A5C2
ENDCHAR
STARTCHAR dagger
ENCODING 8224
SWIDTH 516 0
DWIDTH 4 0
BBX 4 7 0 0
BITMAP
0110
0770
4AA5
3883
0660
0670
0780
ENDCHAR
STARTCHAR daggerdbl
ENCODING 8225
SWIDTH 525 0
DWIDTH 4 0
BBX 4 7 0 0
BITMAP
0010
0590
5BC8
1692
2793
5AC7
0590
ENDCHAR
STARTCHAR bullet
ENCODING 8226
SWIDTH 375 0
DWIDTH 3 0
BBX 3 4 0 1
BITMAP
0200
7F70
8F80
1410
ENDCHAR
STARTCHAR ellipsis
ENCODING 8230
SWIDTH 854 0
DWIDTH 7 0
BBX 7 3 0 -1
BITMAP
11020200
7B3F0D40
00010100
ENDCHAR
STARTCHAR perthousand
ENCODING 8240
SWIDTH 1280 0
DWIDTH 10 0
BBX 10 6 0 0
BITMAP
4B50550000
A6E1C10000
A7E8873173
3B7CAAC9AD
0095B5EA5E
03B06E95EA
ENDCHAR
STARTCHAR minute
ENCODING 8242
SWIDTH 266 0
DWIDTH 2 0
BBX 2 3 0 3
BITMAP
56
68
22
ENDCHAR
STARTCHAR second
ENCODING 8243
SWIDTH 472 0
DWIDTH 4 0
BBX 4 3 0 3
BITMAP
5693
68B2
2241
ENDCHAR
STARTCHAR guilsinglleft
ENCODING 8249
SWIDTH 368 0
DWIDTH 3 0
BBX 3 4 0 0
BITMAP
0A50
6C00
3D20
0430
ENDCHAR
STARTCHAR guilsinglright
ENCODING 8250
SWIDTH 368 0
DWIDTH 3 0
BBX 3 4 0 0
BITMAP
6900
1D60
3E20
3400
ENDCHAR
STARTCHAR exclamdbl
ENCODING 8252
SWIDTH 569 0
DWIDTH 5 0
BBX 5 7 0 -1
BITMAP
692B10
7B3F10
6B2F00
5A1E00
120300
7B3F00
000100
ENDCHAR
STARTCHAR fraction
ENCODING 8260
SWIDTH 129 0
DWIDTH 1 0
BBX 5 6 -2 0
BITMAP
000640
001C00
009500
02B000
0B3000
4A0000
ENDCHAR
STARTCHAR zerosuperior
ENCODING 8304
SWIDTH 378 0
DWIDTH 3 0
BBX 3 4 0 2
BITMAP
5B50
C6C0
C7C0
4B50
ENDCHAR
STARTCHAR foursuperior
ENCODING 8308
SWIDTH 378 0
DWIDTH 3 0
BBX 3 4 0 2
BITMAP
0850
4C70
CBB0
2660
ENDCHAR
STARTCHAR fivesuperior
ENCODING 8309
SWIDTH 378 0
DWIDTH 3 0
BBX 3 4 0 2
BITMAP
5B60
9820
14B0
6A50
ENDCHAR
STARTCHAR sixsuperior
ENCODING 8310
SWIDTH 378 0
DWIDTH 3 0
BBX 3 4 0 2
BITMAP
0750
8B40
C5C0
5B60
ENDCHAR
STARTCHAR sevensuperior
ENCODING 8311
SWIDTH 378 0
DWIDTH 3 0
BBX 3 4 0 2
BITMAP
8B90
0580
0C20
2800
ENDCHAR
STARTCHAR eightsuperior
ENCODING 8312
SWIDTH 378 0
DWIDTH 3 0
BBX 3 4 0 2
BITMAP
5A50
8B80
A8B0
6A60
ENDCHAR
STARTCHAR ninesuperior
ENCODING 8313
SWIDTH 378 0
DWIDTH 3 0
BBX 3 4 0 2
BITMAP
5B40
C5C0
38B0
6A20
ENDCHAR
STARTCHAR nsuperior
ENCODING 8319
SWIDTH 422 0
DWIDTH 3 0
BBX 4 3 0 3
BITMAP
6990
94C1
93B1
ENDCHAR
STARTCHAR franc
ENCODING 8355
SWIDTH 570 0
DWIDTH 5 0
BBX 5 6 0 0
BITMAP
3BBB20
4E4410
4E6600
4E9900
AFA100
4E0000
ENDCHAR
STARTCHAR afii08941
ENCODING 8356
SWIDTH 570 0
DWIDTH 5 0
BBX 5 6 0 0
BITMAP
05BA10
0E7400
7FB600
6FA500
4E3100
AFFF60
ENDCHAR
STARTCHAR peseta
ENCODING 8359
SWIDTH 892 0
DWIDTH 7 0
BBX 7 6 0 0
BITMAP
3BA60000
4D5F3200
4D2E6D40
4FE98E70
4D003C00
4D001EB0
ENDCHAR
STARTCHAR uni20AB
ENCODING 8363
SWIDTH 648 0
DWIDTH 5 0
BBX 5 9 0 -2
BITMAP
000100
007DA0
026C90
4FCD70
9B0B70
9B0C70
3EDC70
144410
144410
ENDCHAR
STARTCHAR Euro
ENCODING 8364
SWIDTH 570 0
DWIDTH 5 0
BBX 5 6 0 0
BITMAP
02AB30
0E8420
8FA500
8E9200
2F5110
06EE40
ENDCHAR
STARTCHAR afii61248
ENCODING 8453
SWIDTH 794 0
DWIDTH 6 0
BBX 7 6 0 0
BITMAP
4A419000
B2077000
7B5C0000
0097A700
03C75B10
0B34BB00
ENDCHAR
STARTCHAR afii61289
ENCODING 8467
SWIDTH 520 0
DWIDTH 4 0
BBX 4 7 0 -1
BITMAP
08B4
1F6B
2FB6
9F50
3F16
0CD8
0010
ENDCHAR
STARTCHAR afii61352
ENCODING 8470
SWIDTH 1027 0
DWIDTH 8 0
BBX 8 6 0 0
BITMAP
5A039000
7F64C000
7BD4C5B7
79A9CA2C
793EC5B8
790BC7B9
ENDCHAR
STARTCHAR uni2120
ENCODING 8480
SWIDTH 734 0
DWIDTH 6 0
BBX 6 4 0 2
BITMAP
577466
67A8A8
5BA888
011111
ENDCHAR
STARTCHAR trademark
ENCODING 8482
SWIDTH 749 0
DWIDTH 6 0
BBX 6 4 0 2
BITMAP
9A8647
37898A
37887A
011111
ENDCHAR
STARTCHAR Omega
ENCODING 8486
SWIDTH 786 0
DWIDTH 6 0
BBX 7 6 0 0
BITMAP
05BB7000
4F64D800
8B006C00
6B007B00
1C42C300
CFB7FF10
ENDCHAR
STARTCHAR estimated
ENCODING 8494
SWIDTH 619 0
DWIDTH 5 0
BBX 5 6 0 -1
BITMAP
014100
261720
885870
750000
174610
001000
ENDCHAR
STARTCHAR oneeighth
ENCODING 8539
SWIDTH 880 0
DWIDTH 7 0
BBX 7 7 0 -1
BITMAP
2A109100
6D259000
0C2C4610
0887CA70
01C1AC60
0860CA70
00000100
ENDCHAR
STARTCHAR threeeighths
ENCODING 8540
SWIDTH 880 0
DWIDTH 7 0
BBX 7 7 0 -1
BITMAP
6A406400
2962C000
27897620
7B8BAA90
00B38C80
04A0AA90
00000100
ENDCHAR
STARTCHAR fiveeighths
ENCODING 8541
SWIDTH 880 0
DWIDTH 7 0
BBX 7 7 0 -1
BITMAP
5B606400
8932C000
14C97620
6A8BAA90
00B38C80
04A0AA90
00000100
ENDCHAR
STARTCHAR seveneighths
ENCODING 8542
SWIDTH 880 0
DWIDTH 7 0
BBX 7 7 0 -1
BITMAP
8B909000
04968000
0B3C4610
2886DA60
02C0BC50
0940CB60
00000100
ENDCHAR
STARTCHAR partialdiff
ENCODING 8706
SWIDTH 581 0
DWIDTH 5 0
BBX 5 6 0 0
BITMAP
07B700
055F30
2CEF50
9B1F40
B86E00
6EE400
ENDCHAR
STARTCHAR Delta
ENCODING 8710
SWIDTH 658 0
DWIDTH 5 0
BBX 6 6 0 0
BITMAP
02B500
07DB00
0C5E10
2E0A60
8905C0
CFFFF1
ENDCHAR
STARTCHAR product
ENCODING 8719
SWIDTH 741 0
DWIDTH 6 0
BBX 6 8 0 -2
BITMAP
4BBBB3
5E44F4
5D00E4
5D00E4
5D00E4
5D00E4
5D00E4
4A00B3
ENDCHAR
STARTCHAR summation
ENCODING 8721
SWIDTH 630 0
DWIDTH 5 0
BBX 5 8 0 -2
BITMAP
8BBB80
5F5430
09B000
01D700
02E400
0B9000
6E4330
ACCCC0
ENDCHAR
STARTCHAR minus
ENCODING 8722
SWIDTH 570 0
DWIDTH 5 0
BBX 5 2 0 2
BITMAP
244410
699920
ENDCHAR
STARTCHAR radical
ENCODING 8730
SWIDTH 548 0
DWIDTH 4 0
BBX 5 8 0 -1
BITMAP
0001A0
000580
000B30
851C00
3C6700
0AD200
05C000
001000
ENDCHAR
STARTCHAR infinity
ENCODING 8734
SWIDTH 707 0
DWIDTH 6 0
BBX 6 4 0 1
BITMAP
010010
5CBCD1
78C9C2
172550
ENDCHAR
STARTCHAR integral
ENCODING 8747
SWIDTH 412 0
DWIDTH 3 0
BBX 4 9 0 -2
BITMAP
0010
0AF4
0E40
0E40
0E40
0E40
0E40
2F30
DB00
ENDCHAR
STARTCHAR approxequal
ENCODING 8776
SWIDTH 570 0
DWIDTH 5 0
BBX 5 4 0 1
BITMAP
130010
8ADD20
5A7520
448810
ENDCHAR
STARTCHAR notequal
ENCODING 8800
SWIDTH 570 0
DWIDTH 5 0
BBX 5 5 0 0
BITMAP
006700
8DFD30
59D720
4E6510
040000
ENDCHAR
STARTCHAR lessequal
ENCODING 8804
SWIDTH 570 0
DWIDTH 5 0
BBX 5 6 0 0
BITMAP
000010
006C20
5C7100
4BA400
003A30
8DDD30
ENDCHAR
STARTCHAR greaterequal
ENCODING 8805
SWIDTH 570 0
DWIDTH 5 0
BBX 5 6 0 0
BITMAP
100000
8A3000
03AA10
17C910
871000
8DDD30
ENDCHAR
STARTCHAR lozenge
ENCODING 9674
SWIDTH 583 0
DWIDTH 5 0
BBX 5 6 0 0
BITMAP
019000
0AD500
4B2D10
691D20
0CA700
03C000
ENDCHAR
STARTCHAR ff
ENCODING 64256
SWIDTH 773 0
DWIDTH 6 0
BBX 7 7 0 0
BITMAP
00100100
1DE4DE50
5F64F710
8F87F910
3F01F200
3F01F200
3F01F200
ENDCHAR
STARTCHAR uniFB01
ENCODING 64257
SWIDTH 691 0
DWIDTH 6 0
BBX 5 7 0 0
BITMAP
001000
1DE8D0
5F6260
8F85E0
3F04E0
3F04E0
3F04E0
ENDCHAR
STARTCHAR uniFB02
ENCODING 64258
SWIDTH 691 0
DWIDTH 6 0
BBX 5 7 0 0
BITMAP
001010
1DE8E0
5F64E0
8F85E0
3F04E0
3F04E0
3F04E0
ENDCHAR
STARTCHAR uniFB03
ENCODING 64259
SWIDTH 1078 0
DWIDTH 9 0
BBX 8 7 0 0
BITMAP
00100100
1DE4DE8E
5F64F726
8F87F94F
3F01F23F
3F01F23F
3F01F23F
ENDCHAR
STARTCHAR uniFB04
ENCODING 64260
SWIDTH 1078 0
DWIDTH 9 0
BBX 8 7 0 0
BITMAP
00100101
1DE4DE8F
5F64F74F
8F87F94F
3F01F23F
3F01F23F
3F01F23F
ENDCHAR
STARTCHAR uniFEFF
ENCODING 65279
SWIDTH 0 0
DWIDTH 0 0
BBX 1 1 0 0
BITMAP
00
ENDCHAR
STARTCHAR uniFFFC
ENCODING 65532
SWIDTH 1000 0
DWIDTH 8 0
BBX 8 8 0 -2
BITMAP
83734648
30000003
53747155
583AA275
34758543
60000005
50000004
53634635
ENDCHAR
STARTCHAR uniFFFD
ENCODING 65533
SWIDTH 1000 0
DWIDTH 8 0
BBX 8 7 0 -1
BITMAP
00099000
00888800
09EA4B90
6FFC3EF6
0BFADFB0
00B7BB00
000AA000
ENDCHAR
STARTCHAR .notdef
ENCODING -1
SWIDTH 600 0
DWIDTH 5 0
BBX 5 6 0 0
BITMAP
376800
420510
420510
420510
420510
476910
ENDCHAR
STARTCHAR null
ENCODING -1
SWIDTH 0 0
DWIDTH 0 0
BBX 1 1 0 0
BITMAP
00
ENDCHAR
STARTCHAR nonmarkingreturn
ENCODING -1
SWIDTH 509 0
DWIDTH 4 0
BBX 1 1 0 0
BITMAP
00
ENDCHAR
STARTCHAR I.alt
ENCODING -1
SWIDTH 389 0
DWIDTH 3 0
BBX 3 6 0 0
BITMAP
8B90
2F40
1F20
1F20
1F20
9FB0
ENDCHAR
STARTCHAR Igrave.alt
ENCODING -1
SWIDTH 389 0
DWIDTH 3 0
BBX 3 8 0 0
BITMAP
5400
1A20
8B90
2F40
1F20
1F20
1F20
9FB0
ENDCHAR
STARTCHAR Iacute.alt
ENCODING -1
SWIDTH 389 0
DWIDTH 3 0
BBX 3 8 0 0
BITMAP
0260
0A40
8B90
2F40
1F20
1F20
1F20
9FB0
ENDCHAR
STARTCHAR Icircumflex.alt
ENCODING -1
SWIDTH 389 0
DWIDTH 3 0
BBX 4 8 0 0
BITMAP
2730
95A1
8B90
2F40
1F20
1F20
1F20
9FB0
ENDCHAR
STARTCHAR Idieresis.alt
ENCODING -1
SWIDTH 389 0
DWIDTH 3 0
BBX 3 8 0 0
BITMAP
3130
7380
8B90
2F40
1F20
1F20
1F20
9FB0
ENDCHAR
STARTCHAR Itilde.alt
ENCODING -1
SWIDTH 389 0
DWIDTH 3 0
BBX 4 8 0 0
BITMAP
3331
99A0
8B90
2F40
1F20
1F20
1F20
9FB0
ENDCHAR
STARTCHAR Imacron.alt
ENCODING -1
SWIDTH 389 0
DWIDTH 3 0
BBX 3 7 0 0
BITMAP
9CB0
8B90
2F40
1F20
1F20
1F20
9FB0
ENDCHAR
STARTCHAR Ibreve.alt
ENCODING -1
SWIDTH 389 0
DWIDTH 3 0
BBX 3 8 0 0
BITMAP
6160
6C70
8B90
2F40
1F20
1F20
1F20
9FB0
ENDCHAR
STARTCHAR Iogonek.alt
ENCODING -1
SWIDTH 389 0
DWIDTH 3 0
BBX 3 8 0 -2
BITMAP
8B90
2F40
1F20
1F20
1F20
9FB0
4800
4B10
ENDCHAR
STARTCHAR Idotaccent.alt
ENCODING -1
SWIDTH 389 0
DWIDTH 3 0
BBX 3 8 0 0
BITMAP
0500
0A10
8B90
2F40
1F20
1F20
1F20
9FB0
ENDCHAR
STARTCHAR IJ.alt
ENCODING -1
SWIDTH 720 0
DWIDTH 6 0
BBX 6 8 0 -2
BITMAP
8B92B0
2F43F1
1F23F1
1F23F1
1F23F1
9FB3F1
0039D0
005A30
ENDCHAR
STARTCHAR Iotatonos.alt
ENCODING -1
SWIDTH 512 0
DWIDTH 4 0
BBX 5 6 -1 0
BITMAP
2C8B90
342F40
001F20
001F20
001F20
00AFB0
ENDCHAR
STARTCHAR Iota.alt
ENCODING -1
SWIDTH 389 0
DWIDTH 3 0
BBX 3 6 0 0
BITMAP
8B90
2F40
1F20
1F20
1F20
9FB0
ENDCHAR
STARTCHAR Iotadieresis.alt
ENCODING -1
SWIDTH 389 0
DWIDTH 3 0
BBX 3 8 0 0
BITMAP
3130
7380
8B90
2F40
1F20
1F20
1F20
9FB0
ENDCHAR
STARTCHAR afii10055.alt
ENCODING -1
SWIDTH 389 0
DWIDTH 3 0
BBX 3 6 0 0
BITMAP
8B90
2F40
1F20
1F20
1F20
9FB0
ENDCHAR
STARTCHAR afii10056.alt
ENCODING -1
SWIDTH 389 0
DWIDTH 3 0
BBX 3 8 0 0
BITMAP
3130
7380
8B90
2F40
1F20
1F20
1F20
9FB0
ENDCHAR
STARTCHAR cyrillicbreve
ENCODING -1
SWIDTH 577 0
DWIDTH 5 0
BBX 5 3 0 4
BITMAP
220310
5C9C00
012000
ENDCHAR
STARTCHAR caroncommaaccent
ENCODING -1
SWIDTH 500 0
DWIDTH 4 0
BBX 2 3 1 4
BITMAP
01
77
20
ENDCHAR
STARTCHAR commaaccent
ENCODING -1
SWIDTH 500 0
DWIDTH 4 0
BBX 2 2 1 -2
BITMAP
35
63
ENDCHAR
STARTCHAR commaaccentrotate
ENCODING -1
SWIDTH 500 0
DWIDTH 4 0
BBX 2 3 1 4
BITMAP
01
68
21
ENDCHAR
STARTCHAR dasiaoxia
ENCODING -1
SWIDTH 250 0
DWIDTH 2 0
BBX 4 2 0 4
BITMAP
34A1
4550
ENDCHAR
STARTCHAR uni04C0.alt
ENCODING -1
SWIDTH 389 0
DWIDTH 3 0
BBX 3 6 0 0
BITMAP
8B90
2F40
1F20
1F20
1F20
9FB0
ENDCHAR
STARTCHAR uni04CF.alt
ENCODING -1
SWIDTH 389 0
DWIDTH 3 0
BBX 3 6 0 0
BITMAP
8B90
2F40
1F20
1F20
1F20
9FB0
ENDCHAR
STARTCHAR uni1EC8.alt
ENCODING -1
SWIDTH 389 0
DWIDTH 3 0
BBX 3 8 0 0
BITMAP
2C60
0A30
8B90
2F40
1F20
1F20
1F20
9FB0
ENDCHAR
STARTCHAR uni1ECA.alt
ENCODING -1
SWIDTH 389 0
DWIDTH 3 0
BBX 3 8 0 -2
BITMAP
8B90
2F40
1F20
1F20
1F20
9FB0
0610
0910
ENDCHAR
STARTCHAR circumflexacutecomb
ENCODING -1
SWIDTH 0 0
DWIDTH 0 0
BBX 5 3 -4 4
BITMAP
010610
6BB300
201000
ENDCHAR
STARTCHAR circumflexgravecomb
ENCODING -1
SWIDTH 0 0
DWIDTH 0 0
BBX 4 3 -5 4
BITMAP
6110
29B9
0201
ENDCHAR
STARTCHAR circumflexhookcomb
ENCODING -1
SWIDTH 0 0
DWIDTH 0 0
BBX 4 3 -4 4
BITMAP
0139
6BA3
2010
ENDCHAR
STARTCHAR circumflextildecomb
ENCODING -1
SWIDTH 0 0
DWIDTH 0 0
BBX 3 3 -4 4
BITMAP
6980
5B80
2010
ENDCHAR
STARTCHAR breveacutecomb
ENCODING -1
SWIDTH 0 0
DWIDTH 0 0
BBX 3 3 -4 4
BITMAP
2640
8AA0
0200
ENDCHAR
STARTCHAR brevegravecomb
ENCODING -1
SWIDTH 0 0
DWIDTH 0 0
BBX 3 3 -4 4
BITMAP
3820
8AA0
0200
ENDCHAR
STARTCHAR brevehookcomb
ENCODING -1
SWIDTH 0 0
DWIDTH 0 0
BBX 3 3 -4 4
BITMAP
2A30
8AA0
0200
ENDCHAR
STARTCHAR brevetildecomb
ENCODING -1
SWIDTH 0 0
DWIDTH 0 0
BBX 3 3 -4 4
BITMAP
6870
88A0
0200
ENDCHAR
STARTCHAR cyrillichookleft
ENCODING -1
SWIDTH 206 0
DWIDTH 2 0
BBX 2 2 0 -2
BITMAP
66
B6
ENDCHAR
STARTCHAR cyrillicbighookUC
ENCODING -1
SWIDTH 291 0
DWIDTH 2 0
BBX 3 4 0 -2
BITMAP
0300
0F20
2F20
DB00
ENDCHAR
STARTCHAR cyrillicbighookLC
ENCODING -1
SWIDTH 291 0
DWIDTH 2 0
BBX 3 3 0 -2
BITMAP
0F20
2F20
DB00
ENDCHAR
STARTCHAR one.pnum
ENCODING -1
SWIDTH 480 0
DWIDTH 4 0
BBX 3 6 0 0
BITMAP
05B0
7EF0
34F0
03F0
03F0
03F0
ENDCHAR
STARTCHAR zero.os
ENCODING -1
SWIDTH 608 0
DWIDTH 5 0
BBX 5 6 0 -1
BITMAP
047300
4E8E30
890B60
7B0D50
2DEB10
001000
ENDCHAR
STARTCHAR one.os
ENCODING -1
SWIDTH 492 0
DWIDTH 4 0
BBX 4 5 0 0
BITMAP
0171
3DF3
54E3
00F3
00F3
ENDCHAR
STARTCHAR two.os
ENCODING -1
SWIDTH 570 0
DWIDTH 5 0
BBX 5 5 0 0
BITMAP
167300
7BAE00
008C00
1AA100
BFFF40
ENDCHAR
STARTCHAR three.os
ENCODING -1
SWIDTH 570 0
DWIDTH 5 0
BBX 5 7 0 -2
BITMAP
167300
59AE00
026C00
0AE800
001F30
9ACD10
154100
ENDCHAR
STARTCHAR four.os
ENCODING -1
SWIDTH 570 0
DWIDTH 5 0
BBX 5 7 0 -2
BITMAP
003500
02EC00
0BAC00
786C00
CDEF60
007C00
002400
ENDCHAR
STARTCHAR five.os
ENCODING -1
SWIDTH 570 0
DWIDTH 5 0
BBX 5 7 0 -2
BITMAP
277600
5E9700
6C5200
4ABE10
001F20
8ACC00
154000
ENDCHAR
STARTCHAR six.os
ENCODING -1
SWIDTH 570 0
DWIDTH 5 0
BBX 5 7 0 -1
BITMAP
04AA00
4D5300
9AA700
AC5F30
8A1E40
2DEB00
001000
ENDCHAR
STARTCHAR seven.os
ENCODING -1
SWIDTH 570 0
DWIDTH 5 0
BBX 5 7 0 -2
BITMAP
577720
799F30
006C00
00D500
05E000
0B7000
041000
ENDCHAR
STARTCHAR eight.os
ENCODING -1
SWIDTH 570 0
DWIDTH 5 0
BBX 5 7 0 -1
BITMAP
19B600
7B4F10
3EBA00
4DBB00
A80E40
5EDB10
001000
ENDCHAR
STARTCHAR nine.os
ENCODING -1
SWIDTH 570 0
DWIDTH 5 0
BBX 5 7 0 -2
BITMAP
057200
7D9D00
A70F40
7EBE30
033E10
3AD700
252000
ENDCHAR
STARTCHAR g.alt
ENCODING -1
SWIDTH 632 0
DWIDTH 5 0
BBX 5 7 0 -2
BITMAP
045320
5E9E70
990B70
8A0C70
3EDD70
111D50
4DD900
ENDCHAR
STARTCHAR gcircumflex.alt
ENCODING -1
SWIDTH 632 0
DWIDTH 5 0
BBX 5 9 0 -2
BITMAP
002000
0AAA00
065530
5E9E70
990B70
8A0C70
3EDD70
111D50
4DD900
ENDCHAR
STARTCHAR gbreve.alt
ENCODING -1
SWIDTH 632 0
DWIDTH 5 0
BBX 5 9 0 -2
BITMAP
020200
0BBA00
057320
5E9E70
990B70
8A0C70
3EDD70
111D50
4DD900
ENDCHAR
STARTCHAR gdot.alt
ENCODING -1
SWIDTH 632 0
DWIDTH 5 0
BBX 5 8 0 -2
BITMAP
00E100
045320
5E9E70
990B70
8A0C70
3EDD70
111D50
4DD900
ENDCHAR
STARTCHAR gcommaaccent.alt
ENCODING -1
SWIDTH 632 0
DWIDTH 5 0
BBX 5 9 0 -2
BITMAP
001100
00B300
057420
5E9E70
990B70
8A0C70
3EDD70
111D50
4DD900
ENDCHAR
ENDFONT
